<svg xmlns="http://www.w3.org/2000/svg" viewBox="0 0 511.9 511.9"><defs><style>.cls-1{fill:#3b3b3b;}.cls-2{fill:#6f7172;}.cls-3{fill:#e9b939;}.cls-4{fill:#aab2bc;}.cls-5{fill:#f9bc3f;}</style></defs><g id="Layer_2" data-name="Layer 2"><g id="Layer_1-2" data-name="Layer 1"><path class="cls-1" d="M511.9,255.9c0,141.4-114.6,256-256,256S0,397.3,0,255.9,114.6,0,255.9,0,511.9,114.6,511.9,255.9Z"/><path class="cls-2" d="M469.2,255.9c0,117.8-95.5,213.3-213.3,213.3S42.6,373.7,42.6,255.9,138.1,42.7,255.9,42.7,469.2,138.2,469.2,255.9Z"/><path class="cls-3" d="M390.6,321.4h0L277.3,255.9l113.3-65.4h0a10.6,10.6,0,1,0-10.7-18.4h0L266.6,237.5V106.6h0a10.7,10.7,0,0,0-21.3,0h0V237.5L132,172.1h0a10.6,10.6,0,1,0-10.7,18.4h0l113.3,65.4L121.3,321.4h0A10.6,10.6,0,1,0,132,339.8h0l113.3-65.4V405.3h0a10.7,10.7,0,0,0,21.3,0h0V274.4l113.3,65.4h0a10.6,10.6,0,1,0,10.7-18.4Z"/><path class="cls-4" d="M255.9,10.7a10.7,10.7,0,0,0,0,21.3,10.7,10.7,0,1,0,0-21.3Z"/><path class="cls-4" d="M255.9,479.9a10.7,10.7,0,1,0,10.7,10.7A10.7,10.7,0,0,0,255.9,479.9Z"/><path class="cls-4" d="M144,62a10.7,10.7,0,1,0-14.6-3.9A10.8,10.8,0,0,0,144,62Z"/><path class="cls-4" d="M367.9,449.9a10.7,10.7,0,1,0,14.6,3.9A10.7,10.7,0,0,0,367.9,449.9Z"/><path class="cls-4" d="M47.4,147.9a10.7,10.7,0,1,0-3.9-14.6A10.8,10.8,0,0,0,47.4,147.9Z"/><path class="cls-4" d="M464.5,364a10.7,10.7,0,1,0,3.9,14.6A10.8,10.8,0,0,0,464.5,364Z"/><path class="cls-4" d="M21.3,245.3a10.7,10.7,0,0,0,0,21.3,10.7,10.7,0,1,0,0-21.3Z"/><path class="cls-4" d="M490.5,245.3a10.7,10.7,0,1,0,10.7,10.6A10.7,10.7,0,0,0,490.5,245.3Z"/><path class="cls-4" d="M47.4,364A10.7,10.7,0,1,0,62,367.9,10.8,10.8,0,0,0,47.4,364Z"/><path class="cls-4" d="M453.8,129.4a10.7,10.7,0,1,0,10.7,18.5,10.7,10.7,0,0,0-10.7-18.5Z"/><path class="cls-4" d="M144,449.9a10.6,10.6,0,0,0-14.6,3.9,10.7,10.7,0,1,0,14.6-3.9Z"/><path class="cls-4" d="M378.6,43.5a10.7,10.7,0,1,0,3.9,14.6A10.7,10.7,0,0,0,378.6,43.5Z"/><path class="cls-5" d="M341.2,255.9a85.3,85.3,0,1,1-85.3-85.3A85.3,85.3,0,0,1,341.2,255.9Z"/><path class="cls-1" d="M266.6,255.9a10.7,10.7,0,1,1-10.7-10.6A10.7,10.7,0,0,1,266.6,255.9Z"/></g></g></svg>