<svg width="51" height="51" fill="none" xmlns="http://www.w3.org/2000/svg"><path d="M8.35 1.25h33.505A6.75 6.75 0 0 1 48.605 8v5.106H1.6V8a6.75 6.75 0 0 1 6.75-6.75ZM1.6 13.131h47.005v11.856H1.6zM1.6 25.012h47.005v11.856H1.6zM1.6 36.894h47.005V42a6.75 6.75 0 0 1-6.75 6.75H8.35A6.75 6.75 0 0 1 1.6 42v-5.106Z" fill="#87AD39" stroke="#000" stroke-width="2.5"/><circle cx="33.023" cy="6.931" r="5.681" fill="#fff" stroke="#000" stroke-width="2.5"/><circle cx="17.182" cy="31.188" r="5.681" fill="#fff" stroke="#000" stroke-width="2.5"/><circle cx="43.419" cy="18.812" r="5.681" fill="#fff" stroke="#000" stroke-width="2.5"/><circle cx="7.281" cy="43.069" r="5.681" fill="#fff" stroke="#000" stroke-width="2.5"/><path d="M8.35 1.25h33.505A6.75 6.75 0 0 1 48.605 8v5.106H1.6V8a6.75 6.75 0 0 1 6.75-6.75ZM1.6 13.131h47.005v11.856H1.6zM1.6 25.012h47.005v11.856H1.6zM1.6 36.894h47.005V42a6.75 6.75 0 0 1-6.75 6.75H8.35A6.75 6.75 0 0 1 1.6 42v-5.106Z" fill="#6F9520" stroke="#000" stroke-width="2.5"/><circle cx="33.023" cy="6.931" r="5.681" fill="#fff" stroke="#000" stroke-width="2.5"/><circle cx="17.182" cy="31.188" r="5.681" fill="#fff" stroke="#000" stroke-width="2.5"/><circle cx="43.419" cy="18.812" r="5.681" fill="#fff" stroke="#000" stroke-width="2.5"/><circle cx="7.281" cy="43.069" r="5.681" fill="#fff" stroke="#000" stroke-width="2.5"/><path d="M44.282 1.283H6.418a5.134 5.134 0 0 0-5.134 5.135v37.864a5.134 5.134 0 0 0 5.134 5.134h37.864a5.134 5.134 0 0 0 5.135-5.134V6.418a5.134 5.134 0 0 0-5.135-5.135Z" fill="#A0C35A"/><path d="M49.425 13.297H37.403v12.049h12.022V13.297ZM25.363 25.346H13.315v12.048h12.048V25.346ZM1.267 37.394h12.048v12.048H6.4a5.138 5.138 0 0 1-5.134-5.134v-6.914ZM37.403 1.258H25.355v12.048h12.048V1.258Z" fill="#fff"/><path d="M44.282 0H6.418A6.42 6.42 0 0 0 0 6.418v37.864A6.42 6.42 0 0 0 6.418 50.7h37.864a6.42 6.42 0 0 0 6.418-6.418V6.418A6.42 6.42 0 0 0 44.282 0Zm3.85 6.418v5.605H38.66V2.567h5.622a3.856 3.856 0 0 1 3.85 3.85ZM36.094 14.59v9.48H2.567v-9.48h33.526Zm-9.464-2.567V2.567h9.464v9.456H26.63ZM2.567 26.638h9.464v9.48H2.567v-9.48Zm12.031 0h9.464v9.48h-9.464v-9.48Zm12.031 0h21.504v9.48H26.629v-9.48Zm21.504-2.567H38.66V14.59h9.473v9.48ZM6.418 2.567h17.644v9.456H2.567V6.418a3.856 3.856 0 0 1 3.85-3.85Zm-3.85 41.715v-5.604h9.463v9.455H6.418a3.856 3.856 0 0 1-3.85-3.85Zm41.714 3.85H14.598v-9.454h33.535v5.604a3.856 3.856 0 0 1-3.85 3.85Z" fill="#000"/></svg>