<svg width="142" height="142" viewBox="0 0 142 142" fill="none" xmlns="http://www.w3.org/2000/svg">
<g clip-path="url(#clip0_267_12036)">
<path d="M0 32C0 14.3269 14.3269 0 32 0H110C127.673 0 142 14.3269 142 32V110C142 127.673 127.673 142 110 142H32C14.3269 142 0 127.673 0 110V32Z" fill="white"/>
<path d="M11 39C11 23.536 23.536 11 39 11H103C118.464 11 131 23.536 131 39V103C131 118.464 118.464 131 103 131H39C23.536 131 11 118.464 11 103V39Z" fill="white"/>
<path d="M67 75V131H39C23.536 131 11 118.464 11 103V75H67Z" fill="#4040BF"/>
<path fill-rule="evenodd" clip-rule="evenodd" d="M39 11C23.536 11 11 23.536 11 39V67H67V11H39ZM75 131H103C118.464 131 131 118.464 131 103V75H75V131Z" fill="#ADADEB"/>
<path d="M75 67V11H103C118.464 11 131 23.536 131 39V67H75Z" fill="#4040BF"/>
<mask id="mask0_267_12036" style="mask-type:alpha" maskUnits="userSpaceOnUse" x="11" y="11" width="120" height="120">
<path d="M67 75V131H39C23.536 131 11 118.464 11 103V75H67Z" fill="#4040BF"/>
<path fill-rule="evenodd" clip-rule="evenodd" d="M39 11C23.536 11 11 23.536 11 39V67H67V11H39ZM75 131H103C118.464 131 131 118.464 131 103V75H75V131Z" fill="#ADADEB"/>
<path d="M75 67V11H103C118.464 11 131 23.536 131 39V67H75Z" fill="#4040BF"/>
</mask>
<g mask="url(#mask0_267_12036)">
<g style="mix-blend-mode:overlay">
<path d="M106.53 77.41L104.745 77.46L104.673 76.49L104.961 76.62L105.661 76.54L105.588 75.65L103.663 75.6799L103.132 74.98L103.16 74.61L100.676 72.37L100.072 72.86L103.614 77.1899L104.118 77.36V77.6H103.444L103.614 78.14L107.974 78.33L106.53 77.41Z" fill="#2A2A3A"/>
<path d="M109.322 75.14L109.62 74.95V72.5699L109.322 72.4399L109.179 71.7H108.744L108.465 72.45L108.131 72.75L105.609 74.12V75.47L106.45 76.58H108.575L108.845 75.89L109.322 75.46V75.14Z" fill="#2A2A3A"/>
<path d="M111.193 74.95L109.918 75.4399L109.937 75.73H109.62V77.49H110.271L110.174 76.37L110.682 76.5499V77.34L111.212 77.2999L111.193 74.95Z" fill="#2A2A3A"/>
<path d="M121.573 84.1899L120.275 83.08L120.179 80.97L119.321 79.5L118.551 79.46L118.239 82.12L116.764 82.01L116.353 81.76L116.304 80.71L117.083 80.87L117.739 80.23L116.341 79.39H114.695L113.514 81.0599H113.033V80.53L111.621 80.64L109.376 83.1899L108.19 83.21L106.866 84.12L106.767 88.0699L105.974 88.84V89.54L109.832 88.22L112.955 88.09L114.111 90.64L117.661 90.76L121.083 87.54L121.923 85.62L121.573 84.1899Z" fill="#2A2A3A"/>
<path d="M114.575 92.6L115.832 92.73L116.844 92.1699L116.862 91.41L115.756 91.29L114.575 92.6Z" fill="#2A2A3A"/>
<path d="M126.643 89.12L126.12 89.23L126.103 88.0499L125.145 88.11L125.023 89.95L124.18 90.53L122.614 90.74L120.11 92.53L119.681 92.88V93.47L120.996 93.27L124.173 91.3199L125.072 90.73L126.033 90.3099L127 89.76L126.643 89.12Z" fill="#2A2A3A"/>
<path d="M116.795 75.97L115.985 75.99L116.046 75.15L115.275 74.6899L114.179 75.79L114.914 76.6899L116.501 76.9199L117.396 77.39L117.419 77.8199H116.839L116.863 78.71L118.791 78.59L119.491 77.85L120.237 77.77V79.15H121.538V78.59H120.89L120.766 76.9199L117.661 75.51L116.795 75.97Z" fill="#2A2A3A"/>
<path d="M93.6611 71.97L93.9641 72.78L95.0631 72.37L95.1831 71.24L94.2981 71.0699L93.6611 71.97Z" fill="#2A2A3A"/>
<path d="M80.8 81.51L79.304 81.3099V82.47L79.834 83.1L79.423 83.72L78.822 84.4199V85.7L79.642 86.49L80.391 85.29L81.859 83.15L82.556 79.77H81.666L80.8 81.51Z" fill="#2A2A3A"/>
<path d="M111.51 77.95H111.02V78.21L111.4 78.33L111.51 77.95Z" fill="#2A2A3A"/>
<path d="M109.324 78.33H108.744V78.65H109.324V78.33Z" fill="#2A2A3A"/>
<path d="M110.153 78.65H110.515V78.37L110.775 78.33V78.0499H110.198L109.963 78.33L109.62 78.65V78.9299L110.153 78.87V78.65Z" fill="#2A2A3A"/>
<path d="M111.635 78.9H112.211V78.6L112.619 78.65L112.565 78.14L111.906 78.24L111.849 78.5699L111.112 78.65H111.074V79.16H111.635V78.9Z" fill="#2A2A3A"/>
<path d="M22.59 53.77L22.709 53.01L21.927 52.89C21.927 52.93 21.986 53.77 22.047 53.77C22.108 53.77 22.59 53.77 22.59 53.77Z" fill="#2A2A3A"/>
<path d="M61.934 53.04L61.9949 53.51L61.2949 53.66L61.1989 54.66H62.0419L63.1619 54.5499L63.739 53.86L63.124 53.62L62.788 53.23L62.283 52.4199L62.0419 51.26L61.0909 51.45L60.825 51.86V52.3199L61.2809 52.63L61.934 53.04Z" fill="#2A2A3A"/>
<path d="M61.126 53.4299L61.175 52.7999L60.618 52.5599L59.8391 52.74L59.259 53.6699V54.27H59.933L61.126 53.4299Z" fill="#2A2A3A"/>
<path d="M44.906 56.53H44.074V56.96H44.272C44.272 56.96 44.283 57.0499 44.3 57.1699L44.809 57.13L45.127 56.9299L45.211 56.53L45.622 56.49L45.784 56.16L45.406 56.08L45.075 56.09L44.906 56.53Z" fill="#2A2A3A"/>
<path d="M42.9031 57.29L43.506 57.23L43.5701 56.8099L43.2081 56.53L42.9351 56.87L42.9031 57.29Z" fill="#2A2A3A"/>
<path d="M50.826 75.87L48.273 75.84L46.249 75.08L46.153 73.63L45.476 72.45L43.647 72.4199L42.586 70.76L41.646 70.2999L41.597 70.8099L39.885 70.91L39.258 70.04L37.476 69.6799L36.01 71.38L33.697 70.99L33.528 68.38L31.842 68.09L32.518 66.8099L32.323 66.08L30.107 67.5599L28.712 67.39L28.212 66.2999L28.517 65.1799L29.287 63.76L31.058 62.86H34.479L34.47 63.9L35.698 64.48L35.599 62.6899L36.485 61.7999L38.274 60.63L38.396 59.7999L40.179 57.95L42.074 56.9L41.907 56.76L43.191 55.5499L43.661 55.6699L43.877 55.95L44.366 55.4L44.485 55.35L43.95 55.28L43.41 55.1V54.5699L43.699 54.34H44.333L44.624 54.47L44.875 54.97L45.183 54.9199V54.88L45.272 54.91L46.16 54.77L46.286 54.34L46.791 54.46V54.9299L46.322 55.26L46.39 55.77L48.001 56.27C48.001 56.27 48.003 56.28 48.005 56.29L48.374 56.25L48.4 55.5599L47.118 54.98L47.045 54.65L48.104 54.28L48.151 53.27L47.045 52.6L46.972 50.89L45.455 51.64H44.901L45.047 50.33L42.98 49.85L42.125 50.49V52.46L40.589 52.95L39.974 54.23L39.307 54.34V52.7L37.863 52.5L37.14 52.03L36.849 50.96L39.434 49.45L40.7 49.0599L40.827 49.91L41.531 49.88L41.585 49.45L42.323 49.34L42.334 49.2L42.017 49.0599L41.944 48.61L42.851 48.54L43.398 47.97L43.429 47.9299H43.436L43.602 47.76L45.507 47.51L46.348 48.23L44.14 49.4L46.949 50.0699L47.313 49.13H48.541L48.975 48.3099L48.106 48.09V47.0599L45.385 45.85L43.506 46.0699L42.445 46.62L42.517 47.97L41.409 47.7999L41.238 47.0599L42.299 46.09L40.371 45.99L39.817 46.16L39.575 46.8099L40.298 46.9299L40.153 47.66L38.925 47.73L38.732 48.21L36.95 48.26C36.95 48.26 36.9 47.25 36.83 47.25C36.759 47.25 38.227 47.22 38.227 47.22L39.289 46.1899L38.708 45.9L37.938 46.65L36.658 46.5699L35.888 45.51H34.249L32.537 46.79H34.103L34.247 47.25L33.838 47.63L35.573 47.6799L35.839 48.3099L33.885 48.24L33.789 47.75L32.561 47.49L31.91 47.13L29.019 47.15L28.127 48.02L27.526 47.97L26.852 47.58L24.851 46.98H21.188L19.072 48.4299L17.651 48.65L17.001 49.15L18.013 49.2999V49.71H15.845L15 50.3099L16.083 51.22L19.046 51.25L19.455 50.8099H21.937L22.827 51.61L22.78 52.84L23.527 53.53L22.9 53.98L23.045 55.6L20.805 58.33V60.88L22.01 61.46V63.75L23.165 65.72L24.104 65.87L24.224 65.1899L23.116 63.48L22.9 61.8199H23.55L23.825 63.53L25.429 65.87L25.013 66.62L26.032 68.1799L28.561 68.8099V68.4L29.574 68.54L29.477 69.27L30.271 69.41L31.499 69.75L33.235 71.73L35.449 71.89L35.665 73.7L34.148 74.76L34.075 76.38L33.859 77.37L36.053 80.11L36.222 81.0499C36.222 81.0499 37.018 81.27 37.114 81.27C37.21 81.27 38.896 82.54 38.896 82.54V87.51L39.498 87.6799L39.087 89.96L40.099 91.3099L39.911 93.58L41.247 95.9299L42.964 97.4299L44.69 97.47L44.859 96.91L43.591 95.84L43.663 95.3099L43.891 94.66L43.94 94L43.083 93.98L42.651 93.4399L43.363 92.75L43.459 92.23L42.665 92L42.712 91.52L43.844 91.35L45.568 90.52L46.146 89.46L47.954 87.15L47.543 85.34L48.097 84.38L49.76 84.4299L50.88 83.54L51.241 80.0499L52.481 78.47L52.697 77.46L51.565 77.1L50.826 75.87ZM37.732 58.0599L37.316 58.48H36.393L36.539 57.84L36.973 57.8099L37.065 57.59L37.732 57.5V58.0599ZM37.95 56.9199L37.516 57.2L36.975 57.2999C36.975 57.2999 36.975 56.43 36.975 56.34H37.952L37.95 56.9199ZM38.77 56.25L39.213 56.53L38.859 56.8199L38.509 56.53L38.77 56.25ZM38.185 56.98H38.258L39.359 57.2999V57.86H38.436L38.185 57.5V56.98ZM37.459 55.4199L38.056 55.96L37.459 56.11V55.4199ZM34.93 55.51L35.761 55.1699H36.9V55.51H37.152V56.11H35.419L34.768 55.9299L34.93 55.51ZM34.768 57.0699L35.437 56.34H36.395L35.167 58.0599L34.66 57.79L34.768 57.0699ZM33.883 52.98L34.568 53.14L34.331 54.0699L33.592 54.2999L33.122 53.34L33.883 52.98ZM30.449 48.61V48.5499H31.084L31.138 48.34H32.173V48.79L31.877 49.1899H30.449V48.61ZM31.462 50.02C31.462 50.02 32.096 49.91 32.147 49.91C32.199 49.91 32.147 50.54 32.147 50.54L30.72 50.63L30.447 50.3099L31.462 50.02Z" fill="#2A2A3A"/>
<path d="M101.122 71.74L104.553 75.02L104.736 74.45L101.951 70.47L102.24 69.3099L103.71 70.98L104.529 71.0699L105.607 70.35L105.429 69.26L103.646 67.83L103.576 66.53L104.085 65.85L104.987 66.13L104.914 66.75L105.431 67.54L105.889 67.22L105.638 66.28L108.169 65.37L109.275 64.45L109.108 62.77L106.906 60.46L106.868 58.58H107.845L110.879 60.9L111.734 60.66L111.168 59.9199L109.543 58.9299L109.639 57.46L111.565 57.47L111.72 55.65L110.982 54.6799L111.419 54.21L112.356 55.15L112.657 54.75L111.452 53.38L108.456 53.02L108.056 52.23L108.923 51L109.609 51.5L111.668 51.6799L114.27 49.95L114.704 50.49L114.124 51.39V52.2999L116.51 54.25L117.271 53.85L116.982 52.5499L115.282 50.96L117.522 50.8199V50.1699L118.607 49.95L117.776 49.38L117.814 48.9399L120.091 49.2999L120.526 48.9399L117.457 47.63L106.253 47.0599L105.206 46.53L103.543 46.28L102.291 46.24L101.159 47.38L100.683 47.35L99.173 46.23H94.7271L92.6661 45L88.535 45.26L85.402 46.66L85.428 48.29L84.4581 48.58L84.2421 46.95L83.8831 46.38L82.798 46.12L82.5471 47.09L82.873 47.89L79.0151 47.64L77.1761 48.49L76.897 47.6899L76.4391 47.8099L76.1031 48.7L75.1381 49.45L72.787 49.38L72.6821 48.86L75.1381 48.76L75.6431 48.3199L72.6771 46.95L69.0601 47.0599L67.0391 48.09L66.2801 49.45L64.944 49.97L64.3801 50.58L64.509 51.2999L65.1971 51.39L65.6151 52.4299L66.8041 51.95L67.001 53.34H66.6421L65.662 53.2L64.5801 53.38L63.5331 54.86L62.032 55.09L61.816 56.38L62.4501 56.53L62.269 57.35L60.7781 57.0499L59.4111 57.35L59.1221 58.11L59.36 59.71L60.1631 60.08H61.506L62.415 59.99L62.694 59.27L64.113 57.4199L65.045 57.62L65.9651 56.79L66.1371 57.4399L68.4011 58.96L68.123 59.33L67.1021 59.28L67.4941 59.84L68.121 59.97L68.8561 59.6699L68.842 58.78L69.1681 58.62L68.9051 58.34L67.3951 57.5L66.9991 56.38H68.2551L68.6541 56.77L69.7371 57.7L69.7841 58.83L70.9041 60.02L71.319 58.39L72.097 57.96L72.2421 59.2999L73.001 60.13L75.29 60.09L75.9641 60.6V61.79L75.1331 62.5499H72.8201L71.4091 61.5L69.9291 61.65V62.5499H69.457L68.9521 62.1899L66.386 61.54V59.88L63.1331 60.13L62.1241 60.6699H60.832L60.1981 60.61L58.6291 61.48V63.12L55.4241 65.4299L55.6891 66.4199H56.3401L56.1711 67.36L55.7131 67.53L55.6891 69.99L58.4581 73.14H59.665L59.738 72.95H61.9051L62.5301 72.37H63.7601L64.4341 73.0499L66.264 73.24L66.022 75.6699L68.058 79.26L66.985 81.3099L67.0571 82.27L67.9031 83.11V85.4299L69.009 86.9199V88.85H72.287L74.746 86.3199L75.5161 84.9399L76.5021 84.73V83.5699L77.1531 82.7999L78.524 80.9199L78.235 78.0499L77.634 76.99L80.337 74.41L83.3171 70.15L82.7391 69.88L79.647 70.53L78.8511 70.14L75.5981 64.01L75.826 63.74L79.05 67.66L79.1351 68.87L79.881 69.62L81.3981 69.52L84.569 67.23L85.5641 66.58L85.5431 65.78L84.4861 65.65C84.4861 65.65 80.7761 63.8999 80.7761 63.8199C80.7761 63.7399 80.8 62.3199 80.8 62.3199H81.6191L81.7411 63.36L83.4601 64.34L85.4261 64.4399L89.688 65.14L90.688 65.77V66.74L90.5591 68.0699L92.748 71.66L93.4521 71.83L94.157 70.7999L94.5471 67.9L95.277 66.33L96.451 65.89L98.5251 66.09L101.124 68.4L101.122 71.74ZM71.1411 48.86L69.7061 49.74V50.3199L70.5211 50.7L70.5731 51.48L69.4271 53.1799L67.438 53.16L67.313 52.75L68.558 52.12L68.5671 49.76L70.6811 48.29H71.1411V48.86ZM75.561 58.91L73.6871 58.83L73.1251 58.91V57.63L73.548 57.16L73.9991 57.02L74.9971 56.9L75.2131 56.5599L75.6221 56.76L75.6761 57.9299L76.7681 58.38L76.8641 58.91H75.561ZM82.7601 59.8199L82.4341 60.14L81.678 60.08L81.532 59.85L80.3391 59.76L80.4241 59.38L81.053 58.84V58.38L79.8461 57.5L79.7971 56.38L80.0411 55.83L81.0161 55.74L81.847 56.09L81.8851 56.6699L80.7061 56.6L80.6451 57.14L82.126 58.13V58.85L82.7651 59.3199V59.8199H82.7601Z" fill="#2A2A3A"/>
</g>
</g>
</g>
<defs>
<clipPath id="clip0_267_12036">
<rect width="142" height="142" fill="white"/>
</clipPath>
</defs>
</svg>
