<svg width="100" height="80" viewBox="0 0 100 80" fill="none" xmlns="http://www.w3.org/2000/svg">
<path d="M100 25.6515C100 30.6298 97.9857 35.1395 94.7283 38.4085C94.1578 38.9814 93.5479 39.5171 92.9043 40.0088C92.648 40.2059 92.3848 40.3961 92.1169 40.5793C91.9998 40.6593 91.8815 40.7382 91.762 40.8159C91.493 40.9898 91.2205 41.1568 90.9433 41.318C90.8506 41.3714 90.7578 41.4235 90.6639 41.4757C90.4494 41.594 90.2337 41.7076 90.0133 41.8178C89.7942 41.928 89.5727 42.0323 89.3489 42.1344C89.2735 42.168 89.1993 42.2005 89.1239 42.2341C88.9732 42.299 88.8212 42.3628 88.6693 42.4243C88.5928 42.4544 88.5163 42.4846 88.4386 42.5147C88.362 42.5437 88.2855 42.5727 88.2078 42.6017C87.897 42.7165 87.5828 42.8232 87.2639 42.9218H87.2627C87.2534 42.9252 87.2441 42.9276 87.2349 42.9299C87.1154 42.967 86.996 43.0018 86.8754 43.0354C86.2121 43.2256 85.5325 43.3775 84.8391 43.4888V43.49C84.0088 47.1266 82.6184 50.5498 80.7642 53.6645C81.4194 56.0661 81.7684 58.5929 81.7684 61.2009C81.7684 62.0799 81.729 62.9484 81.6513 63.8077C79.9246 66.8135 77.8141 69.571 75.3882 72.0144C74.2854 73.1241 73.1165 74.1701 71.8896 75.1442C71.8455 75.172 71.8003 75.1975 71.7562 75.223C71.6762 75.2694 71.5951 75.3158 71.515 75.361C70.7601 75.7889 69.9867 76.1855 69.1958 76.5485C69.0636 76.6099 68.9314 76.6691 68.798 76.7282C68.6658 76.7874 68.5325 76.8453 68.3991 76.9022C68.2959 76.9462 68.1927 76.9903 68.0895 77.032C67.9967 77.0703 67.904 77.1086 67.81 77.1457C67.7892 77.155 67.7695 77.1631 67.7497 77.1712C67.6558 77.206 67.5027 77.2686 67.4077 77.3046C67.2882 77.3521 67.1688 77.3962 67.0505 77.4402C66.9311 77.4843 66.8116 77.5284 66.691 77.5713C66.3315 77.7011 65.9686 77.8241 65.6021 77.9389C65.5024 77.9713 65.4027 78.0026 65.3018 78.0328C65.2879 78.0374 65.2751 78.0409 65.2612 78.0456C65.1476 78.0803 65.0339 78.114 64.9203 78.1464C64.86 78.165 64.8008 78.1824 64.7405 78.1986C64.6802 78.216 64.6211 78.2323 64.5608 78.2496C64.519 78.2612 64.4773 78.2728 64.4355 78.2833C64.3555 78.3065 64.2767 78.3273 64.1967 78.3482C63.959 78.412 63.7212 78.4723 63.4823 78.5291C63.4023 78.5477 63.3223 78.5674 63.2423 78.5848C63.0336 78.6346 62.8237 78.6799 62.6138 78.7239C62.5396 78.7402 62.4665 78.7552 62.3923 78.7692C62.296 78.7889 62.1998 78.8086 62.1035 78.8271C62.0073 78.8457 61.9111 78.8631 61.8136 78.8805C61.7452 78.8932 61.6768 78.906 61.6084 78.9176C61.206 78.9883 60.8025 79.0509 60.3954 79.1054C60.334 79.1147 60.2714 79.1217 60.2111 79.1298C59.9467 79.1634 59.6811 79.1947 59.4155 79.2214C59.2648 79.2376 59.1152 79.2516 58.9633 79.2643C58.8288 79.2771 58.6943 79.2875 58.5586 79.2979C57.7851 79.3559 57.0047 79.3849 56.2161 79.3849C54.8571 79.3849 53.5177 79.2979 52.205 79.1275C52.859 75.9211 54.3422 73.0163 56.4214 70.6495C56.4887 70.5741 56.5559 70.4987 56.6243 70.4234V70.4222C55.9054 70.5509 55.1783 70.6588 54.4442 70.7446C54.1996 70.7724 53.9549 70.7991 53.709 70.8223C53.3809 70.8536 53.0515 70.8803 52.721 70.9023C52.3245 70.929 51.9255 70.9487 51.5255 70.9626C51.1254 70.9753 50.723 70.9823 50.3195 70.9823C48.2229 70.9823 46.1692 70.8002 44.1735 70.45V70.4512C43.9787 70.7225 43.7757 70.9893 43.5681 71.249C43.4278 71.4218 43.2852 71.5923 43.1403 71.7592V71.7604C42.9941 71.9274 42.8446 72.0921 42.6938 72.2544C42.5419 72.4167 42.3865 72.5756 42.2288 72.7322C42.1105 72.8493 41.9911 72.9641 41.8681 73.0789C41.7475 73.1925 41.6235 73.305 41.4982 73.4152C41.4147 73.4882 41.3312 73.5613 41.2466 73.6332C41.0564 73.7944 40.8616 73.9532 40.6645 74.1075C40.6308 74.133 40.5984 74.1585 40.5647 74.184C40.5323 74.2095 40.4986 74.235 40.4662 74.2594C40.2586 74.4171 40.0464 74.5702 39.8319 74.7174C37.0221 76.6528 33.6232 77.7916 29.9588 77.8055C29.9345 77.8067 29.909 77.8067 29.8846 77.8067C28.4281 77.8067 27.0134 77.6292 25.6601 77.2941C25.2508 77.1932 24.8461 77.0773 24.4483 76.9485C24.3741 76.9242 24.2987 76.8998 24.2245 76.8743C24.0019 76.7978 23.7815 76.7178 23.5635 76.6343C23.2725 76.5218 22.9849 76.4012 22.7019 76.2748C22.1349 76.0197 21.584 75.7367 21.0506 75.426C20.8477 75.3077 20.6471 75.1848 20.4499 75.0584H20.4488V75.0572C20.1206 74.8473 19.7994 74.627 19.4874 74.3974C19.252 74.2246 19.0224 74.046 18.7963 73.8616C18.7221 73.8002 18.6467 73.7387 18.5725 73.6761C18.4252 73.5509 18.278 73.4233 18.1342 73.2934C17.9904 73.1635 17.8489 73.0313 17.7086 72.8968C17.639 72.8296 17.5694 72.7612 17.501 72.6927C16.1964 71.394 15.0948 69.8911 14.2471 68.2363C14.3468 68.1609 14.4477 68.0856 14.5486 68.0137C14.7979 67.8328 15.0531 67.6588 15.3128 67.4895C15.6816 67.2506 16.0608 67.0257 16.4492 66.8146C16.578 66.7439 16.709 66.6755 16.84 66.6082C17.014 66.5189 17.1914 66.4319 17.3688 66.3484C17.4338 66.3171 17.4987 66.287 17.5636 66.258C17.7596 66.1699 17.9567 66.0841 18.1562 66.0017C18.4879 65.8637 18.8253 65.7373 19.1674 65.6214C19.2706 65.5866 19.3738 65.5518 19.477 65.5193C19.5675 65.4903 19.6579 65.4613 19.7495 65.4347C19.9095 65.386 20.0696 65.3396 20.2308 65.2967C20.7143 65.1656 21.2072 65.0543 21.707 64.965L21.7058 64.9639C21.6084 64.9163 21.511 64.8688 21.4147 64.8201C21.1237 64.6751 20.8349 64.5255 20.5485 64.3725C20.4673 64.3295 20.3873 64.2866 20.3073 64.2426C20.0348 64.0953 19.7646 63.9445 19.4956 63.7892C19.3993 63.7335 19.3031 63.6778 19.2068 63.621C19.1604 63.5932 19.114 63.5665 19.0677 63.5375C18.954 63.4703 18.8415 63.403 18.7302 63.3346C18.5725 63.2383 18.4148 63.1409 18.2582 63.0412C18.1214 62.9554 17.9869 62.8684 17.8524 62.7803C17.7179 62.6933 17.5833 62.604 17.45 62.5147H17.4488C16.0086 63.1201 14.4419 63.4969 12.7976 63.5955C12.7245 63.6001 12.6515 63.6036 12.5784 63.6083C12.4311 63.6152 12.285 63.6199 12.1366 63.6222C12.1007 63.6222 12.0635 63.6222 12.0264 63.6233H11.9151C11.4408 63.6233 10.9723 63.6001 10.5097 63.5561C10.3554 63.541 10.2024 63.5236 10.0493 63.5039C9.9739 63.4935 9.89737 63.483 9.822 63.4726C9.51818 63.4274 9.21783 63.374 8.92097 63.3114C8.84676 63.2952 8.77369 63.2789 8.69948 63.2627C8.40493 63.1943 8.11387 63.1177 7.82629 63.0331C7.68249 62.9902 7.53986 62.945 7.39839 62.8986C7.25691 62.851 7.1166 62.8023 6.97744 62.7513C6.90787 62.7246 6.83829 62.6991 6.76871 62.6724C6.56114 62.5924 6.35589 62.5078 6.15411 62.4185C5.96858 62.3362 5.78535 62.2503 5.60445 62.1611C5.51284 62.1158 5.42355 62.0706 5.33426 62.0242C5.267 61.9894 5.2009 61.9535 5.13364 61.9175C4.53644 61.594 3.96591 61.2287 3.42668 60.8263C3.0672 60.5585 2.72279 60.2732 2.3923 59.9728C2.31924 59.9056 2.24619 59.8383 2.17429 59.7699C2.06993 59.6702 1.96671 59.5693 1.86583 59.4672C1.20832 58.8005 0.620397 58.0699 0.114801 57.2837C0.0753743 57.2234 0.0371079 57.1631 0 57.1028C3.26434 57.0784 6.42315 56.6134 9.42309 55.7669C9.49962 55.746 9.57732 55.724 9.65385 55.7008C9.74546 55.7205 9.83591 55.7391 9.92868 55.7576C10.0099 55.775 10.0922 55.7912 10.1745 55.8075C11.0408 55.9721 11.914 56.1206 12.7918 56.2528C13.8262 56.4105 14.8664 56.5462 15.9146 56.6598L15.9158 56.661C21.5806 59.0556 27.7463 60.5329 34.1914 60.8982C53.7925 62.0103 70.7613 50.1369 78.8798 33.2517C79.557 32.5026 80.2157 31.7395 80.8581 30.9626C81.1213 30.6437 81.3799 30.3236 81.6362 30.0024C81.7638 29.8401 81.8913 29.6777 82.0189 29.5154C82.2485 29.2231 82.4735 28.9298 82.6961 28.6341C82.8318 28.5367 82.9675 28.4381 83.1043 28.343C83.2365 28.2491 83.3699 28.1563 83.5044 28.0658C83.9114 27.7887 84.3265 27.522 84.7475 27.2669C84.8461 27.2066 84.9458 27.1474 85.0455 27.0871C85.1452 27.028 85.2461 26.9688 85.347 26.912C85.6497 26.7381 85.9547 26.5699 86.2631 26.4076C86.4695 26.2997 86.6771 26.1931 86.8858 26.0898C87.512 25.7791 88.1521 25.4903 88.8027 25.2248C89.0195 25.1366 89.2387 25.0508 89.4579 24.9673C89.8974 24.8003 90.3427 24.645 90.7914 24.5C91.0164 24.427 91.2425 24.3574 91.4698 24.2901C92.1505 24.0883 92.8428 23.9109 93.5444 23.7602C93.7775 23.7103 94.0129 23.6628 94.2483 23.6175C94.3665 23.5943 94.4848 23.5735 94.6031 23.5526C94.8397 23.5109 95.0774 23.4714 95.3163 23.4355C95.9274 23.3439 96.5455 23.2708 97.1694 23.2175C97.3248 23.2036 97.4813 23.192 97.6378 23.1815C97.951 23.1606 98.2652 23.1444 98.5806 23.1328C98.9285 23.1201 99.2787 23.1143 99.6301 23.1143C99.6939 23.1143 99.7588 23.1143 99.8226 23.1154C99.9061 23.7033 99.9606 24.2994 99.9849 24.9047V24.9059C99.9954 25.1529 100 25.4022 100 25.6515Z" fill="black"/>
<path d="M78.3644 24.1508C77.9265 23.3054 77.4562 22.4786 76.957 21.6738C76.7906 21.4059 76.6219 21.1404 76.4485 20.8783C73.6441 16.6062 69.9753 12.9592 65.6953 10.1865C64.6738 9.52552 63.6177 8.91324 62.5292 8.3543C57.8725 5.96314 52.6403 4.54839 47.0938 4.38025C46.9656 4.37561 46.8373 4.37329 46.7091 4.36981C46.5854 4.36749 46.4618 4.36401 46.3358 4.36285C46.1914 4.36053 46.047 4.35938 45.9025 4.35938H45.8655C45.7431 4.35938 45.6206 4.36054 45.4992 4.36169C25.5204 4.55883 9.38477 20.927 9.38477 41.0883C9.38477 44.1393 9.75453 47.1033 10.4513 49.9374C12.7161 51.373 15.1103 52.6324 17.612 53.6958L17.6132 53.6969C22.8315 55.9176 28.5109 57.2883 34.4467 57.6269C52.5017 58.6578 68.1323 47.6471 75.6096 31.9875C76.7721 29.5558 77.7358 27.0127 78.4834 24.385L78.4846 24.3815C78.4453 24.3038 78.406 24.2284 78.3644 24.1508Z" stroke="black" stroke-miterlimit="10" stroke-linecap="round"/>
<path d="M78.3644 24.1508C77.9265 23.3054 77.4562 22.4786 76.957 21.6738C76.7906 21.4059 76.6219 21.1404 76.4485 20.8783C73.6441 16.6062 69.9753 12.9592 65.6953 10.1865C64.6738 9.52552 63.6177 8.91324 62.5292 8.3543C57.8725 5.96314 52.6403 4.54839 47.0938 4.38025C46.9656 4.37561 46.8373 4.37329 46.7091 4.36981C46.5854 4.36749 46.4618 4.36401 46.3358 4.36285C46.1914 4.36053 46.047 4.35938 45.9025 4.35938H45.8655C45.743 4.35938 45.6206 4.36054 45.4992 4.36169C25.5204 4.55883 9.38477 20.927 9.38477 41.0883C9.38477 44.1393 9.75453 47.1033 10.4513 49.9374C12.7161 51.373 15.1103 52.6324 17.612 53.6958L17.6132 53.6969C22.8315 55.9176 28.5109 57.2883 34.4467 57.6269C52.5017 58.6578 68.1323 47.6471 75.6096 31.9875C76.7721 29.5558 77.7358 27.0127 78.4834 24.385L78.4846 24.3815C78.4453 24.3038 78.406 24.2284 78.3644 24.1508Z" fill="black"/>
</svg>
