<svg version="1.2" xmlns="http://www.w3.org/2000/svg" viewBox="0 0 406 512" width="406" height="512">
	<title>suits-svg</title>
	<style>
		.s0 { fill: #000000 } 
		.s1 { fill: #ff0000 } 
	</style>
	<g id="Layer">
		<path id="Layer" class="s0" d="m405.9 247.2c1.2 37.4-38.5 49.5-62.8 28.6l21 50.3h-61.9l21-50.2c-23.9 21.3-61.7 8.2-62.8-28.7-1.4-43.1 72.7-97.1 72.7-97.1 0 0 71.4 52.1 72.8 97.1zm-332.2-95.4c21 0 37.7 16.7 37.7 37.6 0 8.8-3.1 17-8.1 23.4 1.7-0.2 3.4-0.5 5.2-0.5 21 0 37.7 17.2 37.7 38.2 0 20.9-16.7 38.1-37.7 38.1-8.9 0-17.1-3.2-23.6-8.4l19.5 46.5h-61.9l19.2-45.8c-6.4 4.8-14.3 7.7-22.8 7.7-21 0-38.2-17.2-38.2-38.1 0-21 17.2-38.2 38.2-38.2 1.6 0 3.2 0.3 4.7 0.5-4.9-6.4-8-14.6-8-23.4 0-20.9 17.1-37.6 38.1-37.6q0 0 0 0z"/>
		<path id="Layer copy" class="s1" d="m281.2 97.4c1.5 47.9-73.6 81.5-80.7 107.8-7.7-28.7-79.3-57.8-80.9-107.8-1.5-48 57.7-58.4 80.9-18.3 9.7-16.7 24.6-24.6 38.9-24.9 21-0.5 40.9 15.2 41.8 43.2zm-7.7 269.6l-73 89.8-73.1-89.8 73.1-89.7c0 0 73 89.7 73 89.7z"/>
	</g>
</svg>