<svg width="45" height="45" viewBox="0 0 45 45" fill="none" xmlns="http://www.w3.org/2000/svg">
<g clip-path="url(#clip0_622_22884)">
<g clip-path="url(#clip1_622_22884)">
<path d="M39.0994 18.2322C38.7338 18.3392 38.3432 18.3754 38.0446 18.5577C37.1515 19.0989 36.6588 19.2013 35.6882 19.5059C35.4716 19.5736 35.1866 19.5095 35.0142 19.623C34.6837 19.8421 34.3069 19.8869 33.9572 20.0212C33.5841 20.1638 33.219 20.3336 32.8377 20.4491C31.3538 20.8994 29.8538 21.2954 28.4384 21.9526C27.6907 22.2998 26.9314 22.6226 26.2288 23.062C25.7128 23.3842 25.2096 23.7469 24.6561 23.9893C23.6042 24.4503 22.5218 24.847 21.4469 25.256C20.8481 25.4845 20.2376 25.6842 19.6331 25.8967C19.5876 25.9128 19.5374 25.92 19.498 25.9445C18.6627 26.4563 17.7218 26.7354 16.8307 27.1199C15.8775 27.5309 14.8854 27.8716 13.8969 28.1826C12.8968 28.4961 11.9469 28.9164 10.9768 29.2929C10.6671 29.413 9.38304 30.086 9.31912 30.6068C9.47494 30.9417 9.63825 31.289 9.80391 31.643C9.86689 31.9568 9.97404 32.2594 10.0545 32.57C10.388 33.8759 10.9092 35.1287 11.0867 36.4762C11.2127 37.4324 11.8844 38.0192 11.9726 38.9783C12.0344 39.6526 12.7905 39.9848 12.6893 40.6808C12.6431 41.0018 12.7751 41.3526 12.8599 41.6797C13.007 42.2443 13.1803 42.8041 13.3184 43.2774C13.5501 43.4804 13.7182 43.6264 13.9188 43.803C14.2844 43.696 14.6751 43.6598 14.9737 43.4775C15.8668 42.9363 16.5962 42.8641 17.5669 42.5595C17.7834 42.4918 18.0684 42.5559 18.2408 42.4424C18.5714 42.2233 18.9481 42.1785 19.2978 42.0442C19.671 41.9016 20.0361 41.7318 20.4173 41.6163C21.9012 41.166 23.4013 40.77 24.8166 40.1128C25.5643 39.7656 26.3237 39.4427 27.0263 39.0034C27.5422 38.6812 28.0454 38.3185 28.5989 38.0761C29.6508 37.6151 30.7332 37.2184 31.8081 36.8094C32.4069 36.5809 33.0175 36.3812 33.6219 36.1687C33.6674 36.1526 33.7176 36.1453 33.7571 36.1209C34.5923 35.6091 35.5332 35.33 36.4244 34.9455C37.3776 34.5345 38.3696 34.1938 39.3582 33.8828C40.3583 33.5693 41.3081 33.149 42.2782 32.7725C43.3861 32.3698 43.8261 32.2845 43.89 31.7637C43.7342 31.4288 43.5709 31.0815 43.4053 30.7276C43.3423 30.4138 43.2351 30.1111 43.1546 29.8005C42.8211 28.4947 42.3 27.2418 42.1224 25.8943C41.9965 24.9381 41.2954 24.2685 41.2073 23.3094C41.1455 22.6351 40.2277 22.0504 40.3289 21.3544C40.3751 21.0334 40.2431 20.6826 40.1584 20.3555C40.0113 19.7909 39.8379 19.2311 39.6998 18.7578C39.4681 18.5548 39.3 18.4088 39.0994 18.2322Z" fill="black"/>
<mask id="path-2-outside-1_622_22884" maskUnits="userSpaceOnUse" x="16.1597" y="26.0425" width="12.0174" height="12.5859" fill="black">
<rect fill="white" x="16.1597" y="26.0425" width="12.0174" height="12.5859"/>
<path d="M26.8653 34.879C26.7759 34.7701 26.7057 34.65 26.6296 34.5245C26.5903 34.4584 26.5514 34.3935 26.5084 34.3276C26.328 34.0609 26.1373 33.8377 25.9269 33.6463C25.9014 33.6219 25.8741 33.5994 25.8469 33.577C25.805 33.5425 25.7662 33.5093 25.7374 33.4734C25.6689 33.3895 25.613 33.2905 25.555 33.1859C25.5269 33.1359 25.5002 33.0865 25.4699 33.0373C25.385 32.8987 25.2871 32.7741 25.1945 32.6538C25.1396 32.5824 25.0835 32.5114 25.0318 32.4387C24.9596 32.3359 24.8801 32.2397 24.8041 32.146C24.7105 32.0324 24.6231 31.9253 24.5468 31.8088C24.4319 31.6311 24.2859 31.4528 24.0989 31.2611C23.9508 31.1154 23.7872 30.9363 23.705 30.7127C23.7032 30.7083 23.7011 30.7028 23.6985 30.6962C23.6858 30.6541 23.6645 30.5836 23.5928 30.5517C23.5838 30.5476 23.5791 30.5418 23.5642 30.4878C23.5511 30.4383 23.5325 30.3718 23.4782 30.3179C23.4171 30.2591 23.3859 30.1822 23.3598 30.1059C23.3172 29.9839 23.2467 29.8855 23.1797 29.7895C23.1546 29.7536 23.1295 29.7176 23.105 29.6801C22.99 29.5023 22.859 29.3372 22.7323 29.1768C22.5966 29.0059 22.4695 28.8444 22.3571 28.6669L22.341 28.6414C22.2725 28.532 22.1674 28.367 21.9646 28.3405L21.9112 28.3333L21.8667 28.3647C21.7369 28.456 21.6656 28.4977 21.6045 28.5215C21.5135 28.557 21.4207 28.5563 21.2181 28.5526C21.1476 28.5522 21.0668 28.5506 20.9692 28.5505L20.8644 28.5506L20.8356 28.6509C20.8286 28.674 20.8205 28.6975 20.8124 28.721C20.7831 28.8011 20.7473 28.899 20.768 29.0155C20.7799 29.0617 20.7744 29.1109 20.7676 29.1695C20.7636 29.2131 20.7585 29.257 20.7597 29.3074C20.7621 29.3739 20.7545 29.443 20.7471 29.5158C20.7386 29.5954 20.7295 29.6765 20.7331 29.7616C20.7459 30.1521 20.7272 30.5409 20.7006 30.976C20.6986 31.0403 20.6993 31.1087 20.6988 31.1801C20.6974 31.2684 20.6997 31.3566 20.7015 31.4436C20.7057 31.6378 20.7096 31.8219 20.685 32.0057C20.6697 32.1376 20.653 32.2687 20.6363 32.3999C20.6189 32.5325 20.603 32.6659 20.5863 32.8097C20.5861 32.8124 20.5863 32.8161 20.5861 32.8187C20.5462 32.8432 20.5579 32.8666 20.5432 32.9397C20.5355 32.9771 20.4818 33.0387 20.492 33.0932C20.5037 33.1993 20.4873 33.3061 20.4699 33.4197L20.4672 33.4411C20.4427 33.5778 20.4269 33.7239 20.4188 33.8898C20.4142 34.0111 20.4131 34.1349 20.4109 34.2591C20.41 34.3549 20.4091 34.4506 20.4062 34.5445L20.4038 34.6269C20.3949 34.8796 20.3865 35.1397 20.4126 35.4029C20.4178 35.448 20.422 35.4934 20.4272 35.5384C20.4368 35.6326 20.447 35.7253 20.4595 35.8145C20.4784 35.961 20.4756 36.1121 20.4523 36.2738C20.3955 36.5999 20.389 36.9598 20.4325 37.3752L20.4364 37.4232C20.4447 37.5268 20.4552 37.655 20.5642 37.7638L20.5883 37.7875L20.6207 37.7978C20.7564 37.8389 20.8876 37.8209 21.0031 37.8038C21.1023 37.7893 21.1878 37.7776 21.2648 37.801L21.2759 37.8043C21.3274 37.816 21.3724 37.7985 21.3874 37.7926C21.3949 37.7897 21.4234 37.7773 21.4234 37.7773L21.5658 37.7218L21.5872 37.6626C21.5912 37.6509 21.5957 37.6402 21.5996 37.6311C21.6117 37.6022 21.6248 37.5691 21.629 37.5293C21.6413 37.4279 21.6435 37.3291 21.6455 37.2329C21.6473 37.1394 21.6497 37.0507 21.6599 36.9628C21.7209 36.4609 21.7196 36.0176 21.6536 35.6046C21.6237 35.4331 21.6196 35.2453 21.6414 35.0257C21.6485 34.9301 21.6464 34.833 21.6435 34.74C21.6424 34.7023 21.6413 34.6646 21.641 34.6291C21.6407 34.4575 21.6649 34.2789 21.6887 34.1056C21.694 34.0654 21.6993 34.0252 21.7046 33.985C21.7153 33.9808 21.8014 33.9485 21.8325 33.9364C21.8667 33.9231 21.8989 33.9105 21.9323 33.895C21.992 33.8678 22.0527 33.8429 22.1126 33.8196C22.2091 33.782 22.3067 33.7477 22.4029 33.7128C22.5028 33.6777 22.6022 33.6414 22.6996 33.6034C22.9235 33.5162 23.0932 33.4322 23.2428 33.3319C23.273 33.324 23.3024 33.3138 23.3324 33.3021C23.432 33.2633 23.5228 33.2113 23.6093 33.1611C23.6931 33.1132 23.7704 33.0678 23.8539 33.0352C23.8711 33.0285 23.8871 33.0223 23.9036 33.0171C23.9455 33.0644 23.9889 33.1123 24.0327 33.1614C24.1042 33.2403 24.1761 33.3204 24.2493 33.4037L24.2785 33.4343C24.3401 33.5006 24.4026 33.5691 24.4321 33.6351C24.5013 33.7938 24.5894 33.9375 24.6743 34.0761C24.7115 34.1366 24.7486 34.1972 24.7845 34.2607C24.8623 34.3906 24.9553 34.5057 25.0779 34.6271C25.1236 34.6716 25.1714 34.7152 25.2193 34.7589C25.3125 34.8459 25.4009 34.9272 25.4831 35.0146C25.5327 35.0691 25.5748 35.1328 25.6182 35.1998C25.6663 35.2726 25.7153 35.3476 25.7778 35.4161C25.8177 35.4615 25.8498 35.5215 25.8835 35.5859C25.9033 35.624 25.9226 35.661 25.9448 35.6956L26.0814 35.9195L26.1529 35.8688L26.2511 35.842L26.359 35.7706C26.3705 35.7432 26.3889 35.7335 26.4532 35.7085C26.4939 35.6926 26.5507 35.6705 26.5971 35.6218C26.6346 35.5818 26.6828 35.563 26.7391 35.5398C26.7745 35.526 26.8115 35.5103 26.8475 35.4886L26.8828 35.4685L26.9008 35.4323C26.9309 35.3735 26.9585 35.3207 26.9824 35.2745L27.0117 35.2199L26.9894 35.1625C26.9799 35.1382 26.9726 35.1131 26.9652 35.088C26.9439 35.0174 26.9198 34.9365 26.8655 34.8763L26.8653 34.879ZM22.0624 30.3039L22.0654 30.3117L22.068 30.3183C22.1018 30.3827 22.1334 30.4479 22.1643 30.5147C22.2177 30.6262 22.2727 30.7421 22.3387 30.8575C22.3789 30.9258 22.4195 30.9951 22.4586 31.0638C22.5678 31.2552 22.6821 31.4536 22.8221 31.6355C22.8455 31.6671 22.8694 31.6997 22.8932 31.7324C22.9744 31.8457 23.0595 31.9626 23.1747 32.0652L23.1726 32.066C23.1533 32.0736 23.134 32.0811 23.1107 32.0876C23.0691 32.1013 23.0284 32.1172 22.9877 32.133C22.8131 32.2011 22.6441 32.2835 22.48 32.3627C22.3213 32.4399 22.1572 32.5191 21.9934 32.583C21.9473 32.6009 21.9002 32.6193 21.855 32.6331C21.9431 32.3749 21.9367 32.118 21.9306 31.8711C21.9283 31.8021 21.9276 31.7337 21.9268 31.6653C21.9278 31.5632 21.9293 31.4596 21.9313 31.3571C21.9327 31.2561 21.9351 31.1547 21.9354 31.0541C21.936 30.9166 21.9412 30.7747 21.948 30.6372C21.9547 30.496 21.9611 30.3511 21.9603 30.2064C21.9897 30.2407 22.0238 30.2745 22.0639 30.3046L22.0624 30.3039Z"/>
</mask>
<path d="M26.8653 34.879C26.7759 34.7701 26.7057 34.65 26.6296 34.5245C26.5903 34.4584 26.5514 34.3935 26.5084 34.3276C26.328 34.0609 26.1373 33.8377 25.9269 33.6463C25.9014 33.6219 25.8741 33.5994 25.8469 33.577C25.805 33.5425 25.7662 33.5093 25.7374 33.4734C25.6689 33.3895 25.613 33.2905 25.555 33.1859C25.5269 33.1359 25.5002 33.0865 25.4699 33.0373C25.385 32.8987 25.2871 32.7741 25.1945 32.6538C25.1396 32.5824 25.0835 32.5114 25.0318 32.4387C24.9596 32.3359 24.8801 32.2397 24.8041 32.146C24.7105 32.0324 24.6231 31.9253 24.5468 31.8088C24.4319 31.6311 24.2859 31.4528 24.0989 31.2611C23.9508 31.1154 23.7872 30.9363 23.705 30.7127C23.7032 30.7083 23.7011 30.7028 23.6985 30.6962C23.6858 30.6541 23.6645 30.5836 23.5928 30.5517C23.5838 30.5476 23.5791 30.5418 23.5642 30.4878C23.5511 30.4383 23.5325 30.3718 23.4782 30.3179C23.4171 30.2591 23.3859 30.1822 23.3598 30.1059C23.3172 29.9839 23.2467 29.8855 23.1797 29.7895C23.1546 29.7536 23.1295 29.7176 23.105 29.6801C22.99 29.5023 22.859 29.3372 22.7323 29.1768C22.5966 29.0059 22.4695 28.8444 22.3571 28.6669L22.341 28.6414C22.2725 28.532 22.1674 28.367 21.9646 28.3405L21.9112 28.3333L21.8667 28.3647C21.7369 28.456 21.6656 28.4977 21.6045 28.5215C21.5135 28.557 21.4207 28.5563 21.2181 28.5526C21.1476 28.5522 21.0668 28.5506 20.9692 28.5505L20.8644 28.5506L20.8356 28.6509C20.8286 28.674 20.8205 28.6975 20.8124 28.721C20.7831 28.8011 20.7473 28.899 20.768 29.0155C20.7799 29.0617 20.7744 29.1109 20.7676 29.1695C20.7636 29.2131 20.7585 29.257 20.7597 29.3074C20.7621 29.3739 20.7545 29.443 20.7471 29.5158C20.7386 29.5954 20.7295 29.6765 20.7331 29.7616C20.7459 30.1521 20.7272 30.5409 20.7006 30.976C20.6986 31.0403 20.6993 31.1087 20.6988 31.1801C20.6974 31.2684 20.6997 31.3566 20.7015 31.4436C20.7057 31.6378 20.7096 31.8219 20.685 32.0057C20.6697 32.1376 20.653 32.2687 20.6363 32.3999C20.6189 32.5325 20.603 32.6659 20.5863 32.8097C20.5861 32.8124 20.5863 32.8161 20.5861 32.8187C20.5462 32.8432 20.5579 32.8666 20.5432 32.9397C20.5355 32.9771 20.4818 33.0387 20.492 33.0932C20.5037 33.1993 20.4873 33.3061 20.4699 33.4197L20.4672 33.4411C20.4427 33.5778 20.4269 33.7239 20.4188 33.8898C20.4142 34.0111 20.4131 34.1349 20.4109 34.2591C20.41 34.3549 20.4091 34.4506 20.4062 34.5445L20.4038 34.6269C20.3949 34.8796 20.3865 35.1397 20.4126 35.4029C20.4178 35.448 20.422 35.4934 20.4272 35.5384C20.4368 35.6326 20.447 35.7253 20.4595 35.8145C20.4784 35.961 20.4756 36.1121 20.4523 36.2738C20.3955 36.5999 20.389 36.9598 20.4325 37.3752L20.4364 37.4232C20.4447 37.5268 20.4552 37.655 20.5642 37.7638L20.5883 37.7875L20.6207 37.7978C20.7564 37.8389 20.8876 37.8209 21.0031 37.8038C21.1023 37.7893 21.1878 37.7776 21.2648 37.801L21.2759 37.8043C21.3274 37.816 21.3724 37.7985 21.3874 37.7926C21.3949 37.7897 21.4234 37.7773 21.4234 37.7773L21.5658 37.7218L21.5872 37.6626C21.5912 37.6509 21.5957 37.6402 21.5996 37.6311C21.6117 37.6022 21.6248 37.5691 21.629 37.5293C21.6413 37.4279 21.6435 37.3291 21.6455 37.2329C21.6473 37.1394 21.6497 37.0507 21.6599 36.9628C21.7209 36.4609 21.7196 36.0176 21.6536 35.6046C21.6237 35.4331 21.6196 35.2453 21.6414 35.0257C21.6485 34.9301 21.6464 34.833 21.6435 34.74C21.6424 34.7023 21.6413 34.6646 21.641 34.6291C21.6407 34.4575 21.6649 34.2789 21.6887 34.1056C21.694 34.0654 21.6993 34.0252 21.7046 33.985C21.7153 33.9808 21.8014 33.9485 21.8325 33.9364C21.8667 33.9231 21.8989 33.9105 21.9323 33.895C21.992 33.8678 22.0527 33.8429 22.1126 33.8196C22.2091 33.782 22.3067 33.7477 22.4029 33.7128C22.5028 33.6777 22.6022 33.6414 22.6996 33.6034C22.9235 33.5162 23.0932 33.4322 23.2428 33.3319C23.273 33.324 23.3024 33.3138 23.3324 33.3021C23.432 33.2633 23.5228 33.2113 23.6093 33.1611C23.6931 33.1132 23.7704 33.0678 23.8539 33.0352C23.8711 33.0285 23.8871 33.0223 23.9036 33.0171C23.9455 33.0644 23.9889 33.1123 24.0327 33.1614C24.1042 33.2403 24.1761 33.3204 24.2493 33.4037L24.2785 33.4343C24.3401 33.5006 24.4026 33.5691 24.4321 33.6351C24.5013 33.7938 24.5894 33.9375 24.6743 34.0761C24.7115 34.1366 24.7486 34.1972 24.7845 34.2607C24.8623 34.3906 24.9553 34.5057 25.0779 34.6271C25.1236 34.6716 25.1714 34.7152 25.2193 34.7589C25.3125 34.8459 25.4009 34.9272 25.4831 35.0146C25.5327 35.0691 25.5748 35.1328 25.6182 35.1998C25.6663 35.2726 25.7153 35.3476 25.7778 35.4161C25.8177 35.4615 25.8498 35.5215 25.8835 35.5859C25.9033 35.624 25.9226 35.661 25.9448 35.6956L26.0814 35.9195L26.1529 35.8688L26.2511 35.842L26.359 35.7706C26.3705 35.7432 26.3889 35.7335 26.4532 35.7085C26.4939 35.6926 26.5507 35.6705 26.5971 35.6218C26.6346 35.5818 26.6828 35.563 26.7391 35.5398C26.7745 35.526 26.8115 35.5103 26.8475 35.4886L26.8828 35.4685L26.9008 35.4323C26.9309 35.3735 26.9585 35.3207 26.9824 35.2745L27.0117 35.2199L26.9894 35.1625C26.9799 35.1382 26.9726 35.1131 26.9652 35.088C26.9439 35.0174 26.9198 34.9365 26.8655 34.8763L26.8653 34.879ZM22.0624 30.3039L22.0654 30.3117L22.068 30.3183C22.1018 30.3827 22.1334 30.4479 22.1643 30.5147C22.2177 30.6262 22.2727 30.7421 22.3387 30.8575C22.3789 30.9258 22.4195 30.9951 22.4586 31.0638C22.5678 31.2552 22.6821 31.4536 22.8221 31.6355C22.8455 31.6671 22.8694 31.6997 22.8932 31.7324C22.9744 31.8457 23.0595 31.9626 23.1747 32.0652L23.1726 32.066C23.1533 32.0736 23.134 32.0811 23.1107 32.0876C23.0691 32.1013 23.0284 32.1172 22.9877 32.133C22.8131 32.2011 22.6441 32.2835 22.48 32.3627C22.3213 32.4399 22.1572 32.5191 21.9934 32.583C21.9473 32.6009 21.9002 32.6193 21.855 32.6331C21.9431 32.3749 21.9367 32.118 21.9306 31.8711C21.9283 31.8021 21.9276 31.7337 21.9268 31.6653C21.9278 31.5632 21.9293 31.4596 21.9313 31.3571C21.9327 31.2561 21.9351 31.1547 21.9354 31.0541C21.936 30.9166 21.9412 30.7747 21.948 30.6372C21.9547 30.496 21.9611 30.3511 21.9603 30.2064C21.9897 30.2407 22.0238 30.2745 22.0639 30.3046L22.0624 30.3039Z" fill="#FFF8E6"/>
<path d="M26.8653 34.879C26.7759 34.7701 26.7057 34.65 26.6296 34.5245C26.5903 34.4584 26.5514 34.3935 26.5084 34.3276C26.328 34.0609 26.1373 33.8377 25.9269 33.6463C25.9014 33.6219 25.8741 33.5994 25.8469 33.577C25.805 33.5425 25.7662 33.5093 25.7374 33.4734C25.6689 33.3895 25.613 33.2905 25.555 33.1859C25.5269 33.1359 25.5002 33.0865 25.4699 33.0373C25.385 32.8987 25.2871 32.7741 25.1945 32.6538C25.1396 32.5824 25.0835 32.5114 25.0318 32.4387C24.9596 32.3359 24.8801 32.2397 24.8041 32.146C24.7105 32.0324 24.6231 31.9253 24.5468 31.8088C24.4319 31.6311 24.2859 31.4528 24.0989 31.2611C23.9508 31.1154 23.7872 30.9363 23.705 30.7127C23.7032 30.7083 23.7011 30.7028 23.6985 30.6962C23.6858 30.6541 23.6645 30.5836 23.5928 30.5517C23.5838 30.5476 23.5791 30.5418 23.5642 30.4878C23.5511 30.4383 23.5325 30.3718 23.4782 30.3179C23.4171 30.2591 23.3859 30.1822 23.3598 30.1059C23.3172 29.9839 23.2467 29.8855 23.1797 29.7895C23.1546 29.7536 23.1295 29.7176 23.105 29.6801C22.99 29.5023 22.859 29.3372 22.7323 29.1768C22.5966 29.0059 22.4695 28.8444 22.3571 28.6669L22.341 28.6414C22.2725 28.532 22.1674 28.367 21.9646 28.3405L21.9112 28.3333L21.8667 28.3647C21.7369 28.456 21.6656 28.4977 21.6045 28.5215C21.5135 28.557 21.4207 28.5563 21.2181 28.5526C21.1476 28.5522 21.0668 28.5506 20.9692 28.5505L20.8644 28.5506L20.8356 28.6509C20.8286 28.674 20.8205 28.6975 20.8124 28.721C20.7831 28.8011 20.7473 28.899 20.768 29.0155C20.7799 29.0617 20.7744 29.1109 20.7676 29.1695C20.7636 29.2131 20.7585 29.257 20.7597 29.3074C20.7621 29.3739 20.7545 29.443 20.7471 29.5158C20.7386 29.5954 20.7295 29.6765 20.7331 29.7616C20.7459 30.1521 20.7272 30.5409 20.7006 30.976C20.6986 31.0403 20.6993 31.1087 20.6988 31.1801C20.6974 31.2684 20.6997 31.3566 20.7015 31.4436C20.7057 31.6378 20.7096 31.8219 20.685 32.0057C20.6697 32.1376 20.653 32.2687 20.6363 32.3999C20.6189 32.5325 20.603 32.6659 20.5863 32.8097C20.5861 32.8124 20.5863 32.8161 20.5861 32.8187C20.5462 32.8432 20.5579 32.8666 20.5432 32.9397C20.5355 32.9771 20.4818 33.0387 20.492 33.0932C20.5037 33.1993 20.4873 33.3061 20.4699 33.4197L20.4672 33.4411C20.4427 33.5778 20.4269 33.7239 20.4188 33.8898C20.4142 34.0111 20.4131 34.1349 20.4109 34.2591C20.41 34.3549 20.4091 34.4506 20.4062 34.5445L20.4038 34.6269C20.3949 34.8796 20.3865 35.1397 20.4126 35.4029C20.4178 35.448 20.422 35.4934 20.4272 35.5384C20.4368 35.6326 20.447 35.7253 20.4595 35.8145C20.4784 35.961 20.4756 36.1121 20.4523 36.2738C20.3955 36.5999 20.389 36.9598 20.4325 37.3752L20.4364 37.4232C20.4447 37.5268 20.4552 37.655 20.5642 37.7638L20.5883 37.7875L20.6207 37.7978C20.7564 37.8389 20.8876 37.8209 21.0031 37.8038C21.1023 37.7893 21.1878 37.7776 21.2648 37.801L21.2759 37.8043C21.3274 37.816 21.3724 37.7985 21.3874 37.7926C21.3949 37.7897 21.4234 37.7773 21.4234 37.7773L21.5658 37.7218L21.5872 37.6626C21.5912 37.6509 21.5957 37.6402 21.5996 37.6311C21.6117 37.6022 21.6248 37.5691 21.629 37.5293C21.6413 37.4279 21.6435 37.3291 21.6455 37.2329C21.6473 37.1394 21.6497 37.0507 21.6599 36.9628C21.7209 36.4609 21.7196 36.0176 21.6536 35.6046C21.6237 35.4331 21.6196 35.2453 21.6414 35.0257C21.6485 34.9301 21.6464 34.833 21.6435 34.74C21.6424 34.7023 21.6413 34.6646 21.641 34.6291C21.6407 34.4575 21.6649 34.2789 21.6887 34.1056C21.694 34.0654 21.6993 34.0252 21.7046 33.985C21.7153 33.9808 21.8014 33.9485 21.8325 33.9364C21.8667 33.9231 21.8989 33.9105 21.9323 33.895C21.992 33.8678 22.0527 33.8429 22.1126 33.8196C22.2091 33.782 22.3067 33.7477 22.4029 33.7128C22.5028 33.6777 22.6022 33.6414 22.6996 33.6034C22.9235 33.5162 23.0932 33.4322 23.2428 33.3319C23.273 33.324 23.3024 33.3138 23.3324 33.3021C23.432 33.2633 23.5228 33.2113 23.6093 33.1611C23.6931 33.1132 23.7704 33.0678 23.8539 33.0352C23.8711 33.0285 23.8871 33.0223 23.9036 33.0171C23.9455 33.0644 23.9889 33.1123 24.0327 33.1614C24.1042 33.2403 24.1761 33.3204 24.2493 33.4037L24.2785 33.4343C24.3401 33.5006 24.4026 33.5691 24.4321 33.6351C24.5013 33.7938 24.5894 33.9375 24.6743 34.0761C24.7115 34.1366 24.7486 34.1972 24.7845 34.2607C24.8623 34.3906 24.9553 34.5057 25.0779 34.6271C25.1236 34.6716 25.1714 34.7152 25.2193 34.7589C25.3125 34.8459 25.4009 34.9272 25.4831 35.0146C25.5327 35.0691 25.5748 35.1328 25.6182 35.1998C25.6663 35.2726 25.7153 35.3476 25.7778 35.4161C25.8177 35.4615 25.8498 35.5215 25.8835 35.5859C25.9033 35.624 25.9226 35.661 25.9448 35.6956L26.0814 35.9195L26.1529 35.8688L26.2511 35.842L26.359 35.7706C26.3705 35.7432 26.3889 35.7335 26.4532 35.7085C26.4939 35.6926 26.5507 35.6705 26.5971 35.6218C26.6346 35.5818 26.6828 35.563 26.7391 35.5398C26.7745 35.526 26.8115 35.5103 26.8475 35.4886L26.8828 35.4685L26.9008 35.4323C26.9309 35.3735 26.9585 35.3207 26.9824 35.2745L27.0117 35.2199L26.9894 35.1625C26.9799 35.1382 26.9726 35.1131 26.9652 35.088C26.9439 35.0174 26.9198 34.9365 26.8655 34.8763L26.8653 34.879ZM22.0624 30.3039L22.0654 30.3117L22.068 30.3183C22.1018 30.3827 22.1334 30.4479 22.1643 30.5147C22.2177 30.6262 22.2727 30.7421 22.3387 30.8575C22.3789 30.9258 22.4195 30.9951 22.4586 31.0638C22.5678 31.2552 22.6821 31.4536 22.8221 31.6355C22.8455 31.6671 22.8694 31.6997 22.8932 31.7324C22.9744 31.8457 23.0595 31.9626 23.1747 32.0652L23.1726 32.066C23.1533 32.0736 23.134 32.0811 23.1107 32.0876C23.0691 32.1013 23.0284 32.1172 22.9877 32.133C22.8131 32.2011 22.6441 32.2835 22.48 32.3627C22.3213 32.4399 22.1572 32.5191 21.9934 32.583C21.9473 32.6009 21.9002 32.6193 21.855 32.6331C21.9431 32.3749 21.9367 32.118 21.9306 31.8711C21.9283 31.8021 21.9276 31.7337 21.9268 31.6653C21.9278 31.5632 21.9293 31.4596 21.9313 31.3571C21.9327 31.2561 21.9351 31.1547 21.9354 31.0541C21.936 30.9166 21.9412 30.7747 21.948 30.6372C21.9547 30.496 21.9611 30.3511 21.9603 30.2064C21.9897 30.2407 22.0238 30.2745 22.0639 30.3046L22.0624 30.3039Z" stroke="#FFF8E6" stroke-width="0.278532" mask="url(#path-2-outside-1_622_22884)"/>
<mask id="path-3-outside-2_622_22884" maskUnits="userSpaceOnUse" x="24.3848" y="23.3735" width="11.0857" height="12.2227" fill="black">
<rect fill="white" x="24.3848" y="23.3735" width="11.0857" height="12.2227"/>
<path d="M34.1156 31.629C34.0418 31.5917 33.9701 31.5535 33.9004 31.5171C33.7346 31.4304 33.5782 31.3489 33.4165 31.2759C33.3234 31.2334 33.2299 31.2024 33.1383 31.1733C33.0594 31.1481 32.9856 31.1234 32.9159 31.0934C32.3883 30.8603 31.8104 30.5998 31.1504 30.2963C31.1039 30.275 31.0588 30.2481 31.0093 30.2191C30.9211 30.167 30.8304 30.1146 30.7197 30.084C30.6093 30.0571 30.5057 30.0161 30.3957 29.9712C30.3579 29.9567 30.3197 29.9411 30.282 29.9265L30.2693 29.9226C30.2693 29.9226 30.2588 29.9178 30.2533 29.9161C30.2357 29.909 30.2192 29.9014 30.1932 29.895C30.0371 29.8618 29.8874 29.8069 29.7287 29.748C29.6395 29.7154 29.5488 29.6821 29.4557 29.6522C29.4861 29.6099 29.515 29.5668 29.5436 29.5201C29.5815 29.4557 29.6204 29.3909 29.6586 29.3277C29.7472 29.1813 29.838 29.0314 29.918 28.8756C29.9738 28.7687 30.0246 28.6586 30.0731 28.5519C30.1562 28.3695 30.2344 28.1966 30.3403 28.0408C30.5065 27.7929 30.6289 27.5341 30.7488 27.2814C30.7685 27.2368 30.7943 27.1988 30.8134 27.1812C30.9671 27.0627 31.0794 26.9045 31.1672 26.6834C31.2295 26.5268 31.2876 26.3719 31.3485 26.2147C31.3848 26.1179 31.4221 26.0206 31.4608 25.9204L31.4798 25.871L31.426 25.733L31.3755 25.6637L31.2837 25.5927C31.1529 25.5864 31.0356 25.5291 30.9114 25.4669C30.864 25.4434 30.8151 25.4193 30.7644 25.397C30.7258 25.3803 30.6866 25.3651 30.6456 25.3518L30.5849 25.3322L30.4875 25.3639C30.3046 25.4771 30.2806 25.6467 30.221 25.7945C30.2003 25.8459 30.1813 25.8952 30.1576 25.9388C30.1481 25.9463 30.1387 25.9538 30.1282 25.9617C30.0786 25.9989 30.0238 26.0418 29.9773 26.1032C29.9108 26.1952 29.8482 26.3036 29.786 26.4321L29.7569 26.4905C29.6761 26.6568 29.5913 26.8285 29.5283 27.012C29.5021 27.087 29.4501 27.1531 29.3951 27.2241C29.3292 27.3083 29.2552 27.4033 29.2174 27.5248C29.0747 27.7063 28.976 27.9089 28.8798 28.1053C28.8159 28.2358 28.7557 28.3597 28.684 28.4767C28.6299 28.5626 28.587 28.6518 28.5457 28.7391C28.5039 28.8279 28.4639 28.9122 28.413 28.9905C28.3123 29.1468 28.2199 29.3087 28.1301 29.4645C28.1241 29.4745 28.1192 29.484 28.1132 29.494C28.0707 29.4165 28.0288 29.3374 27.9935 29.2596C27.9432 29.1495 27.9023 29.0383 27.8584 28.9193C27.8351 28.8597 27.8145 28.8004 27.7912 28.7408C27.7555 28.6492 27.7198 28.5575 27.6841 28.4659C27.6126 28.2827 27.5433 28.0986 27.4685 27.9129L27.4306 27.8221C27.3734 27.6816 27.3129 27.536 27.2191 27.3933C27.1181 27.2419 27.0405 27.0649 26.9665 26.8941C26.9323 26.8159 26.8981 26.7377 26.8622 26.6614L26.8435 26.6229L26.8068 26.6016C26.7795 26.5855 26.8144 26.5325 26.788 26.5186C26.7646 26.5061 26.6924 26.4948 26.6771 26.4843L26.6053 26.4868L26.3279 26.595L26.1816 26.666L26.073 26.6943L25.863 26.7762L25.7939 26.8171C25.7753 26.8676 25.7643 26.8236 25.7386 26.8717L25.75 27.0275L26.0181 27.7152C26.0999 27.9313 26.1999 28.1403 26.2966 28.3442C26.4147 28.5932 26.5377 28.8518 26.6214 29.1078C26.6363 29.1618 26.6709 29.203 26.7026 29.2338C26.7026 29.2338 26.7031 29.2349 26.7035 29.236C26.7068 29.2856 26.7096 29.3341 26.7286 29.3827L27.0049 30.0914L27.0081 30.1028C27.0169 30.135 27.0303 30.1883 27.0814 30.2243L27.0882 30.2293L27.0962 30.2338C27.1286 30.2504 27.1421 30.282 27.1688 30.3568C27.1922 30.4201 27.2181 30.4927 27.2741 30.5574C27.3216 30.6126 27.3515 30.6989 27.3814 30.7915C27.3991 30.8431 27.4167 30.8947 27.435 30.9384C27.4389 30.9484 27.4428 30.9583 27.4445 30.9691C27.4596 31.0204 27.4839 31.0987 27.5616 31.1396C27.5663 31.1454 27.5723 31.1672 27.5768 31.182C27.5902 31.2289 27.6096 31.2913 27.6673 31.3413C27.7154 31.3823 27.7356 31.4342 27.763 31.5075L27.7716 31.5296C27.8314 31.683 27.873 31.8435 27.9185 32.014C27.984 32.2581 28.0846 32.491 28.1823 32.7161L28.2161 32.7932C28.2492 32.8655 28.2752 32.9419 28.303 33.0226C28.3613 33.1944 28.4225 33.3702 28.5524 33.523C28.609 33.7095 28.6961 33.879 28.7806 34.0419C28.8341 34.1444 28.8844 34.2418 28.9263 34.3399L29.021 34.5828L29.0987 34.6555C29.1873 34.6706 29.2033 34.6325 29.2783 34.6414L29.3741 34.6371L29.4619 34.5711C29.4724 34.5696 29.4825 34.5669 29.4932 34.5627L30.018 34.3581L30.0422 34.3157C30.0608 34.2842 30.079 34.2517 30.0922 34.2224L30.1151 34.1703L29.9133 33.6525C29.8952 33.6062 29.8767 33.5587 29.8603 33.5104C29.8242 33.4113 29.7867 33.3089 29.7428 33.2154C29.7056 33.1294 29.6629 33.0482 29.6214 32.9703C29.5898 32.9114 29.5578 32.8514 29.5294 32.7912C29.3782 32.4572 29.2626 32.1004 29.1506 31.7562C29.0434 31.4242 28.9322 31.0822 28.7892 30.7564C28.7988 30.7463 28.8245 30.7172 28.8279 30.7134C28.9341 30.7483 29.0413 30.7828 29.1481 30.8162C29.3201 30.8712 29.4921 30.9262 29.6617 30.9847C29.9157 31.0727 30.1859 31.1708 30.4458 31.2869C30.6685 31.3832 30.8935 31.4888 31.1095 31.5903C31.3015 31.6808 31.4945 31.7708 31.6899 31.8574C32.0327 32.0087 32.3763 32.1557 32.7199 32.3028C32.9451 32.3994 33.1718 32.4967 33.3959 32.5937C33.5077 32.643 33.6569 32.6904 33.8208 32.6265C33.8572 32.6123 33.893 32.5933 33.9271 32.5698L34.0116 32.5114L33.9774 32.4141C33.9802 32.4054 33.9971 32.3823 34.0082 32.3665C34.039 32.3252 34.0799 32.2686 34.092 32.1952C34.1013 32.1433 34.1319 32.0856 34.1667 32.0198C34.1838 31.9877 34.2009 31.9556 34.2172 31.9213L34.2432 31.8679L34.1598 31.6538L34.1134 31.6299L34.1156 31.629Z"/>
</mask>
<path d="M34.1156 31.629C34.0418 31.5917 33.9701 31.5535 33.9004 31.5171C33.7346 31.4304 33.5782 31.3489 33.4165 31.2759C33.3234 31.2334 33.2299 31.2024 33.1383 31.1733C33.0594 31.1481 32.9856 31.1234 32.9159 31.0934C32.3883 30.8603 31.8104 30.5998 31.1504 30.2963C31.1039 30.275 31.0588 30.2481 31.0093 30.2191C30.9211 30.167 30.8304 30.1146 30.7197 30.084C30.6093 30.0571 30.5057 30.0161 30.3957 29.9712C30.3579 29.9567 30.3197 29.9411 30.282 29.9265L30.2693 29.9226C30.2693 29.9226 30.2588 29.9178 30.2533 29.9161C30.2357 29.909 30.2192 29.9014 30.1932 29.895C30.0371 29.8618 29.8874 29.8069 29.7287 29.748C29.6395 29.7154 29.5488 29.6821 29.4557 29.6522C29.4861 29.6099 29.515 29.5668 29.5436 29.5201C29.5815 29.4557 29.6204 29.3909 29.6586 29.3277C29.7472 29.1813 29.838 29.0314 29.918 28.8756C29.9738 28.7687 30.0246 28.6586 30.0731 28.5519C30.1562 28.3695 30.2344 28.1966 30.3403 28.0408C30.5065 27.7929 30.6289 27.5341 30.7488 27.2814C30.7685 27.2368 30.7943 27.1988 30.8134 27.1812C30.9671 27.0627 31.0794 26.9045 31.1672 26.6834C31.2295 26.5268 31.2876 26.3719 31.3485 26.2147C31.3848 26.1179 31.4221 26.0206 31.4608 25.9204L31.4798 25.871L31.426 25.733L31.3755 25.6637L31.2837 25.5927C31.1529 25.5864 31.0356 25.5291 30.9114 25.4669C30.864 25.4434 30.8151 25.4193 30.7644 25.397C30.7258 25.3803 30.6866 25.3651 30.6456 25.3518L30.5849 25.3322L30.4875 25.3639C30.3046 25.4771 30.2806 25.6467 30.221 25.7945C30.2003 25.8459 30.1813 25.8952 30.1576 25.9388C30.1481 25.9463 30.1387 25.9538 30.1282 25.9617C30.0786 25.9989 30.0238 26.0418 29.9773 26.1032C29.9108 26.1952 29.8482 26.3036 29.786 26.4321L29.7569 26.4905C29.6761 26.6568 29.5913 26.8285 29.5283 27.012C29.5021 27.087 29.4501 27.1531 29.3951 27.2241C29.3292 27.3083 29.2552 27.4033 29.2174 27.5248C29.0747 27.7063 28.976 27.9089 28.8798 28.1053C28.8159 28.2358 28.7557 28.3597 28.684 28.4767C28.6299 28.5626 28.587 28.6518 28.5457 28.7391C28.5039 28.8279 28.4639 28.9122 28.413 28.9905C28.3123 29.1468 28.2199 29.3087 28.1301 29.4645C28.1241 29.4745 28.1192 29.484 28.1132 29.494C28.0707 29.4165 28.0288 29.3374 27.9935 29.2596C27.9432 29.1495 27.9023 29.0383 27.8584 28.9193C27.8351 28.8597 27.8145 28.8004 27.7912 28.7408C27.7555 28.6492 27.7198 28.5575 27.6841 28.4659C27.6126 28.2827 27.5433 28.0986 27.4685 27.9129L27.4306 27.8221C27.3734 27.6816 27.3129 27.536 27.2191 27.3933C27.1181 27.2419 27.0405 27.0649 26.9665 26.8941C26.9323 26.8159 26.8981 26.7377 26.8622 26.6614L26.8435 26.6229L26.8068 26.6016C26.7795 26.5855 26.8144 26.5325 26.788 26.5186C26.7646 26.5061 26.6924 26.4948 26.6771 26.4843L26.6053 26.4868L26.3279 26.595L26.1816 26.666L26.073 26.6943L25.863 26.7762L25.7939 26.8171C25.7753 26.8676 25.7643 26.8236 25.7386 26.8717L25.75 27.0275L26.0181 27.7152C26.0999 27.9313 26.1999 28.1403 26.2966 28.3442C26.4147 28.5932 26.5377 28.8518 26.6214 29.1078C26.6363 29.1618 26.6709 29.203 26.7026 29.2338C26.7026 29.2338 26.7031 29.2349 26.7035 29.236C26.7068 29.2856 26.7096 29.3341 26.7286 29.3827L27.0049 30.0914L27.0081 30.1028C27.0169 30.135 27.0303 30.1883 27.0814 30.2243L27.0882 30.2293L27.0962 30.2338C27.1286 30.2504 27.1421 30.282 27.1688 30.3568C27.1922 30.4201 27.2181 30.4927 27.2741 30.5574C27.3216 30.6126 27.3515 30.6989 27.3814 30.7915C27.3991 30.8431 27.4167 30.8947 27.435 30.9384C27.4389 30.9484 27.4428 30.9583 27.4445 30.9691C27.4596 31.0204 27.4839 31.0987 27.5616 31.1396C27.5663 31.1454 27.5723 31.1672 27.5768 31.182C27.5902 31.2289 27.6096 31.2913 27.6673 31.3413C27.7154 31.3823 27.7356 31.4342 27.763 31.5075L27.7716 31.5296C27.8314 31.683 27.873 31.8435 27.9185 32.014C27.984 32.2581 28.0846 32.491 28.1823 32.7161L28.2161 32.7932C28.2492 32.8655 28.2752 32.9419 28.303 33.0226C28.3613 33.1944 28.4225 33.3702 28.5524 33.523C28.609 33.7095 28.6961 33.879 28.7806 34.0419C28.8341 34.1444 28.8844 34.2418 28.9263 34.3399L29.021 34.5828L29.0987 34.6555C29.1873 34.6706 29.2033 34.6325 29.2783 34.6414L29.3741 34.6371L29.4619 34.5711C29.4724 34.5696 29.4825 34.5669 29.4932 34.5627L30.018 34.3581L30.0422 34.3157C30.0608 34.2842 30.079 34.2517 30.0922 34.2224L30.1151 34.1703L29.9133 33.6525C29.8952 33.6062 29.8767 33.5587 29.8603 33.5104C29.8242 33.4113 29.7867 33.3089 29.7428 33.2154C29.7056 33.1294 29.6629 33.0482 29.6214 32.9703C29.5898 32.9114 29.5578 32.8514 29.5294 32.7912C29.3782 32.4572 29.2626 32.1004 29.1506 31.7562C29.0434 31.4242 28.9322 31.0822 28.7892 30.7564C28.7988 30.7463 28.8245 30.7172 28.8279 30.7134C28.9341 30.7483 29.0413 30.7828 29.1481 30.8162C29.3201 30.8712 29.4921 30.9262 29.6617 30.9847C29.9157 31.0727 30.1859 31.1708 30.4458 31.2869C30.6685 31.3832 30.8935 31.4888 31.1095 31.5903C31.3015 31.6808 31.4945 31.7708 31.6899 31.8574C32.0327 32.0087 32.3763 32.1557 32.7199 32.3028C32.9451 32.3994 33.1718 32.4967 33.3959 32.5937C33.5077 32.643 33.6569 32.6904 33.8208 32.6265C33.8572 32.6123 33.893 32.5933 33.9271 32.5698L34.0116 32.5114L33.9774 32.4141C33.9802 32.4054 33.9971 32.3823 34.0082 32.3665C34.039 32.3252 34.0799 32.2686 34.092 32.1952C34.1013 32.1433 34.1319 32.0856 34.1667 32.0198C34.1838 31.9877 34.2009 31.9556 34.2172 31.9213L34.2432 31.8679L34.1598 31.6538L34.1134 31.6299L34.1156 31.629Z" fill="#FFF8E6"/>
<path d="M34.1156 31.629C34.0418 31.5917 33.9701 31.5535 33.9004 31.5171C33.7346 31.4304 33.5782 31.3489 33.4165 31.2759C33.3234 31.2334 33.2299 31.2024 33.1383 31.1733C33.0594 31.1481 32.9856 31.1234 32.9159 31.0934C32.3883 30.8603 31.8104 30.5998 31.1504 30.2963C31.1039 30.275 31.0588 30.2481 31.0093 30.2191C30.9211 30.167 30.8304 30.1146 30.7197 30.084C30.6093 30.0571 30.5057 30.0161 30.3957 29.9712C30.3579 29.9567 30.3197 29.9411 30.282 29.9265L30.2693 29.9226C30.2693 29.9226 30.2588 29.9178 30.2533 29.9161C30.2357 29.909 30.2192 29.9014 30.1932 29.895C30.0371 29.8618 29.8874 29.8069 29.7287 29.748C29.6395 29.7154 29.5488 29.6821 29.4557 29.6522C29.4861 29.6099 29.515 29.5668 29.5436 29.5201C29.5815 29.4557 29.6204 29.3909 29.6586 29.3277C29.7472 29.1813 29.838 29.0314 29.918 28.8756C29.9738 28.7687 30.0246 28.6586 30.0731 28.5519C30.1562 28.3695 30.2344 28.1966 30.3403 28.0408C30.5065 27.7929 30.6289 27.5341 30.7488 27.2814C30.7685 27.2368 30.7943 27.1988 30.8134 27.1812C30.9671 27.0627 31.0794 26.9045 31.1672 26.6834C31.2295 26.5268 31.2876 26.3719 31.3485 26.2147C31.3848 26.1179 31.4221 26.0206 31.4608 25.9204L31.4798 25.871L31.426 25.733L31.3755 25.6637L31.2837 25.5927C31.1529 25.5864 31.0356 25.5291 30.9114 25.4669C30.864 25.4434 30.8151 25.4193 30.7644 25.397C30.7258 25.3803 30.6866 25.3651 30.6456 25.3518L30.5849 25.3322L30.4875 25.3639C30.3046 25.4771 30.2806 25.6467 30.221 25.7945C30.2003 25.8459 30.1813 25.8952 30.1576 25.9388C30.1481 25.9463 30.1387 25.9538 30.1282 25.9617C30.0786 25.9989 30.0238 26.0418 29.9773 26.1032C29.9108 26.1952 29.8482 26.3036 29.786 26.4321L29.7569 26.4905C29.6761 26.6568 29.5913 26.8285 29.5283 27.012C29.5021 27.087 29.4501 27.1531 29.3951 27.2241C29.3292 27.3083 29.2552 27.4033 29.2174 27.5248C29.0747 27.7063 28.976 27.9089 28.8798 28.1053C28.8159 28.2358 28.7557 28.3597 28.684 28.4767C28.6299 28.5626 28.587 28.6518 28.5457 28.7391C28.5039 28.8279 28.4639 28.9122 28.413 28.9905C28.3123 29.1468 28.2199 29.3087 28.1301 29.4645C28.1241 29.4745 28.1192 29.484 28.1132 29.494C28.0707 29.4165 28.0288 29.3374 27.9935 29.2596C27.9432 29.1495 27.9023 29.0383 27.8584 28.9193C27.8351 28.8597 27.8145 28.8004 27.7912 28.7408C27.7555 28.6492 27.7198 28.5575 27.6841 28.4659C27.6126 28.2827 27.5433 28.0986 27.4685 27.9129L27.4306 27.8221C27.3734 27.6816 27.3129 27.536 27.2191 27.3933C27.1181 27.2419 27.0405 27.0649 26.9665 26.8941C26.9323 26.8159 26.8981 26.7377 26.8622 26.6614L26.8435 26.6229L26.8068 26.6016C26.7795 26.5855 26.8144 26.5325 26.788 26.5186C26.7646 26.5061 26.6924 26.4948 26.6771 26.4843L26.6053 26.4868L26.3279 26.595L26.1816 26.666L26.073 26.6943L25.863 26.7762L25.7939 26.8171C25.7753 26.8676 25.7643 26.8236 25.7386 26.8717L25.75 27.0275L26.0181 27.7152C26.0999 27.9313 26.1999 28.1403 26.2966 28.3442C26.4147 28.5932 26.5377 28.8518 26.6214 29.1078C26.6363 29.1618 26.6709 29.203 26.7026 29.2338C26.7026 29.2338 26.7031 29.2349 26.7035 29.236C26.7068 29.2856 26.7096 29.3341 26.7286 29.3827L27.0049 30.0914L27.0081 30.1028C27.0169 30.135 27.0303 30.1883 27.0814 30.2243L27.0882 30.2293L27.0962 30.2338C27.1286 30.2504 27.1421 30.282 27.1688 30.3568C27.1922 30.4201 27.2181 30.4927 27.2741 30.5574C27.3216 30.6126 27.3515 30.6989 27.3814 30.7915C27.3991 30.8431 27.4167 30.8947 27.435 30.9384C27.4389 30.9484 27.4428 30.9583 27.4445 30.9691C27.4596 31.0204 27.4839 31.0987 27.5616 31.1396C27.5663 31.1454 27.5723 31.1672 27.5768 31.182C27.5902 31.2289 27.6096 31.2913 27.6673 31.3413C27.7154 31.3823 27.7356 31.4342 27.763 31.5075L27.7716 31.5296C27.8314 31.683 27.873 31.8435 27.9185 32.014C27.984 32.2581 28.0846 32.491 28.1823 32.7161L28.2161 32.7932C28.2492 32.8655 28.2752 32.9419 28.303 33.0226C28.3613 33.1944 28.4225 33.3702 28.5524 33.523C28.609 33.7095 28.6961 33.879 28.7806 34.0419C28.8341 34.1444 28.8844 34.2418 28.9263 34.3399L29.021 34.5828L29.0987 34.6555C29.1873 34.6706 29.2033 34.6325 29.2783 34.6414L29.3741 34.6371L29.4619 34.5711C29.4724 34.5696 29.4825 34.5669 29.4932 34.5627L30.018 34.3581L30.0422 34.3157C30.0608 34.2842 30.079 34.2517 30.0922 34.2224L30.1151 34.1703L29.9133 33.6525C29.8952 33.6062 29.8767 33.5587 29.8603 33.5104C29.8242 33.4113 29.7867 33.3089 29.7428 33.2154C29.7056 33.1294 29.6629 33.0482 29.6214 32.9703C29.5898 32.9114 29.5578 32.8514 29.5294 32.7912C29.3782 32.4572 29.2626 32.1004 29.1506 31.7562C29.0434 31.4242 28.9322 31.0822 28.7892 30.7564C28.7988 30.7463 28.8245 30.7172 28.8279 30.7134C28.9341 30.7483 29.0413 30.7828 29.1481 30.8162C29.3201 30.8712 29.4921 30.9262 29.6617 30.9847C29.9157 31.0727 30.1859 31.1708 30.4458 31.2869C30.6685 31.3832 30.8935 31.4888 31.1095 31.5903C31.3015 31.6808 31.4945 31.7708 31.6899 31.8574C32.0327 32.0087 32.3763 32.1557 32.7199 32.3028C32.9451 32.3994 33.1718 32.4967 33.3959 32.5937C33.5077 32.643 33.6569 32.6904 33.8208 32.6265C33.8572 32.6123 33.893 32.5933 33.9271 32.5698L34.0116 32.5114L33.9774 32.4141C33.9802 32.4054 33.9971 32.3823 34.0082 32.3665C34.039 32.3252 34.0799 32.2686 34.092 32.1952C34.1013 32.1433 34.1319 32.0856 34.1667 32.0198C34.1838 31.9877 34.2009 31.9556 34.2172 31.9213L34.2432 31.8679L34.1598 31.6538L34.1134 31.6299L34.1156 31.629Z" stroke="#FFF8E6" stroke-width="0.278532" mask="url(#path-3-outside-2_622_22884)"/>
<mask id="path-4-outside-3_622_22884" maskUnits="userSpaceOnUse" x="31.6753" y="20.85" width="10.154" height="11.8595" fill="black">
<rect fill="white" x="31.6753" y="20.85" width="10.154" height="11.8595"/>
<path d="M40.5597 29.0596C40.5369 29.0011 40.4989 28.9574 40.4667 28.9191C40.4572 28.9075 40.4463 28.8952 40.436 28.8814L40.3681 28.796L40.27 28.8419C40.0275 28.9542 39.7968 29.0619 39.5661 29.1697L39.4265 29.2355C39.4029 29.2447 39.3494 29.2656 39.319 29.3207C39.2938 29.3572 39.2451 29.3813 39.1884 29.4097C39.1511 29.4281 39.1117 29.4473 39.0749 29.4731C39.0425 29.4946 39.0036 29.5149 38.95 29.5357C38.9125 29.5504 38.8731 29.5632 38.8352 29.5767C38.7925 29.5908 38.7493 29.6064 38.7075 29.6226C38.6839 29.6318 38.6604 29.641 38.6387 29.652C38.5719 29.6831 38.5064 29.7176 38.4423 29.7527C38.3577 29.7984 38.277 29.8413 38.1934 29.8739C38.0949 29.9123 37.9935 29.9404 37.8853 29.9698C37.8052 29.9922 37.7246 30.0134 37.6404 30.0412C37.5768 30.0647 37.5132 30.0882 37.45 30.1129C37.3868 30.1375 37.3257 30.1613 37.2625 30.1859C37.2325 30.1976 37.2026 30.2093 37.1726 30.221C37.1362 30.1182 37.0825 30.031 37.0339 29.9508C36.9944 29.8873 36.9572 29.8268 36.9329 29.7676L36.3752 28.337C36.3713 28.327 36.367 28.316 36.3648 28.3041C36.3515 28.2572 36.3321 28.1948 36.2784 28.1458C36.2096 28.0862 36.1811 28.0006 36.1486 27.9014C36.1411 27.8789 36.1335 27.8564 36.126 27.8339C36.1999 27.8051 36.5692 27.6636 36.6796 27.6206C36.7899 27.5776 36.9024 27.5338 37.015 27.4873L37.075 27.4639C37.2104 27.4061 37.3644 27.3422 37.4759 27.2326C37.5012 27.2088 37.5366 27.195 37.5768 27.178C37.6315 27.1567 37.6931 27.1314 37.7469 27.0761C37.8023 27.0189 37.8783 26.9893 37.9651 26.9554L38.2929 26.8277L38.3753 26.6404L38.363 26.593C38.3402 26.5091 38.3075 26.4316 38.2767 26.3558C38.221 26.2224 38.1722 26.1066 38.1825 25.9716L38.1866 25.8556L38.0753 25.8265C38.0108 25.8097 37.9447 25.7922 37.851 25.7702L37.8092 25.7611L37.7696 25.7765C37.7557 25.782 37.7385 25.7886 37.7193 25.7962C37.6914 25.807 37.6588 25.8184 37.6246 25.8318C37.5935 25.8439 37.5603 25.8569 37.5258 25.8728C37.4849 25.8913 37.4436 25.9087 37.4028 25.9246C37.3429 25.948 37.282 25.9692 37.2227 25.991C37.1597 26.013 37.0967 26.035 37.0346 26.0593C36.92 26.1039 36.769 26.1692 36.6313 26.275C36.548 26.3367 36.4413 26.3859 36.3374 26.4328C36.3079 26.4455 36.2798 26.459 36.2556 26.4697C36.2057 26.4905 36.1558 26.5112 36.1054 26.5308C36.0551 26.5504 36.0026 26.5709 35.9501 26.5914C35.8976 26.6118 35.8462 26.6319 35.7948 26.6519L35.5645 26.7417C35.4567 26.6044 35.4076 26.4468 35.3566 26.281L35.3421 26.2345C35.2702 26.0184 35.1707 25.8169 35.0748 25.6215C34.9931 25.4563 34.9159 25.2994 34.8516 25.1248C34.8423 25.0979 34.8283 25.0525 34.7856 25.0158C34.7186 24.9579 34.6945 24.8771 34.6648 24.7755C34.6607 24.7618 34.6566 24.7481 34.6521 24.7334L35.1491 24.5396C35.1587 24.5359 35.1709 24.5324 35.1821 24.5293C35.2033 24.5236 35.2256 24.5174 35.2438 24.5103C35.2995 24.4886 35.3369 24.455 35.3564 24.413C35.3594 24.4081 35.3613 24.4035 35.3806 24.396C35.3945 24.3905 35.4099 24.3858 35.4247 24.3826C35.447 24.3764 35.4688 24.3692 35.4892 24.3613C35.532 24.3446 35.5665 24.3222 35.5948 24.2934C35.6354 24.2521 35.6862 24.2209 35.7622 24.1912C35.7847 24.1825 35.8072 24.1737 35.8295 24.1676C35.8546 24.1591 35.8876 24.1551 35.9227 24.1503C35.9746 24.1441 36.0322 24.1369 36.0901 24.1143L38.0577 23.3473L38.06 23.2548C38.0652 23.0341 37.9852 22.8478 37.9138 22.6836C37.8761 22.5966 37.8402 22.5139 37.8189 22.4307L37.7945 22.3397L37.7004 22.3293C37.5996 22.3178 37.4781 22.313 37.3474 22.3639C36.9732 22.5022 36.5976 22.6372 36.221 22.7725C36.0335 22.8393 35.8465 22.9071 35.6558 22.9751C35.6451 22.9792 35.6323 22.9842 35.6213 22.991C35.6213 22.991 35.6192 22.9919 35.6181 22.9923C35.5491 22.9798 35.4769 22.9876 35.4019 23.0168C35.373 23.0281 35.3449 23.0416 35.3158 23.0555C35.2941 23.0665 35.2736 23.077 35.2522 23.0854C35.2457 23.0879 35.2393 23.0904 35.2318 23.0933L35.1999 23.1032C35.1403 23.1213 35.0793 23.1388 35.0182 23.1626C34.9486 23.1897 34.8912 23.2197 34.8432 23.255C34.6542 23.3935 34.455 23.5029 34.2322 23.5898L34.1829 23.609C34.1221 23.6302 34.0621 23.6536 34.001 23.6774C33.94 23.7012 33.8811 23.7241 33.8211 23.7475C33.7622 23.7705 33.7033 23.7934 33.6411 23.8177C33.6133 23.8285 33.5854 23.8394 33.5565 23.8506C33.414 23.9062 33.2523 23.9692 33.1218 24.1218L33.0606 24.1928L33.1027 24.2755C33.1494 24.3667 33.1849 24.4673 33.2226 24.5734C33.2856 24.751 33.3508 24.9342 33.478 25.1021C33.5117 25.1474 33.5341 25.2112 33.5567 25.2786C33.5903 25.3775 33.6275 25.4888 33.7145 25.5821C33.7593 25.7414 33.8384 25.881 33.9142 26.0154C33.9624 26.1009 34.0073 26.1813 34.0437 26.2651C34.0897 26.3705 34.1267 26.4781 34.1685 26.5916C34.2496 26.8219 34.3342 27.0611 34.4895 27.2727C34.5123 27.3058 34.5301 27.3484 34.5503 27.3939C34.5804 27.4648 34.614 27.5446 34.6765 27.6194C34.7192 27.6689 34.7515 27.739 34.7869 27.8142C34.8041 27.852 34.8224 27.8893 34.8413 27.9252C34.9185 28.0693 34.9839 28.2244 35.0482 28.3736C35.0998 28.4933 35.1521 28.6179 35.2119 28.7396C35.3336 28.9884 35.4319 29.2566 35.5283 29.5166C35.6557 29.8624 35.7868 30.2208 35.9791 30.5527C36.0492 30.6755 36.1083 30.805 36.1715 30.9419C36.1958 30.9947 36.2201 31.0475 36.2414 31.0926C36.2574 31.1589 36.3014 31.1863 36.3363 31.1968C36.34 31.203 36.3462 31.2222 36.3503 31.2359C36.3598 31.2665 36.3708 31.3042 36.3929 31.3388C36.4183 31.3785 36.4428 31.416 36.4683 31.4531C36.4868 31.4815 36.5059 31.5084 36.5276 31.5419C36.5328 31.5488 36.5388 31.5579 36.5424 31.5641L36.57 31.6347L36.6544 31.6425C36.6838 31.645 36.7085 31.6481 36.7305 31.651C36.7501 31.6535 36.8077 31.659 36.8077 31.659L36.8311 31.6525C36.9817 31.6116 37.125 31.5582 37.245 31.5115L37.5031 31.4108C37.6537 31.3509 37.8157 31.2915 37.9863 31.2543C38.0977 31.2299 38.2082 31.197 38.3143 31.1557C38.4717 31.0943 38.6187 31.0154 38.7512 30.9218C38.7891 30.8955 38.8341 30.8717 38.8941 30.8483C38.9401 30.8303 38.987 30.8146 39.0355 30.7995C39.0882 30.7828 39.1415 30.7645 39.1919 30.7449C39.2133 30.7365 39.2336 30.7286 39.2546 30.7192C39.4275 30.6403 39.5958 30.5531 39.7571 30.4699C39.7646 30.4669 39.7721 30.464 39.7796 30.4611C39.7967 30.4544 39.8139 30.4477 39.8319 30.4433C39.8548 30.4356 39.8767 30.4284 39.8992 30.4196C39.9474 30.4008 40.0116 30.3694 40.0653 30.3078C40.0775 30.3043 40.0887 30.3012 40.1005 30.2966C40.1669 30.2707 40.2159 30.2287 40.257 30.1949C40.2842 30.1728 40.3092 30.1516 40.3292 30.1426C40.442 30.0935 40.5586 30.0315 40.7076 29.9391C40.7667 29.9008 40.7842 29.838 40.7953 29.7968C40.7976 29.787 40.8 29.7772 40.8045 29.7666L40.8213 29.718C40.8213 29.718 40.7525 29.5414 40.7271 29.4763C40.6741 29.3405 40.6221 29.2006 40.5657 29.0623L40.5597 29.0596Z"/>
</mask>
<path d="M40.5597 29.0596C40.5369 29.0011 40.4989 28.9574 40.4667 28.9191C40.4572 28.9075 40.4463 28.8952 40.436 28.8814L40.3681 28.796L40.27 28.8419C40.0275 28.9542 39.7968 29.0619 39.5661 29.1697L39.4265 29.2355C39.4029 29.2447 39.3494 29.2656 39.319 29.3207C39.2938 29.3572 39.2451 29.3813 39.1884 29.4097C39.1511 29.4281 39.1117 29.4473 39.0749 29.4731C39.0425 29.4946 39.0036 29.5149 38.95 29.5357C38.9125 29.5504 38.8731 29.5632 38.8352 29.5767C38.7925 29.5908 38.7493 29.6064 38.7075 29.6226C38.6839 29.6318 38.6604 29.641 38.6387 29.652C38.5719 29.6831 38.5064 29.7176 38.4423 29.7527C38.3577 29.7984 38.277 29.8413 38.1934 29.8739C38.0949 29.9123 37.9935 29.9404 37.8853 29.9698C37.8052 29.9922 37.7246 30.0134 37.6404 30.0412C37.5768 30.0647 37.5132 30.0882 37.45 30.1129C37.3868 30.1375 37.3257 30.1613 37.2625 30.1859C37.2325 30.1976 37.2026 30.2093 37.1726 30.221C37.1362 30.1182 37.0825 30.031 37.0339 29.9508C36.9944 29.8873 36.9572 29.8268 36.9329 29.7676L36.3752 28.337C36.3713 28.327 36.367 28.316 36.3648 28.3041C36.3515 28.2572 36.3321 28.1948 36.2784 28.1458C36.2096 28.0862 36.1811 28.0006 36.1486 27.9014C36.1411 27.8789 36.1335 27.8564 36.126 27.8339C36.1999 27.8051 36.5692 27.6636 36.6796 27.6206C36.7899 27.5776 36.9024 27.5338 37.015 27.4873L37.075 27.4639C37.2104 27.4061 37.3644 27.3422 37.4759 27.2326C37.5012 27.2088 37.5366 27.195 37.5768 27.178C37.6315 27.1567 37.6931 27.1314 37.7469 27.0761C37.8023 27.0189 37.8783 26.9893 37.9651 26.9554L38.2929 26.8277L38.3753 26.6404L38.363 26.593C38.3402 26.5091 38.3075 26.4316 38.2767 26.3558C38.221 26.2224 38.1722 26.1066 38.1825 25.9716L38.1866 25.8556L38.0753 25.8265C38.0108 25.8097 37.9447 25.7922 37.851 25.7702L37.8092 25.7611L37.7696 25.7765C37.7557 25.782 37.7385 25.7886 37.7193 25.7962C37.6914 25.807 37.6588 25.8184 37.6246 25.8318C37.5935 25.8439 37.5603 25.8569 37.5258 25.8728C37.4849 25.8913 37.4436 25.9087 37.4028 25.9246C37.3429 25.948 37.282 25.9692 37.2227 25.991C37.1597 26.013 37.0967 26.035 37.0346 26.0593C36.92 26.1039 36.769 26.1692 36.6313 26.275C36.548 26.3367 36.4413 26.3859 36.3374 26.4328C36.3079 26.4455 36.2798 26.459 36.2556 26.4697C36.2057 26.4905 36.1558 26.5112 36.1054 26.5308C36.0551 26.5504 36.0026 26.5709 35.9501 26.5914C35.8976 26.6118 35.8462 26.6319 35.7948 26.6519L35.5645 26.7417C35.4567 26.6044 35.4076 26.4468 35.3566 26.281L35.3421 26.2345C35.2702 26.0184 35.1707 25.8169 35.0748 25.6215C34.9931 25.4563 34.9159 25.2994 34.8516 25.1248C34.8423 25.0979 34.8283 25.0525 34.7856 25.0158C34.7186 24.9579 34.6945 24.8771 34.6648 24.7755C34.6607 24.7618 34.6566 24.7481 34.6521 24.7334L35.1491 24.5396C35.1587 24.5359 35.1709 24.5324 35.1821 24.5293C35.2033 24.5236 35.2256 24.5174 35.2438 24.5103C35.2995 24.4886 35.3369 24.455 35.3564 24.413C35.3594 24.4081 35.3613 24.4035 35.3806 24.396C35.3945 24.3905 35.4099 24.3858 35.4247 24.3826C35.447 24.3764 35.4688 24.3692 35.4892 24.3613C35.532 24.3446 35.5665 24.3222 35.5948 24.2934C35.6354 24.2521 35.6862 24.2209 35.7622 24.1912C35.7847 24.1825 35.8072 24.1737 35.8295 24.1676C35.8546 24.1591 35.8876 24.1551 35.9227 24.1503C35.9746 24.1441 36.0322 24.1369 36.0901 24.1143L38.0577 23.3473L38.06 23.2548C38.0652 23.0341 37.9852 22.8478 37.9138 22.6836C37.8761 22.5966 37.8402 22.5139 37.8189 22.4307L37.7945 22.3397L37.7004 22.3293C37.5996 22.3178 37.4781 22.313 37.3474 22.3639C36.9732 22.5022 36.5976 22.6372 36.221 22.7725C36.0335 22.8393 35.8465 22.9071 35.6558 22.9751C35.6451 22.9792 35.6323 22.9842 35.6213 22.991C35.6213 22.991 35.6192 22.9919 35.6181 22.9923C35.5491 22.9798 35.4769 22.9876 35.4019 23.0168C35.373 23.0281 35.3449 23.0416 35.3158 23.0555C35.2941 23.0665 35.2736 23.077 35.2522 23.0854C35.2457 23.0879 35.2393 23.0904 35.2318 23.0933L35.1999 23.1032C35.1403 23.1213 35.0793 23.1388 35.0182 23.1626C34.9486 23.1897 34.8912 23.2197 34.8432 23.255C34.6542 23.3935 34.455 23.5029 34.2322 23.5898L34.1829 23.609C34.1221 23.6302 34.0621 23.6536 34.001 23.6774C33.94 23.7012 33.8811 23.7241 33.8211 23.7475C33.7622 23.7705 33.7033 23.7934 33.6411 23.8177C33.6133 23.8285 33.5854 23.8394 33.5565 23.8506C33.414 23.9062 33.2523 23.9692 33.1218 24.1218L33.0606 24.1928L33.1027 24.2755C33.1494 24.3667 33.1849 24.4673 33.2226 24.5734C33.2856 24.751 33.3508 24.9342 33.478 25.1021C33.5117 25.1474 33.5341 25.2112 33.5567 25.2786C33.5903 25.3775 33.6275 25.4888 33.7145 25.5821C33.7593 25.7414 33.8384 25.881 33.9142 26.0154C33.9624 26.1009 34.0073 26.1813 34.0437 26.2651C34.0897 26.3705 34.1267 26.4781 34.1685 26.5916C34.2496 26.8219 34.3342 27.0611 34.4895 27.2727C34.5123 27.3058 34.5301 27.3484 34.5503 27.3939C34.5804 27.4648 34.614 27.5446 34.6765 27.6194C34.7192 27.6689 34.7515 27.739 34.7869 27.8142C34.8041 27.852 34.8224 27.8893 34.8413 27.9252C34.9185 28.0693 34.9839 28.2244 35.0482 28.3736C35.0998 28.4933 35.1521 28.6179 35.2119 28.7396C35.3336 28.9884 35.4319 29.2566 35.5283 29.5166C35.6557 29.8624 35.7868 30.2208 35.9791 30.5527C36.0492 30.6755 36.1083 30.805 36.1715 30.9419C36.1958 30.9947 36.2201 31.0475 36.2414 31.0926C36.2574 31.1589 36.3014 31.1863 36.3363 31.1968C36.34 31.203 36.3462 31.2222 36.3503 31.2359C36.3598 31.2665 36.3708 31.3042 36.3929 31.3388C36.4183 31.3785 36.4428 31.416 36.4683 31.4531C36.4868 31.4815 36.5059 31.5084 36.5276 31.5419C36.5328 31.5488 36.5388 31.5579 36.5424 31.5641L36.57 31.6347L36.6544 31.6425C36.6838 31.645 36.7085 31.6481 36.7305 31.651C36.7501 31.6535 36.8077 31.659 36.8077 31.659L36.8311 31.6525C36.9817 31.6116 37.125 31.5582 37.245 31.5115L37.5031 31.4108C37.6537 31.3509 37.8157 31.2915 37.9863 31.2543C38.0977 31.2299 38.2082 31.197 38.3143 31.1557C38.4717 31.0943 38.6187 31.0154 38.7512 30.9218C38.7891 30.8955 38.8341 30.8717 38.8941 30.8483C38.9401 30.8303 38.987 30.8146 39.0355 30.7995C39.0882 30.7828 39.1415 30.7645 39.1919 30.7449C39.2133 30.7365 39.2336 30.7286 39.2546 30.7192C39.4275 30.6403 39.5958 30.5531 39.7571 30.4699C39.7646 30.4669 39.7721 30.464 39.7796 30.4611C39.7967 30.4544 39.8139 30.4477 39.8319 30.4433C39.8548 30.4356 39.8767 30.4284 39.8992 30.4196C39.9474 30.4008 40.0116 30.3694 40.0653 30.3078C40.0775 30.3043 40.0887 30.3012 40.1005 30.2966C40.1669 30.2707 40.2159 30.2287 40.257 30.1949C40.2842 30.1728 40.3092 30.1516 40.3292 30.1426C40.442 30.0935 40.5586 30.0315 40.7076 29.9391C40.7667 29.9008 40.7842 29.838 40.7953 29.7968C40.7976 29.787 40.8 29.7772 40.8045 29.7666L40.8213 29.718C40.8213 29.718 40.7525 29.5414 40.7271 29.4763C40.6741 29.3405 40.6221 29.2006 40.5657 29.0623L40.5597 29.0596Z" fill="#FFF8E6"/>
<path d="M40.5597 29.0596C40.5369 29.0011 40.4989 28.9574 40.4667 28.9191C40.4572 28.9075 40.4463 28.8952 40.436 28.8814L40.3681 28.796L40.27 28.8419C40.0275 28.9542 39.7968 29.0619 39.5661 29.1697L39.4265 29.2355C39.4029 29.2447 39.3494 29.2656 39.319 29.3207C39.2938 29.3572 39.2451 29.3813 39.1884 29.4097C39.1511 29.4281 39.1117 29.4473 39.0749 29.4731C39.0425 29.4946 39.0036 29.5149 38.95 29.5357C38.9125 29.5504 38.8731 29.5632 38.8352 29.5767C38.7925 29.5908 38.7493 29.6064 38.7075 29.6226C38.6839 29.6318 38.6604 29.641 38.6387 29.652C38.5719 29.6831 38.5064 29.7176 38.4423 29.7527C38.3577 29.7984 38.277 29.8413 38.1934 29.8739C38.0949 29.9123 37.9935 29.9404 37.8853 29.9698C37.8052 29.9922 37.7246 30.0134 37.6404 30.0412C37.5768 30.0647 37.5132 30.0882 37.45 30.1129C37.3868 30.1375 37.3257 30.1613 37.2625 30.1859C37.2325 30.1976 37.2026 30.2093 37.1726 30.221C37.1362 30.1182 37.0825 30.031 37.0339 29.9508C36.9944 29.8873 36.9572 29.8268 36.9329 29.7676L36.3752 28.337C36.3713 28.327 36.367 28.316 36.3648 28.3041C36.3515 28.2572 36.3321 28.1948 36.2784 28.1458C36.2096 28.0862 36.1811 28.0006 36.1486 27.9014C36.1411 27.8789 36.1335 27.8564 36.126 27.8339C36.1999 27.8051 36.5692 27.6636 36.6796 27.6206C36.7899 27.5776 36.9024 27.5338 37.015 27.4873L37.075 27.4639C37.2104 27.4061 37.3644 27.3422 37.4759 27.2326C37.5012 27.2088 37.5366 27.195 37.5768 27.178C37.6315 27.1567 37.6931 27.1314 37.7469 27.0761C37.8023 27.0189 37.8783 26.9893 37.9651 26.9554L38.2929 26.8277L38.3753 26.6404L38.363 26.593C38.3402 26.5091 38.3075 26.4316 38.2767 26.3558C38.221 26.2224 38.1722 26.1066 38.1825 25.9716L38.1866 25.8556L38.0753 25.8265C38.0108 25.8097 37.9447 25.7922 37.851 25.7702L37.8092 25.7611L37.7696 25.7765C37.7557 25.782 37.7385 25.7886 37.7193 25.7962C37.6914 25.807 37.6588 25.8184 37.6246 25.8318C37.5935 25.8439 37.5603 25.8569 37.5258 25.8728C37.4849 25.8913 37.4436 25.9087 37.4028 25.9246C37.3429 25.948 37.282 25.9692 37.2227 25.991C37.1597 26.013 37.0967 26.035 37.0346 26.0593C36.92 26.1039 36.769 26.1692 36.6313 26.275C36.548 26.3367 36.4413 26.3859 36.3374 26.4328C36.3079 26.4455 36.2798 26.459 36.2556 26.4697C36.2057 26.4905 36.1558 26.5112 36.1054 26.5308C36.0551 26.5504 36.0026 26.5709 35.9501 26.5914C35.8976 26.6118 35.8462 26.6319 35.7948 26.6519L35.5645 26.7417C35.4567 26.6044 35.4076 26.4468 35.3566 26.281L35.3421 26.2345C35.2702 26.0184 35.1707 25.8169 35.0748 25.6215C34.9931 25.4563 34.9159 25.2994 34.8516 25.1248C34.8423 25.0979 34.8283 25.0525 34.7856 25.0158C34.7186 24.9579 34.6945 24.8771 34.6648 24.7755C34.6607 24.7618 34.6566 24.7481 34.6521 24.7334L35.1491 24.5396C35.1587 24.5359 35.1709 24.5324 35.1821 24.5293C35.2033 24.5236 35.2256 24.5174 35.2438 24.5103C35.2995 24.4886 35.3369 24.455 35.3564 24.413C35.3594 24.4081 35.3613 24.4035 35.3806 24.396C35.3945 24.3905 35.4099 24.3858 35.4247 24.3826C35.447 24.3764 35.4688 24.3692 35.4892 24.3613C35.532 24.3446 35.5665 24.3222 35.5948 24.2934C35.6354 24.2521 35.6862 24.2209 35.7622 24.1912C35.7847 24.1825 35.8072 24.1737 35.8295 24.1676C35.8546 24.1591 35.8876 24.1551 35.9227 24.1503C35.9746 24.1441 36.0322 24.1369 36.0901 24.1143L38.0577 23.3473L38.06 23.2548C38.0652 23.0341 37.9852 22.8478 37.9138 22.6836C37.8761 22.5966 37.8402 22.5139 37.8189 22.4307L37.7945 22.3397L37.7004 22.3293C37.5996 22.3178 37.4781 22.313 37.3474 22.3639C36.9732 22.5022 36.5976 22.6372 36.221 22.7725C36.0335 22.8393 35.8465 22.9071 35.6558 22.9751C35.6451 22.9792 35.6323 22.9842 35.6213 22.991C35.6213 22.991 35.6192 22.9919 35.6181 22.9923C35.5491 22.9798 35.4769 22.9876 35.4019 23.0168C35.373 23.0281 35.3449 23.0416 35.3158 23.0555C35.2941 23.0665 35.2736 23.077 35.2522 23.0854C35.2457 23.0879 35.2393 23.0904 35.2318 23.0933L35.1999 23.1032C35.1403 23.1213 35.0793 23.1388 35.0182 23.1626C34.9486 23.1897 34.8912 23.2197 34.8432 23.255C34.6542 23.3935 34.455 23.5029 34.2322 23.5898L34.1829 23.609C34.1221 23.6302 34.0621 23.6536 34.001 23.6774C33.94 23.7012 33.8811 23.7241 33.8211 23.7475C33.7622 23.7705 33.7033 23.7934 33.6411 23.8177C33.6133 23.8285 33.5854 23.8394 33.5565 23.8506C33.414 23.9062 33.2523 23.9692 33.1218 24.1218L33.0606 24.1928L33.1027 24.2755C33.1494 24.3667 33.1849 24.4673 33.2226 24.5734C33.2856 24.751 33.3508 24.9342 33.478 25.1021C33.5117 25.1474 33.5341 25.2112 33.5567 25.2786C33.5903 25.3775 33.6275 25.4888 33.7145 25.5821C33.7593 25.7414 33.8384 25.881 33.9142 26.0154C33.9624 26.1009 34.0073 26.1813 34.0437 26.2651C34.0897 26.3705 34.1267 26.4781 34.1685 26.5916C34.2496 26.8219 34.3342 27.0611 34.4895 27.2727C34.5123 27.3058 34.5301 27.3484 34.5503 27.3939C34.5804 27.4648 34.614 27.5446 34.6765 27.6194C34.7192 27.6689 34.7515 27.739 34.7869 27.8142C34.8041 27.852 34.8224 27.8893 34.8413 27.9252C34.9185 28.0693 34.9839 28.2244 35.0482 28.3736C35.0998 28.4933 35.1521 28.6179 35.2119 28.7396C35.3336 28.9884 35.4319 29.2566 35.5283 29.5166C35.6557 29.8624 35.7868 30.2208 35.9791 30.5527C36.0492 30.6755 36.1083 30.805 36.1715 30.9419C36.1958 30.9947 36.2201 31.0475 36.2414 31.0926C36.2574 31.1589 36.3014 31.1863 36.3363 31.1968C36.34 31.203 36.3462 31.2222 36.3503 31.2359C36.3598 31.2665 36.3708 31.3042 36.3929 31.3388C36.4183 31.3785 36.4428 31.416 36.4683 31.4531C36.4868 31.4815 36.5059 31.5084 36.5276 31.5419C36.5328 31.5488 36.5388 31.5579 36.5424 31.5641L36.57 31.6347L36.6544 31.6425C36.6838 31.645 36.7085 31.6481 36.7305 31.651C36.7501 31.6535 36.8077 31.659 36.8077 31.659L36.8311 31.6525C36.9817 31.6116 37.125 31.5582 37.245 31.5115L37.5031 31.4108C37.6537 31.3509 37.8157 31.2915 37.9863 31.2543C38.0977 31.2299 38.2082 31.197 38.3143 31.1557C38.4717 31.0943 38.6187 31.0154 38.7512 30.9218C38.7891 30.8955 38.8341 30.8717 38.8941 30.8483C38.9401 30.8303 38.987 30.8146 39.0355 30.7995C39.0882 30.7828 39.1415 30.7645 39.1919 30.7449C39.2133 30.7365 39.2336 30.7286 39.2546 30.7192C39.4275 30.6403 39.5958 30.5531 39.7571 30.4699C39.7646 30.4669 39.7721 30.464 39.7796 30.4611C39.7967 30.4544 39.8139 30.4477 39.8319 30.4433C39.8548 30.4356 39.8767 30.4284 39.8992 30.4196C39.9474 30.4008 40.0116 30.3694 40.0653 30.3078C40.0775 30.3043 40.0887 30.3012 40.1005 30.2966C40.1669 30.2707 40.2159 30.2287 40.257 30.1949C40.2842 30.1728 40.3092 30.1516 40.3292 30.1426C40.442 30.0935 40.5586 30.0315 40.7076 29.9391C40.7667 29.9008 40.7842 29.838 40.7953 29.7968C40.7976 29.787 40.8 29.7772 40.8045 29.7666L40.8213 29.718C40.8213 29.718 40.7525 29.5414 40.7271 29.4763C40.6741 29.3405 40.6221 29.2006 40.5657 29.0623L40.5597 29.0596Z" stroke="#FFF8E6" stroke-width="0.278532" mask="url(#path-4-outside-3_622_22884)"/>
<mask id="path-5-outside-4_622_22884" maskUnits="userSpaceOnUse" x="10.8337" y="29.0443" width="10.154" height="11.8595" fill="black">
<rect fill="white" x="10.8337" y="29.0443" width="10.154" height="11.8595"/>
<path d="M17.6418 31.101C17.5595 30.9436 17.4817 30.801 17.4047 30.6606L17.3983 30.6504C17.3506 30.566 17.3026 30.4842 17.2678 30.4202L17.2334 30.3573L17.143 30.2489C17.0356 30.2361 16.9757 30.3293 16.8758 30.32L16.8439 30.3172L16.3137 30.5238L16.2923 30.583C16.2923 30.583 16.2885 30.5858 16.2746 30.5912C16.2606 30.5967 16.2474 30.6006 16.233 30.6049C16.2118 30.6106 16.191 30.6174 16.1707 30.6254C16.1267 30.6425 16.0923 30.6648 16.0629 30.6941C16.0227 30.7365 15.9715 30.7666 15.8955 30.7962C15.873 30.805 15.8505 30.8138 15.8282 30.8199C15.7626 30.8417 15.6949 30.8579 15.6276 30.8752C15.5334 30.8992 15.4354 30.9234 15.3401 30.9606L15.3069 30.9735C15.2467 30.9995 15.185 31.0249 15.124 31.0487C15.0415 31.0808 14.9586 31.1119 14.8746 31.1433C14.7896 31.1752 14.7056 31.2067 14.621 31.2397C14.4528 31.3052 14.2328 31.3961 14.0236 31.5209C13.9572 31.5595 13.8833 31.5946 13.7901 31.631C13.7162 31.6598 13.6399 31.6857 13.5636 31.7116C13.4842 31.7388 13.4036 31.7664 13.3243 31.7973C13.2826 31.8135 13.241 31.8336 13.1984 31.854C13.1633 31.8715 13.1271 31.8894 13.0917 31.9032C13.0564 31.917 13.0251 31.9254 13.0006 31.926C12.8753 31.9304 12.766 31.9666 12.6749 32.0021C12.6482 32.0125 12.5441 32.0557 12.5173 32.0661C12.468 32.0853 12.4286 32.0981 12.3915 32.1075L12.2681 32.1391L12.2901 32.2653C12.2982 32.3143 12.3062 32.3633 12.3148 32.4108C12.3548 32.6368 12.3888 32.8538 12.4864 33.0662L12.5771 33.1122L12.6535 33.1626C12.7058 33.1765 12.7552 33.1891 12.8008 33.2018C12.8918 33.4003 12.9675 33.6073 13.0418 33.8073C13.1606 34.131 13.2837 34.4658 13.4723 34.7725C13.5173 34.9101 13.5748 35.0415 13.6298 35.1701C13.7305 35.403 13.826 35.6227 13.8504 35.8624L13.853 35.8881L13.8646 35.9116C13.9142 36.0105 13.9515 36.1155 13.9902 36.2275C14.0557 36.4144 14.1232 36.6068 14.2575 36.7833C14.2871 36.8214 14.2997 36.8915 14.3113 36.9658C14.3187 37.01 14.326 37.0542 14.337 37.0982C14.4153 37.3717 14.5117 37.6444 14.6036 37.9086C14.6344 37.9971 14.6658 38.084 14.694 38.1659L14.6992 38.1791C14.7158 38.2439 14.7442 38.3421 14.8302 38.3951C14.833 38.3991 14.838 38.4149 14.8419 38.4249C14.8522 38.4514 14.8636 38.4838 14.8819 38.5085C14.9006 38.5406 14.9229 38.5662 14.9428 38.589C14.9542 38.6023 14.9718 38.6222 14.9744 38.6288C15.0358 38.8338 15.1308 39.0205 15.2233 39.2007C15.2942 39.3383 15.3669 39.4804 15.422 39.6281L15.4499 39.6998L15.525 39.7151C15.5571 39.7216 15.5914 39.7273 15.6247 39.7334C15.6564 39.7389 15.6896 39.745 15.7203 39.7508L15.7484 39.7564L15.7769 39.7504C15.8202 39.7412 15.8649 39.7262 15.9174 39.7058C15.9474 39.6941 15.9763 39.6828 16.0055 39.6689C16.0323 39.6585 16.0582 39.6458 16.0849 39.6354C16.1535 39.6087 16.176 39.5999 16.2602 39.6103L16.4016 39.5552L16.4554 39.5063C16.466 39.4767 16.4767 39.4471 16.487 39.4164C16.497 39.3883 16.5066 39.3591 16.516 39.3326L16.5292 39.2969L16.5223 39.2602C16.5057 39.1637 16.4684 39.0777 16.433 38.9962C16.3861 38.8885 16.4059 38.7842 16.3543 38.6898C16.29 38.5725 16.3166 38.4667 16.2117 38.4097C16.2023 38.4045 16.1993 38.4031 16.1851 38.354C16.1788 38.3348 16.1741 38.3163 16.1651 38.2931C16.1332 38.2178 16.104 38.1427 16.0743 38.0665C16.0446 37.9904 16.0132 37.9098 15.9818 37.8355C15.9615 37.7837 15.9334 37.7399 15.9085 37.7013L15.8887 37.6696C15.8586 37.6178 15.824 37.5702 15.7899 37.5238C15.7211 37.4297 15.6563 37.3393 15.6499 37.2502C15.6409 37.1037 15.5923 36.9789 15.5493 36.8685C15.5368 36.8365 15.5247 36.8056 15.5125 36.771C15.4391 36.5732 15.3618 36.3783 15.2842 36.1822C15.2622 36.1259 15.2399 36.0685 15.2179 36.0122C15.3332 36.0168 15.4311 35.9863 15.5126 35.9546C15.535 35.9458 15.6209 35.9098 15.6413 35.9018C15.6595 35.8947 15.6766 35.888 15.6942 35.8825C15.7767 35.8567 15.8605 35.8278 15.9504 35.7928C16.1518 35.7143 16.3487 35.621 16.5391 35.5302C16.7252 35.4411 16.9167 35.35 17.1095 35.2748C17.1524 35.2581 17.1941 35.2418 17.2421 35.2256L17.3932 35.1668L17.4784 34.9708L17.1716 34.1837L17.1454 34.1608C17.0595 34.0862 16.9596 34.0705 16.8461 34.1147C16.8343 34.1193 16.7865 34.1392 16.7865 34.1392L14.8328 34.9008C14.8306 34.8953 14.8281 34.8887 14.8259 34.8832C14.7865 34.7917 14.7519 34.7124 14.7364 34.6345C14.7167 34.5366 14.6602 34.4709 14.6147 34.4174C14.5677 34.3633 14.5552 34.344 14.5578 34.3188C14.5696 34.1845 14.5201 34.0766 14.4758 33.982C14.4582 33.9431 14.4414 33.9064 14.4285 33.8669C14.3969 33.7762 14.3609 33.6872 14.325 33.5982C14.3082 33.5552 14.2914 33.5121 14.2747 33.4691C14.2605 33.4326 14.2463 33.3962 14.2331 33.3594C14.1978 33.2625 14.1612 33.1623 14.1094 33.0642C14.0864 33.0211 14.0594 32.9833 14.0338 32.9462C14.0095 32.9124 13.9911 32.884 13.9775 32.8588C14.054 32.8239 14.1403 32.789 14.2389 32.7506C14.3128 32.7217 14.3867 32.6929 14.4615 32.6663C14.5364 32.6371 14.6112 32.6105 14.6862 32.5813C14.8629 32.5124 15.0711 32.4261 15.2748 32.306C15.3461 32.2642 15.4275 32.2261 15.5303 32.1861C15.615 32.1531 15.7019 32.123 15.7894 32.094C15.8571 32.0714 15.9243 32.0477 15.9901 32.0234C15.9991 32.0211 16.0079 32.0215 16.0177 32.0215C16.0469 32.0203 16.088 32.0183 16.1298 32.002C16.1523 31.9932 16.1748 31.9844 16.1992 31.9775C16.2264 31.9681 16.2536 31.9588 16.2804 31.9483C16.3415 31.9245 16.3875 31.9002 16.4274 31.8694C16.48 31.8273 16.5398 31.7938 16.6083 31.7671C16.6683 31.7437 16.7362 31.7249 16.8157 31.7104L16.8399 31.7061C16.8952 31.696 16.9479 31.6856 17.0015 31.6647C17.0615 31.6413 17.1125 31.6075 17.1574 31.5645C17.1889 31.5344 17.2394 31.5122 17.2938 31.4872C17.3369 31.4678 17.3816 31.4466 17.4215 31.4221C17.4742 31.3927 17.5129 31.356 17.5499 31.3212C17.5679 31.304 17.587 31.2864 17.6097 31.2687L17.6989 31.197L17.6459 31.0956L17.6418 31.101Z"/>
</mask>
<path d="M17.6418 31.101C17.5595 30.9436 17.4817 30.801 17.4047 30.6606L17.3983 30.6504C17.3506 30.566 17.3026 30.4842 17.2678 30.4202L17.2334 30.3573L17.143 30.2489C17.0356 30.2361 16.9757 30.3293 16.8758 30.32L16.8439 30.3172L16.3137 30.5238L16.2923 30.583C16.2923 30.583 16.2885 30.5858 16.2746 30.5912C16.2606 30.5967 16.2474 30.6006 16.233 30.6049C16.2118 30.6106 16.191 30.6174 16.1707 30.6254C16.1267 30.6425 16.0923 30.6648 16.0629 30.6941C16.0227 30.7365 15.9715 30.7666 15.8955 30.7962C15.873 30.805 15.8505 30.8138 15.8282 30.8199C15.7626 30.8417 15.6949 30.8579 15.6276 30.8752C15.5334 30.8992 15.4354 30.9234 15.3401 30.9606L15.3069 30.9735C15.2467 30.9995 15.185 31.0249 15.124 31.0487C15.0415 31.0808 14.9586 31.1119 14.8746 31.1433C14.7896 31.1752 14.7056 31.2067 14.621 31.2397C14.4528 31.3052 14.2328 31.3961 14.0236 31.5209C13.9572 31.5595 13.8833 31.5946 13.7901 31.631C13.7162 31.6598 13.6399 31.6857 13.5636 31.7116C13.4842 31.7388 13.4036 31.7664 13.3243 31.7973C13.2826 31.8135 13.241 31.8336 13.1984 31.854C13.1633 31.8715 13.1271 31.8894 13.0917 31.9032C13.0564 31.917 13.0251 31.9254 13.0006 31.926C12.8753 31.9304 12.766 31.9666 12.6749 32.0021C12.6482 32.0125 12.5441 32.0557 12.5173 32.0661C12.468 32.0853 12.4286 32.0981 12.3915 32.1075L12.2681 32.1391L12.2901 32.2653C12.2982 32.3143 12.3062 32.3633 12.3148 32.4108C12.3548 32.6368 12.3888 32.8538 12.4864 33.0662L12.5771 33.1122L12.6535 33.1626C12.7058 33.1765 12.7552 33.1891 12.8008 33.2018C12.8918 33.4003 12.9675 33.6073 13.0418 33.8073C13.1606 34.131 13.2837 34.4658 13.4723 34.7725C13.5173 34.9101 13.5748 35.0415 13.6298 35.1701C13.7305 35.403 13.826 35.6227 13.8504 35.8624L13.853 35.8881L13.8646 35.9116C13.9142 36.0105 13.9515 36.1155 13.9902 36.2275C14.0557 36.4144 14.1232 36.6068 14.2575 36.7833C14.2871 36.8214 14.2997 36.8915 14.3113 36.9658C14.3187 37.01 14.326 37.0542 14.337 37.0982C14.4153 37.3717 14.5117 37.6444 14.6036 37.9086C14.6344 37.9971 14.6658 38.084 14.694 38.1659L14.6992 38.1791C14.7158 38.2439 14.7442 38.3421 14.8302 38.3951C14.833 38.3991 14.838 38.4149 14.8419 38.4249C14.8522 38.4514 14.8636 38.4838 14.8819 38.5085C14.9006 38.5406 14.9229 38.5662 14.9428 38.589C14.9542 38.6023 14.9718 38.6222 14.9744 38.6288C15.0358 38.8338 15.1308 39.0205 15.2233 39.2007C15.2942 39.3383 15.3669 39.4804 15.422 39.6281L15.4499 39.6998L15.525 39.7151C15.5571 39.7216 15.5914 39.7273 15.6247 39.7334C15.6564 39.7389 15.6896 39.745 15.7203 39.7508L15.7484 39.7564L15.7769 39.7504C15.8202 39.7412 15.8649 39.7262 15.9174 39.7058C15.9474 39.6941 15.9763 39.6828 16.0055 39.6689C16.0323 39.6585 16.0582 39.6458 16.0849 39.6354C16.1535 39.6087 16.176 39.5999 16.2602 39.6103L16.4016 39.5552L16.4554 39.5063C16.466 39.4767 16.4767 39.4471 16.487 39.4164C16.497 39.3883 16.5066 39.3591 16.516 39.3326L16.5292 39.2969L16.5223 39.2602C16.5057 39.1637 16.4684 39.0777 16.433 38.9962C16.3861 38.8885 16.4059 38.7842 16.3543 38.6898C16.29 38.5725 16.3166 38.4667 16.2117 38.4097C16.2023 38.4045 16.1993 38.4031 16.1851 38.354C16.1788 38.3348 16.1741 38.3163 16.1651 38.2931C16.1332 38.2178 16.104 38.1427 16.0743 38.0665C16.0446 37.9904 16.0132 37.9098 15.9818 37.8355C15.9615 37.7837 15.9334 37.7399 15.9085 37.7013L15.8887 37.6696C15.8586 37.6178 15.824 37.5702 15.7899 37.5238C15.7211 37.4297 15.6563 37.3393 15.6499 37.2502C15.6409 37.1037 15.5923 36.9789 15.5493 36.8685C15.5368 36.8365 15.5247 36.8056 15.5125 36.771C15.4391 36.5732 15.3618 36.3783 15.2842 36.1822C15.2622 36.1259 15.2399 36.0685 15.2179 36.0122C15.3332 36.0168 15.4311 35.9863 15.5126 35.9546C15.535 35.9458 15.6209 35.9098 15.6413 35.9018C15.6595 35.8947 15.6766 35.888 15.6942 35.8825C15.7767 35.8567 15.8605 35.8278 15.9504 35.7928C16.1518 35.7143 16.3487 35.621 16.5391 35.5302C16.7252 35.4411 16.9167 35.35 17.1095 35.2748C17.1524 35.2581 17.1941 35.2418 17.2421 35.2256L17.3932 35.1668L17.4784 34.9708L17.1716 34.1837L17.1454 34.1608C17.0595 34.0862 16.9596 34.0705 16.8461 34.1147C16.8343 34.1193 16.7865 34.1392 16.7865 34.1392L14.8328 34.9008C14.8306 34.8953 14.8281 34.8887 14.8259 34.8832C14.7865 34.7917 14.7519 34.7124 14.7364 34.6345C14.7167 34.5366 14.6602 34.4709 14.6147 34.4174C14.5677 34.3633 14.5552 34.344 14.5578 34.3188C14.5696 34.1845 14.5201 34.0766 14.4758 33.982C14.4582 33.9431 14.4414 33.9064 14.4285 33.8669C14.3969 33.7762 14.3609 33.6872 14.325 33.5982C14.3082 33.5552 14.2914 33.5121 14.2747 33.4691C14.2605 33.4326 14.2463 33.3962 14.2331 33.3594C14.1978 33.2625 14.1612 33.1623 14.1094 33.0642C14.0864 33.0211 14.0594 32.9833 14.0338 32.9462C14.0095 32.9124 13.9911 32.884 13.9775 32.8588C14.054 32.8239 14.1403 32.789 14.2389 32.7506C14.3128 32.7217 14.3867 32.6929 14.4615 32.6663C14.5364 32.6371 14.6112 32.6105 14.6862 32.5813C14.8629 32.5124 15.0711 32.4261 15.2748 32.306C15.3461 32.2642 15.4275 32.2261 15.5303 32.1861C15.615 32.1531 15.7019 32.123 15.7894 32.094C15.8571 32.0714 15.9243 32.0477 15.9901 32.0234C15.9991 32.0211 16.0079 32.0215 16.0177 32.0215C16.0469 32.0203 16.088 32.0183 16.1298 32.002C16.1523 31.9932 16.1748 31.9844 16.1992 31.9775C16.2264 31.9681 16.2536 31.9588 16.2804 31.9483C16.3415 31.9245 16.3875 31.9002 16.4274 31.8694C16.48 31.8273 16.5398 31.7938 16.6083 31.7671C16.6683 31.7437 16.7362 31.7249 16.8157 31.7104L16.8399 31.7061C16.8952 31.696 16.9479 31.6856 17.0015 31.6647C17.0615 31.6413 17.1125 31.6075 17.1574 31.5645C17.1889 31.5344 17.2394 31.5122 17.2938 31.4872C17.3369 31.4678 17.3816 31.4466 17.4215 31.4221C17.4742 31.3927 17.5129 31.356 17.5499 31.3212C17.5679 31.304 17.587 31.2864 17.6097 31.2687L17.6989 31.197L17.6459 31.0956L17.6418 31.101Z" fill="#FFF8E6"/>
<path d="M17.6418 31.101C17.5595 30.9436 17.4817 30.801 17.4047 30.6606L17.3983 30.6504C17.3506 30.566 17.3026 30.4842 17.2678 30.4202L17.2334 30.3573L17.143 30.2489C17.0356 30.2361 16.9757 30.3293 16.8758 30.32L16.8439 30.3172L16.3137 30.5238L16.2923 30.583C16.2923 30.583 16.2885 30.5858 16.2746 30.5912C16.2606 30.5967 16.2474 30.6006 16.233 30.6049C16.2118 30.6106 16.191 30.6174 16.1707 30.6254C16.1267 30.6425 16.0923 30.6648 16.0629 30.6941C16.0227 30.7365 15.9715 30.7666 15.8955 30.7962C15.873 30.805 15.8505 30.8138 15.8282 30.8199C15.7626 30.8417 15.6949 30.8579 15.6276 30.8752C15.5334 30.8992 15.4354 30.9234 15.3401 30.9606L15.3069 30.9735C15.2467 30.9995 15.185 31.0249 15.124 31.0487C15.0415 31.0808 14.9586 31.1119 14.8746 31.1433C14.7896 31.1752 14.7056 31.2067 14.621 31.2397C14.4528 31.3052 14.2328 31.3961 14.0236 31.5209C13.9572 31.5595 13.8833 31.5946 13.7901 31.631C13.7162 31.6598 13.6399 31.6857 13.5636 31.7116C13.4842 31.7388 13.4036 31.7664 13.3243 31.7973C13.2826 31.8135 13.241 31.8336 13.1984 31.854C13.1633 31.8715 13.1271 31.8894 13.0917 31.9032C13.0564 31.917 13.0251 31.9254 13.0006 31.926C12.8753 31.9304 12.766 31.9666 12.6749 32.0021C12.6482 32.0125 12.5441 32.0557 12.5173 32.0661C12.468 32.0853 12.4286 32.0981 12.3915 32.1075L12.2681 32.1391L12.2901 32.2653C12.2982 32.3143 12.3062 32.3633 12.3148 32.4108C12.3548 32.6368 12.3888 32.8538 12.4864 33.0662L12.5771 33.1122L12.6535 33.1626C12.7058 33.1765 12.7552 33.1891 12.8008 33.2018C12.8918 33.4003 12.9675 33.6073 13.0418 33.8073C13.1606 34.131 13.2837 34.4658 13.4723 34.7725C13.5173 34.9101 13.5748 35.0415 13.6298 35.1701C13.7305 35.403 13.826 35.6227 13.8504 35.8624L13.853 35.8881L13.8646 35.9116C13.9142 36.0105 13.9515 36.1155 13.9902 36.2275C14.0557 36.4144 14.1232 36.6068 14.2575 36.7833C14.2871 36.8214 14.2997 36.8915 14.3113 36.9658C14.3187 37.01 14.326 37.0542 14.337 37.0982C14.4153 37.3717 14.5117 37.6444 14.6036 37.9086C14.6344 37.9971 14.6658 38.084 14.694 38.1659L14.6992 38.1791C14.7158 38.2439 14.7442 38.3421 14.8302 38.3951C14.833 38.3991 14.838 38.4149 14.8419 38.4249C14.8522 38.4514 14.8636 38.4838 14.8819 38.5085C14.9006 38.5406 14.9229 38.5662 14.9428 38.589C14.9542 38.6023 14.9718 38.6222 14.9744 38.6288C15.0358 38.8338 15.1308 39.0205 15.2233 39.2007C15.2942 39.3383 15.3669 39.4804 15.422 39.6281L15.4499 39.6998L15.525 39.7151C15.5571 39.7216 15.5914 39.7273 15.6247 39.7334C15.6564 39.7389 15.6896 39.745 15.7203 39.7508L15.7484 39.7564L15.7769 39.7504C15.8202 39.7412 15.8649 39.7262 15.9174 39.7058C15.9474 39.6941 15.9763 39.6828 16.0055 39.6689C16.0323 39.6585 16.0582 39.6458 16.0849 39.6354C16.1535 39.6087 16.176 39.5999 16.2602 39.6103L16.4016 39.5552L16.4554 39.5063C16.466 39.4767 16.4767 39.4471 16.487 39.4164C16.497 39.3883 16.5066 39.3591 16.516 39.3326L16.5292 39.2969L16.5223 39.2602C16.5057 39.1637 16.4684 39.0777 16.433 38.9962C16.3861 38.8885 16.4059 38.7842 16.3543 38.6898C16.29 38.5725 16.3166 38.4667 16.2117 38.4097C16.2023 38.4045 16.1993 38.4031 16.1851 38.354C16.1788 38.3348 16.1741 38.3163 16.1651 38.2931C16.1332 38.2178 16.104 38.1427 16.0743 38.0665C16.0446 37.9904 16.0132 37.9098 15.9818 37.8355C15.9615 37.7837 15.9334 37.7399 15.9085 37.7013L15.8887 37.6696C15.8586 37.6178 15.824 37.5702 15.7899 37.5238C15.7211 37.4297 15.6563 37.3393 15.6499 37.2502C15.6409 37.1037 15.5923 36.9789 15.5493 36.8685C15.5368 36.8365 15.5247 36.8056 15.5125 36.771C15.4391 36.5732 15.3618 36.3783 15.2842 36.1822C15.2622 36.1259 15.2399 36.0685 15.2179 36.0122C15.3332 36.0168 15.4311 35.9863 15.5126 35.9546C15.535 35.9458 15.6209 35.9098 15.6413 35.9018C15.6595 35.8947 15.6766 35.888 15.6942 35.8825C15.7767 35.8567 15.8605 35.8278 15.9504 35.7928C16.1518 35.7143 16.3487 35.621 16.5391 35.5302C16.7252 35.4411 16.9167 35.35 17.1095 35.2748C17.1524 35.2581 17.1941 35.2418 17.2421 35.2256L17.3932 35.1668L17.4784 34.9708L17.1716 34.1837L17.1454 34.1608C17.0595 34.0862 16.9596 34.0705 16.8461 34.1147C16.8343 34.1193 16.7865 34.1392 16.7865 34.1392L14.8328 34.9008C14.8306 34.8953 14.8281 34.8887 14.8259 34.8832C14.7865 34.7917 14.7519 34.7124 14.7364 34.6345C14.7167 34.5366 14.6602 34.4709 14.6147 34.4174C14.5677 34.3633 14.5552 34.344 14.5578 34.3188C14.5696 34.1845 14.5201 34.0766 14.4758 33.982C14.4582 33.9431 14.4414 33.9064 14.4285 33.8669C14.3969 33.7762 14.3609 33.6872 14.325 33.5982C14.3082 33.5552 14.2914 33.5121 14.2747 33.4691C14.2605 33.4326 14.2463 33.3962 14.2331 33.3594C14.1978 33.2625 14.1612 33.1623 14.1094 33.0642C14.0864 33.0211 14.0594 32.9833 14.0338 32.9462C14.0095 32.9124 13.9911 32.884 13.9775 32.8588C14.054 32.8239 14.1403 32.789 14.2389 32.7506C14.3128 32.7217 14.3867 32.6929 14.4615 32.6663C14.5364 32.6371 14.6112 32.6105 14.6862 32.5813C14.8629 32.5124 15.0711 32.4261 15.2748 32.306C15.3461 32.2642 15.4275 32.2261 15.5303 32.1861C15.615 32.1531 15.7019 32.123 15.7894 32.094C15.8571 32.0714 15.9243 32.0477 15.9901 32.0234C15.9991 32.0211 16.0079 32.0215 16.0177 32.0215C16.0469 32.0203 16.088 32.0183 16.1298 32.002C16.1523 31.9932 16.1748 31.9844 16.1992 31.9775C16.2264 31.9681 16.2536 31.9588 16.2804 31.9483C16.3415 31.9245 16.3875 31.9002 16.4274 31.8694C16.48 31.8273 16.5398 31.7938 16.6083 31.7671C16.6683 31.7437 16.7362 31.7249 16.8157 31.7104L16.8399 31.7061C16.8952 31.696 16.9479 31.6856 17.0015 31.6647C17.0615 31.6413 17.1125 31.6075 17.1574 31.5645C17.1889 31.5344 17.2394 31.5122 17.2938 31.4872C17.3369 31.4678 17.3816 31.4466 17.4215 31.4221C17.4742 31.3927 17.5129 31.356 17.5499 31.3212C17.5679 31.304 17.587 31.2864 17.6097 31.2687L17.6989 31.197L17.6459 31.0956L17.6418 31.101Z" stroke="#FFF8E6" stroke-width="0.278532" mask="url(#path-5-outside-4_622_22884)"/>
</g>
<g clip-path="url(#clip2_622_22884)">
<path d="M30.0102 5.75958C30.5748 5.88237 31.2098 6.02128 31.8447 6.15817C31.9359 6.17741 32.0667 6.16436 32.1223 6.20148C32.5975 6.51838 33.274 6.59545 33.8646 6.76889C34.2723 6.88863 34.6432 7.07102 35.1454 7.0757C35.3371 7.07717 35.5359 7.20029 35.7016 7.29136C36.1694 7.54965 36.6651 7.79549 37.0681 8.09127C37.5874 8.47223 37.6733 8.47273 38.2247 8.82886C38.5313 9.02636 38.9094 9.6215 39.1745 9.84629C39.2618 9.92059 39.3123 10.0199 39.4208 10.0729C39.7786 10.2468 39.8451 10.5253 39.9891 10.7667C40.08 10.9222 40.0978 11.1033 40.1656 11.273C40.291 11.5925 40.3817 11.9167 40.526 12.2354C40.642 12.4903 40.5288 12.7871 40.7336 13.0431C40.7722 13.0912 40.7509 13.1795 40.7074 13.2333C40.4945 13.4971 40.5532 13.7444 40.7865 13.9645C41.0363 14.2002 41.0396 14.4836 40.9395 14.7209C40.8066 15.0369 40.7593 15.3561 40.718 15.668C40.6426 16.2405 40.2649 17.1327 39.7617 17.6637C39.331 18.1192 39.2826 18.5505 38.8567 19.0078C38.7918 19.0778 38.7221 19.1481 38.641 19.2107C38.5217 19.3035 38.391 19.3897 38.2652 19.4788C37.8325 19.785 37.3738 20.0771 36.9767 20.4C36.5964 20.71 35.9951 20.7911 35.5638 21.0576C35.0616 21.368 34.4451 21.6022 33.8559 21.879C33.3154 21.7642 32.9134 22.0487 32.4527 22.156C31.6315 22.3467 30.8394 22.5858 29.9652 22.6539C29.9052 22.6587 29.8526 22.721 29.8141 22.7461C29.6553 22.6995 29.5012 22.6546 29.3294 22.6035C29.2498 22.6284 29.1521 22.6735 29.0435 22.6886C28.6233 22.7473 28.1186 22.7224 27.7974 22.869C27.4189 23.0427 26.9556 22.8483 26.6469 23.097C26.5919 23.1412 26.3959 23.1145 26.2648 23.1204C25.6879 23.1466 25.1111 23.1727 24.5342 23.1989C24.1407 23.2167 23.7472 23.2345 23.3537 23.2524C23.1015 23.0341 22.6308 23.3065 22.3695 23.0968C22.3498 23.0814 22.2684 23.1014 22.2162 23.1017C21.3976 23.1053 20.5776 23.114 19.7603 23.1093C19.4641 23.1075 19.1712 23.074 18.8771 23.0508C18.5831 23.0265 18.2524 23.1726 17.9879 22.9976C17.9748 22.989 17.9402 22.9936 17.9149 22.9938C17.2796 22.989 16.6441 22.9782 16.0092 22.9806C15.6577 22.9823 15.2991 23.0371 14.9678 22.9251C14.5882 22.797 14.169 22.8414 13.7718 22.8828C12.99 22.965 12.2997 22.8275 11.6073 22.6455C11.0527 22.4989 10.5135 22.3078 9.8674 22.3422C9.80102 22.3452 9.72857 22.319 9.66439 22.3006C8.94227 22.0914 8.18132 21.9338 7.51442 21.65C7.25446 21.5399 6.94586 21.4746 6.69199 21.359C6.42191 21.2351 6.19447 21.0736 5.93954 20.9348C5.8908 20.9075 5.80225 20.9105 5.79909 20.9107C5.5606 20.7152 5.36566 20.537 5.14291 20.3743C4.89242 20.1936 4.96818 19.973 4.73006 19.7856C4.27036 19.4264 4.1074 18.9379 3.84579 18.5117C3.54656 18.0242 3.43509 17.4865 3.12778 16.9954C3.11919 16.9805 3.12626 16.9619 3.12548 16.9446C3.04956 16.4226 2.83871 15.8935 2.92621 15.3784C3.09586 14.3696 2.86414 13.38 2.93609 12.3818C2.96595 11.9577 3.09534 11.528 3.25196 11.1052C3.65014 10.0373 3.912 9.56866 5.22605 8.8617C5.36827 8.78513 5.47109 8.67782 5.60839 8.5974C5.75806 8.51033 5.91569 8.38936 6.08889 8.36728C6.78015 8.28005 7.18215 7.8553 7.8406 7.74313C9.20476 7.12842 10.1453 6.84696 11.6322 6.5641C12.1488 6.46548 12.6473 6.3189 13.1413 6.17658C13.5837 6.0488 14.0292 5.92088 14.5098 5.9367C15.0855 5.95634 15.6076 5.77006 16.1706 5.75369C16.721 5.73688 17.2989 5.76963 17.8169 5.66789C18.9188 5.45127 20.032 5.51973 21.1367 5.43611C21.4255 5.41388 21.7245 5.47655 22.0197 5.4896C22.3164 5.50257 22.6395 5.39951 22.903 5.55221C23.3644 5.49572 23.809 5.55586 24.2586 5.58833C24.7067 5.61986 25.2164 5.54492 25.5981 5.65263C26.0136 5.76998 26.4719 5.5744 26.8373 5.7733C26.9087 5.81173 27.0905 5.77097 27.2216 5.76198C27.9067 5.71467 28.5688 5.75275 29.2295 5.86407C29.4162 5.89626 29.6579 5.81112 30.0071 5.76073L30.0102 5.75958Z" fill="#FE9F9F"/>
<path d="M30.9603 8.77775L31.1286 8.46457C31.5123 8.45117 31.8704 8.43867 32.2541 8.42528L32.36 8.52402C32.3168 8.75601 32.4783 8.98086 32.4626 9.26311C32.4459 9.51979 32.4804 9.77467 32.4894 10.0305C32.5001 10.3374 32.5108 10.6443 32.5215 10.9513L32.6295 11.8438C32.6658 12.1499 32.5495 12.4869 32.5867 12.8185C32.623 13.1245 32.6611 13.4817 32.595 13.7913C32.5133 14.3832 32.6096 14.9433 32.6037 15.5069C32.5978 16.0705 32.6439 16.6579 32.6644 17.2462C32.6707 17.4252 32.7536 17.6016 32.7855 17.7797C33.0219 17.9508 33.1489 17.9207 33.4689 17.551C33.5986 17.5977 33.6789 17.6973 33.7592 17.797C33.919 17.9707 34.1298 18.1426 34.3151 18.3154L34.3241 18.5712C34.0992 18.7327 33.9291 18.9947 33.6796 19.1827C33.4803 19.3433 33.2492 19.3257 33.0755 19.4854C32.7932 19.4697 32.5137 19.5307 32.2296 19.4638C31.9968 19.3951 31.9147 19.2443 31.7576 19.1473C31.6253 19.0239 31.5423 18.8475 31.4355 18.7232C31.2395 18.2435 31.1705 17.7337 31.2047 17.2459C31.2433 16.886 31.3076 16.5253 31.2183 16.1698C31.1264 15.7377 31.1377 15.3276 31.1225 14.8927C31.0818 14.4588 31.041 14.0248 31.077 13.5882C31.1552 12.8941 31.0808 12.2308 31.0823 11.5393C31.077 11.3858 31.1995 11.2279 31.143 11.0762C30.9371 10.3151 31.0629 9.51684 30.9603 8.77775Z" fill="black"/>
<path d="M29.6183 18.0185C29.6677 17.9655 29.7409 17.8605 29.814 17.7555C29.9199 17.8543 29.9993 17.9283 30.1043 18.0015C30.2349 18.0738 30.2914 18.2255 30.3964 18.2986C30.5279 18.3965 30.6091 18.5217 30.7149 18.6204C30.4937 18.8842 30.2459 19.1234 30.0493 19.3607C29.9012 19.5195 29.6737 19.6043 29.4955 19.6361C29.1895 19.6724 28.8588 19.7352 28.5209 19.5933C28.3656 19.5475 28.2086 19.4506 28.1009 19.3007C27.9403 19.1014 27.8282 18.8236 27.4939 18.7841C27.4365 18.6068 27.3535 18.4304 27.2696 18.2285C26.6444 18.6601 26.0978 19.1401 25.4435 19.4703L25.3641 19.3962C24.8314 19.5429 24.2704 19.6137 23.6423 19.2258C23.3273 19.0063 23.037 18.7604 22.8199 18.4094C22.7925 18.3592 22.7652 18.3089 22.7131 18.2851C22.2711 18.0957 22.2551 17.6353 22.0891 17.2825L21.9999 16.9271C21.9936 16.7481 21.9618 16.5699 21.9811 16.39C22.0216 16.0812 22.0611 15.7469 22.128 15.4629C22.1949 15.1789 22.2619 14.8948 22.2291 14.6911C22.349 14.4564 22.4451 14.2738 22.5155 14.0921C22.6601 13.8309 22.8055 13.5954 23.1107 13.5335C23.2386 13.529 23.3893 13.447 23.4634 13.3675C23.638 13.2334 23.8206 13.3295 23.9961 13.2209C24.1222 13.1653 24.2986 13.0823 24.4785 13.1016C24.7298 12.9648 25.0139 13.0317 25.2696 13.0228C25.3966 12.9927 25.5272 13.065 25.6551 13.0606C25.7839 13.0817 25.8862 13.0781 26.0159 13.1248C26.1976 13.1953 26.4269 13.1617 26.6324 13.1801C26.6737 12.8969 26.6886 12.5891 26.7299 12.306C26.7784 12.2275 26.8278 12.1745 26.9027 12.1207C26.9027 12.1207 26.9292 12.1454 26.9548 12.1445C27.2626 12.1593 27.5696 12.1486 27.8765 12.1379C27.9559 12.212 28.0098 12.2869 28.0901 12.3865C28.0945 12.5144 28.1264 12.6926 28.107 12.8725C28.1151 13.1027 28.0719 13.3347 28.0553 13.5914C28.0633 13.8216 28.0969 14.0509 28.0794 14.282C28.0592 14.4364 27.9631 14.619 28.0434 14.7186C28.1767 14.8676 28.0294 15.052 28.1874 15.1746C28.2403 15.2239 28.1945 15.3792 28.1981 15.4815C28.2272 15.5829 28.2811 15.6579 28.2846 15.7602C28.3483 16.1165 28.5143 16.4692 28.4756 16.8291C28.6098 17.0037 28.5666 17.2357 28.7264 17.4094C28.8058 17.4834 28.8111 17.6369 28.8685 17.8142C28.9215 17.8635 29.0273 17.9623 29.1068 18.0363L29.6183 18.0185ZM24.6428 17.808C24.873 17.8 25.1288 17.791 25.3845 17.7821L25.7602 17.5385C25.9092 17.4053 26.0573 17.2464 26.1013 17.04C26.1215 16.8857 26.1947 16.7807 26.2925 16.6492C26.49 16.4374 26.5834 16.1781 26.5992 15.8958C26.6087 15.4345 26.567 14.975 26.5509 14.5146L24.5814 14.5834C24.2013 14.6991 24.0039 14.9108 23.9123 15.2214C23.8427 15.4287 23.721 15.6122 23.5967 15.7189C23.6003 15.8213 23.5774 15.8989 23.6056 15.9747C23.6137 16.2049 23.6217 16.4351 23.68 16.638C23.7383 16.8408 23.898 17.0145 23.9298 17.1927C23.9617 17.3708 24.0667 17.444 24.1972 17.5162C24.3534 17.5876 24.4857 17.711 24.6428 17.808Z" fill="black"/>
<path d="M17.1337 12.5127L18.5149 12.4645C18.694 12.4582 18.8219 12.4538 18.9533 12.5516C19.1113 12.6742 19.2903 12.6679 19.4694 12.6617C19.7314 12.8318 19.9934 13.0019 20.1567 13.2779C20.185 13.3537 20.2644 13.4278 20.3429 13.4763C20.4214 13.5247 20.35 13.6809 20.5017 13.6244C20.5865 13.8519 20.7471 14.0512 20.8072 14.3052C20.9291 14.8643 20.8967 15.4032 20.942 15.9651C20.8176 16.0719 20.7198 16.2033 20.621 16.3092C20.2383 16.3482 19.8811 16.3862 19.4992 16.4508C19.3969 16.4544 19.2981 16.5602 19.194 16.5127C18.8835 16.4211 18.5784 16.4829 18.245 16.469C18.2194 16.4699 18.1673 16.4461 18.1409 16.4214C18.0139 16.4514 17.8869 16.4815 17.7334 16.4868C17.2483 16.5294 16.7614 16.5207 16.301 16.5368C16.1821 16.7971 16.1618 16.9514 16.1954 17.1807L16.2954 17.8431C16.5045 17.9638 16.6871 18.0599 16.8459 18.208C16.9774 18.3059 17.1564 18.2996 17.287 18.3719C17.4167 18.4186 17.5455 18.4397 17.6742 18.4608C18.2414 18.5691 18.7476 18.3977 19.3526 18.1205C19.4522 18.0402 19.625 17.8549 19.7722 17.6705C19.9212 17.5373 20.0729 17.4807 20.2784 17.4992C20.4417 17.7752 20.6782 17.9462 20.8908 18.1693C20.9703 18.2433 20.9703 18.2433 21.0277 18.4206L20.2131 19.2941C20.1143 19.4 19.9882 19.4556 19.8365 19.5121C19.5843 19.6234 19.3047 19.6844 19.0534 19.8212C18.877 19.9042 18.6468 19.9122 18.4431 19.9449L17.2921 19.9851C17.0839 19.8899 16.9013 19.7939 16.6931 19.6987L16.3606 19.7103C15.8145 19.4733 15.4677 19.0756 15.1456 18.6515C15.0114 18.4769 14.902 18.2759 14.8428 18.0475C14.7845 17.8446 14.7253 17.6162 14.7428 17.3851C14.7393 17.2828 14.6837 17.1567 14.6545 17.0553C14.6245 16.9283 14.62 16.8004 14.5891 16.6478C14.7812 16.2826 14.6628 15.8257 14.6768 15.4923C14.794 15.1809 14.8873 14.9216 14.956 14.6887C15.0679 14.2238 15.312 13.8824 15.5544 13.4898C15.7263 13.2789 15.9776 13.1421 16.2034 13.0061C16.3286 12.9249 16.4794 12.8428 16.6302 12.7608C16.781 12.6787 16.9318 12.5966 17.1337 12.5127ZM18.8014 14.0679C18.7246 14.0706 18.5976 14.1006 18.4935 14.053C18.2589 13.9332 18.0287 13.9412 17.7729 13.9501C17.5683 13.9573 17.3399 14.0165 17.1935 14.2264C17.1442 14.2794 17.0957 14.3579 17.0445 14.3597C16.7896 14.3942 16.6424 14.5786 16.519 14.7109C16.4979 14.8397 16.4503 14.9438 16.4292 15.0726C16.8128 15.0592 17.1709 15.0467 17.529 15.0342L18.8335 14.9887C19.0381 14.9815 19.241 14.9232 19.3635 14.7653C19.3608 14.6886 19.3591 14.6374 19.3326 14.6127C19.3043 14.5369 19.2258 14.4884 19.1976 14.4126C19.1437 14.3376 19.0185 14.4188 19.0131 14.2654C19.0114 14.2142 18.8808 14.1419 18.8014 14.0679Z" fill="black"/>
<path d="M9.65374 13.1842C9.87859 13.0227 10.1016 12.8101 10.3785 12.6723C10.5284 12.5647 10.681 12.5337 10.8336 12.5028C11.242 12.4629 11.6503 12.4231 12.0358 12.4608C12.4212 12.4986 12.7838 12.614 13.1499 12.8317C13.2576 12.9816 13.4191 13.2064 13.555 13.4322C13.69 13.6323 13.7757 13.8854 13.8861 14.1121C13.9197 14.3414 13.9542 14.5963 14.0143 14.8503C13.9649 14.9032 13.9146 14.9306 13.8908 14.9826C13.7118 14.9889 13.5063 14.9704 13.3308 15.079C13.1553 15.1876 12.9242 15.17 12.7196 15.1772C12.6093 14.9505 12.5492 14.6965 12.3886 14.4973C12.2288 14.3236 12.1423 14.0449 11.7304 13.9824L11.1165 14.0039C10.8907 14.1398 10.6659 14.3013 10.4393 14.4117C10.1386 14.6014 9.99492 14.8881 9.85127 15.1749L9.78079 15.3566C9.78168 15.3822 9.75789 15.4342 9.78525 15.4845C9.86052 16.1733 9.70468 16.8446 9.77905 17.5078C9.62054 18.1024 9.76986 18.7118 9.76571 19.3265C9.74638 19.5065 9.74281 19.4042 9.77463 19.5823C9.80646 19.7605 9.65746 19.8937 9.71397 20.0454C9.63813 20.0737 9.56318 20.1275 9.51292 20.1549C9.35498 20.0323 9.15393 20.1418 8.97399 20.1225C8.79316 20.0776 8.61322 20.0582 8.4077 20.0398C8.37409 19.8105 8.31489 19.5821 8.29021 19.6085C8.1421 19.7674 8.27324 19.1226 8.26432 18.8668L8.24021 18.1762C8.25775 17.9451 8.19856 17.7166 8.26726 17.4838C8.31038 17.2518 8.27677 17.0225 8.26873 16.7923C8.26427 16.6644 8.23423 16.5374 8.22976 16.4095C8.2244 16.256 8.24552 16.1272 8.24016 15.9738C8.26039 15.8194 8.20387 15.6677 8.25056 15.538C8.34038 15.1764 8.27672 14.8201 8.26422 14.462C8.26065 14.3597 8.28266 14.2564 8.20146 14.1312C8.14762 14.0563 8.16784 13.9019 8.19074 13.8243C8.26034 13.617 8.25408 13.4379 8.19579 13.2351C8.13927 13.0834 8.13302 12.9044 8.12856 12.7765L8.30046 12.5656C8.68324 12.5266 9.03955 12.463 9.42233 12.424C9.50799 12.6771 9.56808 12.9311 9.65374 13.1842Z" fill="black"/>
</g>
</g>
<defs>
<clipPath id="clip0_622_22884">
<rect width="44" height="44" fill="white" transform="translate(0.474609 0.80957)"/>
</clipPath>
<clipPath id="clip1_622_22884">
<rect width="33.8692" height="16.0433" fill="white" transform="translate(7.98633 29.1211) rotate(-19.4957)"/>
</clipPath>
<clipPath id="clip2_622_22884">
<rect width="44.5651" height="22.2826" fill="white" transform="translate(1.11426 1.375) rotate(5.49487)"/>
</clipPath>
</defs>
</svg>
