<?xml version="1.0" encoding="UTF-8"?>
<svg id="Layer_2" data-name="Layer 2" xmlns="http://www.w3.org/2000/svg" viewBox="0 0 282.97 102.9">
  <defs>
    <style>
      .cls-1 {
        fill: #db5049;
      }
    </style>
  </defs>
  <g id="Layer_1-2" data-name="Layer 1">
    <g>
      <path class="cls-1" d="M3.68,102.9V28.96H0V0H21.32V28.96h-3.67V102.9H3.68Z"/>
      <path class="cls-1" d="M22.78,102.9V0h13.97V102.9h-13.97Z"/>
      <path class="cls-1" d="M38.22,102.9V0h13.97l4.7,21.32h.44L61.74,0h13.97V102.9h-13.97v-21.32h-.44l-4.12,21.32h-.44l-4.12-21.32h-.44v21.32h-13.97Z"/>
      <path class="cls-1" d="M77.17,102.9V0h21.02V28.96h-7.06v7.2h7.06v30.43h-7.06v7.35h7.06v28.96h-21.02Z"/>
      <path class="cls-1" d="M130.54,31.61h-13.97v-2.65h-2.94v44.98h2.94v-7.35h-1.47v-30.43h15.44v59.39c0,4.7-2.65,7.35-7.35,7.35h-16.17c-4.7,0-7.35-2.65-7.35-7.35V7.35c0-4.7,2.65-7.35,7.35-7.35h16.17c4.7,0,7.35,2.65,7.35,7.35V31.61Z"/>
      <path class="cls-1" d="M139.35,102.9c-4.7,0-7.35-2.65-7.35-7.35V0h13.97V73.94h2.94V0h13.97V95.55c0,4.7-2.65,7.35-7.35,7.35h-16.17Z"/>
      <path class="cls-1" d="M164.34,102.9V0h21.02V28.96h-7.06v7.2h7.06v30.43h-7.06v7.35h7.06v28.96h-21.02Z"/>
      <path class="cls-1" d="M194.18,102.9c-4.7,0-7.35-2.65-7.35-7.35v-24.84h13.96v3.23h2.94v-4.12l-12.05-5.73c-4.12-1.91-4.85-6.47-4.85-11.17V7.35c0-4.7,2.65-7.35,7.35-7.35h16.17c4.7,0,7.35,2.65,7.35,7.35v24.84h-13.96v-3.23h-2.94v4.26l12.05,5.73c4.12,1.91,4.85,6.47,4.85,11.17v45.42c0,4.7-2.65,7.35-7.35,7.35h-16.17Z"/>
      <path class="cls-1" d="M226.52,102.9c-4.7,0-7.35-2.65-7.35-7.35v-24.84h13.96v3.23h2.94v-4.12l-12.05-5.73c-4.12-1.91-4.85-6.47-4.85-11.17V7.35c0-4.7,2.65-7.35,7.35-7.35h16.17c4.7,0,7.35,2.65,7.35,7.35v24.84h-13.96v-3.23h-2.94v4.26l12.05,5.73c4.12,1.91,4.85,6.47,4.85,11.17v45.42c0,4.7-2.65,7.35-7.35,7.35h-16.17Z"/>
      <path class="cls-1" d="M251.51,102.9V0h23.96c4.7,0,7.5,2.65,7.5,7.35V46.45c0,3.23-1.76,4.56-4.41,4.85v.29c2.65,.29,4.26,1.62,4.26,4.85v46.45h-14.41v-36.31h-2.94v36.31h-13.96Zm13.96-66.74h3.38v-7.2h-3.38v7.2Z"/>
    </g>
  </g>
</svg>