<svg width="512" height="512" viewBox="0 0 512 512" fill="none" xmlns="http://www.w3.org/2000/svg">
  <path fill-rule="evenodd" clip-rule="evenodd"
    d="M276 221.323V244.451H356.955C354.508 164.581 327.365 114.827 301.462 84.9807C292.629 74.803 283.829 66.8141 276 60.6782V116.677C269.789 114.301 263.046 113 256 113C248.954 113 242.211 114.301 236 116.677V60.4844C228.027 66.6562 219.038 74.7246 210.018 85.0384C183.91 114.89 156.574 164.624 154.107 244.451H236V221.323C242.211 223.699 248.954 225 256 225C263.046 225 269.789 223.699 276 221.323ZM236 284.451V298.054C254.459 308.025 267 327.548 267 350C267 372.452 254.459 391.975 236 401.946V454.63C227.59 448.239 217.663 439.381 207.682 427.505C202.64 421.506 197.545 414.689 192.605 406.971C167.486 400.2 149 377.259 149 350C149 337.852 152.671 326.562 158.965 317.178C157.167 306.936 155.796 296.039 154.941 284.451H236ZM276 454.441V284.451H356.128C350.966 355.013 326.808 399.949 303.78 427.563C293.999 439.292 284.272 448.073 276 454.441ZM172.483 67.6326C143.02 104.877 116.405 161.481 114.09 244.451H50.3178C54.6874 165.378 103.652 98.1958 172.483 67.6326ZM114.844 284.451H51.9483C61.6496 354.675 106.747 413.594 168.651 442.619C142.842 408.006 119.666 357.104 114.844 284.451ZM342.511 443.009C368.254 408.39 391.418 357.382 396.224 284.451H460.052C450.307 354.991 404.846 414.125 342.511 443.009ZM338.718 67.2799C407.969 97.6767 457.296 165.073 461.682 244.451H396.972C394.666 161.215 368.084 104.519 338.718 67.2799ZM-0.000488281 256C-0.000488281 114.615 114.615 -0.000488281 256 -0.000488281C397.385 -0.000488281 512 114.615 512 256C512 397.385 397.385 512 256 512C114.615 512 -0.000488281 397.385 -0.000488281 256Z"
    fill="#FF9900" />
  <path
    d="M240.563 173.259C239.352 168.739 239.985 163.923 242.324 159.871C244.663 155.818 248.515 152.862 253.033 151.651C257.552 150.44 262.366 151.075 266.418 153.415C270.469 155.755 273.426 159.609 274.637 164.129L295.051 240.313L316.259 237.005L410.469 251.95C420.424 253.666 428.421 261.022 431.07 270.908L450.981 345.217C454.215 359.33 446.109 373.375 432.276 377.63L321.535 407.303C315.061 409.037 308.243 408.124 302.534 404.539L199.873 355.325L208.964 338.824C211.242 334.377 215.339 331.27 220.11 329.992L223.858 328.987L286.231 343.694L240.563 173.259ZM239.333 100.52C263.526 94.038 289.485 100.965 307.244 118.858C334.832 146.173 334.947 190.897 307.475 218.535L301.858 197.571C310.204 185.105 312.593 169.486 308.711 154.999C305.078 141.438 296.208 129.876 284.053 122.856C271.899 115.835 257.455 113.932 243.9 117.564C230.344 121.196 218.787 130.066 211.772 142.224C204.756 154.381 202.856 168.829 206.489 182.389C210.371 196.876 220.249 209.209 233.71 215.831L239.327 236.795C215.129 230.309 195.983 211.327 189.452 186.954C184.607 168.874 187.141 149.609 196.495 133.4C205.85 117.19 221.259 105.363 239.333 100.52ZM195.249 276.737C207.686 273.404 220.139 273.538 231.789 276.81L237.361 297.603C226.185 292.012 212.934 290.265 199.816 293.78C186.26 297.412 174.703 306.283 167.688 318.44C160.672 330.597 158.772 345.045 162.405 358.606C166.972 375.649 179.464 388.195 194.242 394.282L237.065 411.669L231.783 413.085C213.709 417.927 194.451 415.389 178.245 406.029C162.039 396.668 150.213 381.252 145.368 363.171C140.523 345.09 143.057 325.826 152.411 309.616C161.766 293.407 177.175 281.58 195.249 276.737Z"
    fill="#083344" />
</svg>