<svg width="142" height="142" viewBox="0 0 142 142" fill="none" xmlns="http://www.w3.org/2000/svg">
<g clip-path="url(#clip0_14_167)">
<mask id="mask0_14_167" style="mask-type:luminance" maskUnits="userSpaceOnUse" x="0" y="0" width="142" height="142">
<path d="M142 0H0V142H142V0Z" fill="white"/>
</mask>
<g mask="url(#mask0_14_167)">
<path d="M0 32C0 14.3269 14.3269 0 32 0H110C127.673 0 142 14.3269 142 32V110C142 127.673 127.673 142 110 142H32C14.3269 142 0 127.673 0 110V32Z" fill="white"/>
<path d="M11 39C11 23.536 23.536 11 39 11H103C118.464 11 131 23.536 131 39V103C131 118.464 118.464 131 103 131H39C23.536 131 11 118.464 11 103V39Z" fill="#E6E6E6"/>
<path fill-rule="evenodd" clip-rule="evenodd" d="M91 66H31V91C31 105.14 31 112.215 35.395 116.605C39.785 121 46.86 121 61 121H81C95.14 121 102.215 121 106.605 116.605C111 112.215 111 105.14 111 91V86C111 76.57 111 71.86 108.07 68.93C105.14 66 100.43 66 91 66Z" fill="#333333"/>
<path d="M77.5901 52.0001L80.5901 26.8301L57.0401 33.1401L56.8301 34.5651L53.8101 59.8851L77.4051 53.5651L77.5901 52.0001ZM28.4151 48.5751C27.3751 52.4551 28.5851 56.9751 31.0051 66.0001L46.0001 61.9801L46.1951 60.4101L49.1951 35.2401L48.6801 35.3801C39.6551 37.8001 35.1401 39.0101 32.3001 41.8501C30.4371 43.7118 29.0972 46.0312 28.4151 48.5751ZM102.24 46.9101L85.2051 51.4751L88.2251 26.1501L88.5001 24.7901C89.0683 24.677 89.6426 24.5968 90.2201 24.5501C93.1802 24.3556 96.1315 25.0432 98.7009 26.5259C101.27 28.0086 103.342 30.2199 104.655 32.8801C105.305 34.2051 105.755 35.8901 106.66 39.2551C106.96 40.3801 107.11 40.9401 107.145 41.4301C107.209 42.4169 106.979 43.4006 106.485 44.2568C105.99 45.1129 105.252 45.8031 104.365 46.2401C103.925 46.4601 103.365 46.6101 102.24 46.9101Z" fill="#8C8773"/>
<path fill-rule="evenodd" clip-rule="evenodd" d="M70.078 106.696L70.084 106.701L70.088 106.705C70.3504 106.896 70.6707 107 71 107C71.3293 107 71.6496 106.896 71.912 106.705L71.916 106.701L71.922 106.696L71.946 106.678C72.0747 106.583 72.2014 106.485 72.326 106.384C73.8171 105.175 75.1871 103.835 76.418 102.38C78.62 99.7606 81 95.9527 81 91.6159C81 89.0656 79.9464 86.6198 78.0711 84.8164C76.1957 83.0131 73.6522 82 71 82C68.3478 82 65.8043 83.0131 63.9289 84.8164C62.0536 86.6198 61 89.0656 61 91.6159C61 95.9527 63.38 99.7606 65.584 102.38C66.8149 103.835 68.1849 105.175 69.676 106.384L70.054 106.678L70.078 106.696ZM71 94.5007C71.394 94.5007 71.7841 94.4261 72.1481 94.2811C72.512 94.1361 72.8427 93.9237 73.1213 93.6558C73.3999 93.3879 73.6209 93.0699 73.7716 92.7199C73.9224 92.3699 74 91.9948 74 91.6159C74 91.2371 73.9224 90.862 73.7716 90.512C73.6209 90.162 73.3999 89.844 73.1213 89.5761C72.8427 89.3082 72.512 89.0957 72.1481 88.9507C71.7841 88.8058 71.394 88.7312 71 88.7312C70.2044 88.7312 69.4413 89.0351 68.8787 89.5761C68.3161 90.1171 68 90.8508 68 91.6159C68 92.381 68.3161 93.1148 68.8787 93.6558C69.4413 94.1968 70.2044 94.5007 71 94.5007Z" fill="#FFC800"/>
</g>
</g>
<defs>
<clipPath id="clip0_14_167">
<rect width="142" height="142" fill="white"/>
</clipPath>
</defs>
</svg>
