<svg version="1.2" xmlns="http://www.w3.org/2000/svg" viewBox="0 0 1001 1004" width="1000" height="1000">
	<title>blueyellow</title>
	<style>
		.s0 { fill: #333333 } 
		.s1 { fill: #00b159 } 
		.s2 { fill: #1f4993 } 
		.s3 { fill: #ffd100 } 
	</style>
	<g id="path64 copy">
		<path id="Path 0" class="s0" d="m379.5 87.4c-3.9 0.8-10.4 2.4-14.5 3.6-4.1 1.2-10.9 3.8-15 5.7-4.1 1.9-10.6 5.5-14.5 8-5.2 3.5-34.2 31.7-114.4 111.7-59 58.9-109.9 110.2-113 114.1-3.1 3.9-7.8 10.8-10.3 15.5-2.6 4.7-6.1 12.2-7.8 16.7-1.6 4.6-3.9 12.8-5 18.3-1.3 6.6-2 14-2 21.7 0 6.5 0.7 15.9 1.6 20.8 0.9 4.9 3 12.8 4.6 17.5 1.7 4.7 4.8 12.1 7 16.5 2.2 4.4 5.7 10.2 7.6 13 2 2.7 7.7 9.2 12.7 14.3 4.9 5.2 11.2 11 13.8 13l4.8 3.7c-20.7 20.9-28.8 29.9-31.3 33.5-2.5 3.6-6.1 9.6-8.1 13.5-1.9 3.9-4.8 10.8-6.5 15.5-1.6 4.7-3.7 12.5-4.6 17.5-1.4 7.9-1.6 23-1.6 121.3 0 107.3 0.1 112.6 2 122 1 5.3 3.1 13.1 4.6 17.2 1.4 4.1 4 10.2 5.6 13.5 1.7 3.3 5.1 9.1 7.6 13 2.6 3.9 8.3 10.8 12.7 15.4 4.4 4.5 10.9 10.5 14.5 13.1 3.6 2.7 12.1 7.6 19 10.9 6.9 3.3 16.8 7.2 22 8.7 7.6 2.1 12.5 2.7 24.5 3.1 8.9 0.3 17.6 0.1 21.5-0.5 3.6-0.6 10.6-2.3 15.5-3.7 4.9-1.5 12.8-4.4 17.5-6.6 4.7-2.2 11.6-6.1 15.5-8.7 3.9-2.6 11.1-8.5 16-13.3 4.9-4.8 11.5-12.1 14.5-16.2l5.5-7.5c6.3 8.8 10.8 14.2 14.1 17.7 3.2 3.5 9.3 9.1 13.4 12.4 4.1 3.3 11.8 8.1 17 10.7 5.2 2.6 13.3 6.1 18 7.8 4.7 1.6 11.9 3.7 16 4.6 6.5 1.3 22.6 1.6 124 1.8l116.5 0.3c15.5-4.3 24.7-7.9 30.5-10.7 5.8-2.9 13.9-7.8 18-10.9 4.6-3.4 48.2-46.7 112.5-111.9 57.8-58.4 107.4-109.5 110.4-113.4 2.9-3.9 7.3-10.9 9.6-15.6 2.4-4.7 5.6-12.3 7.3-17 1.6-4.7 3.7-12.5 4.6-17.5 0.9-5 1.6-14 1.6-20 0-6-0.7-15-1.6-20-0.9-5-3-12.8-4.6-17.5-1.7-4.7-4.8-12.1-7-16.5-2.2-4.4-5.9-10.7-8.3-14-2.3-3.3-9.5-11.1-15.9-17.2l-11.6-11.3c19.1-19.8 26.7-28.4 29.2-32 2.5-3.6 6.2-9.9 8.3-14 2.1-4.1 5.2-12 7.1-17.5 1.8-5.5 3.8-13.1 4.5-17 0.7-4.4 1-13 0.7-23.5-0.5-14.1-0.9-17.8-3.2-25.5-1.5-4.9-5.1-13.9-8-20-2.8-6-6.7-13.2-8.6-16-1.8-2.7-7.7-9.4-12.9-14.8-5.3-5.4-11.8-11.5-14.6-13.5-2.7-2-5.2-3.7-5.5-3.9-0.3-0.2 5.8-6.7 13.6-14.6 7.7-7.8 15.9-16.7 18.1-19.7 2.2-3 6.1-9.3 8.6-14 2.6-4.7 6-12.8 7.7-18 1.7-5.2 3.7-13.6 4.5-18.5 0.8-4.9 1.5-13.5 1.5-19 0-5.5-0.7-14.1-1.6-19-0.8-4.9-2.8-12.9-4.5-17.7-1.6-4.9-4.5-12.1-6.5-16-2-4-5.7-10.2-8.2-13.8-2.5-3.6-7.5-9.6-11.1-13.4-3.6-3.8-10-9.6-14.1-12.9-4.1-3.3-11.3-7.9-16-10.2-4.7-2.4-12.3-5.6-17-7.3-4.7-1.6-11.9-3.7-16-4.6-6.6-1.4-32.1-1.6-221.5-2-178.1-0.5-215.2-0.3-221 0.8z"/>
		<path id="Path 1" class="s1" d="m380 97.5c-3.6 0.7-9.9 2.3-14 3.5-4.1 1.2-9.8 3.4-12.5 4.7-2.8 1.4-8.1 4.6-12 7-5.4 3.5-31 28.5-114.8 112.1-59.3 59.3-110 110.6-112.7 114.2-2.7 3.6-7.2 11-10 16.5-3 5.9-6.1 14.1-7.7 20-1.9 7.5-2.7 13.4-3 23.5-0.3 8.2 0 16.4 0.7 21 0.7 4.1 2.3 11.1 3.7 15.5 1.4 4.4 4.3 11.6 6.5 16 2.2 4.4 6 10.7 8.3 14 2.3 3.3 8.7 10.3 14.1 15.5 5.5 5.2 12.8 11.2 16.4 13.3 3.6 2 6.9 3.9 7.5 4.1 0.6 0.2-7.1 8.6-17.1 18.7-10 10.1-19.9 21.1-22.1 24.4-2.2 3.3-5.6 9.1-7.5 13-2 3.9-4.7 10.6-6.1 15-1.4 4.4-3 11.4-3.7 15.5-0.8 5.5-1 38.4-0.8 121.5l0.3 114c4.3 15.5 7 23.1 8.8 27 1.8 3.9 5.5 10.4 8.1 14.5 2.7 4.1 8.3 11 12.5 15.4 4.2 4.3 10.3 9.7 13.6 12.1 3.3 2.3 10.7 6.6 16.5 9.5 7 3.5 14.4 6.2 22 8.2 9.8 2.4 13.4 2.8 25 2.8 11.7 0 15.1-0.4 25.5-3 6.6-1.6 15.2-4.5 19-6.3 3.8-1.8 10.4-5.5 14.5-8.1 4.1-2.7 11.5-8.7 16.3-13.5 4.9-4.7 11-11.7 13.5-15.6 2.6-3.9 6.3-10.5 8.2-14.7 1.9-4.3 3.7-7.7 4-7.8 0.3 0 2.8 4.6 5.7 10.3 3.1 6.1 7.8 13.3 11.7 18 3.6 4.2 10.1 10.7 14.4 14.3 5.3 4.5 11.5 8.4 19.7 12.5 6.6 3.2 16.1 7.1 21 8.6l9 2.7c82.9 1.1 135.4 1.4 170 1.5l63 0.1c20.3-5.1 26.6-7.4 32.5-10.6 4.7-2.6 11.2-6.6 14.5-8.9 3.3-2.4 52.6-51.4 111.5-111 58-58.7 107.4-109.3 109.8-112.4 2.3-3.1 6.3-9.6 8.9-14.6 2.5-5 5.7-12.1 7-16 1.3-3.9 3-10.6 3.8-15 0.9-4.4 1.5-13 1.5-19 0-6-0.6-14.6-1.5-19-0.8-4.4-2.5-11.1-3.8-15-1.3-3.9-4.1-10.4-6.2-14.5-2.1-4.1-5.5-10-7.5-13-2.1-3-8.5-10-14.1-15.6-5.7-5.5-12.9-11.5-15.9-13.4-3-1.9-5.7-3.5-6-3.7-0.3-0.2 7.2-8.1 16.6-17.6 9.4-9.4 19.1-20.1 21.4-23.7 2.4-3.6 6.1-10.1 8.2-14.5 2-4.4 4.9-12.1 6.4-17 2.4-7.8 2.8-11.3 3.2-26 0.4-15.9 0.3-17.7-2.2-27.5-1.5-5.9-4.8-14.9-7.4-20.5-2.7-5.5-6.7-12.7-8.9-16-2.3-3.3-8.3-10.1-13.5-15.2-5.1-5-12-10.9-15.3-13-3.3-2.1-7.5-4.5-9.3-5.3l-3.2-1.5c30.6-30.8 40.5-41.7 42.9-45.5 2.3-3.6 6-10.1 8.2-14.5 2.1-4.4 5.1-12.5 6.6-18 2.4-9 2.7-11.7 2.7-27.5 0-15.9-0.2-18.4-2.7-27.5-1.5-5.5-4.5-13.8-6.8-18.5-2.2-4.7-6.3-11.6-8.9-15.5-2.7-3.8-8.8-10.8-13.7-15.5-4.8-4.7-10.8-10-13.3-11.7-2.5-1.7-8.8-5.2-14-7.7-5.2-2.5-13.5-5.8-18.5-7.3l-9-2.7c-139.5-1-236.9-1.4-306.5-1.4-99.5 0-127.9 0.3-133 1.3z"/>
		<path id="Path 2" fill-rule="evenodd" class="s0" d="m600.5 151.6c187.1 0.4 208.6 0.6 213.5 2 3 0.9 7.8 2.8 10.5 4.2 2.8 1.4 8.2 5.7 12.1 9.6 4.6 4.7 8.1 9.3 10.2 13.6 1.7 3.6 3.7 9.7 4.3 13.5 0.7 4 0.9 10 0.5 14-0.3 3.9-1.3 9-2 11.5-0.8 2.5-2.7 6.7-4.3 9.5-1.5 2.7-7.1 9.3-12.3 14.6-5.2 5.4-52.9 52.9-106 105.6-76.3 75.8-97.8 96.6-102.5 99.3-3.3 1.8-8.2 4-11 4.7-3.9 1-24.9 1.3-193 1.3l-168.5 168.5v93.5c0 80-0.2 94.3-1.5 99.3-0.8 3.1-2.7 8.1-4.1 11-1.5 2.8-5.7 8.2-9.3 11.8-3.6 3.6-9.1 7.9-12.1 9.6-3 1.7-8.2 3.8-11.5 4.7-3.3 0.9-9.4 1.6-13.5 1.6-4.1 0-9.7-0.6-12.5-1.4-2.7-0.7-7.9-2.8-11.5-4.6-3.8-1.9-9-5.8-12.6-9.4-3.3-3.4-7.4-8.6-9.2-11.6-1.7-3-3.8-8.5-4.6-12.2-1.4-6-1.6-20.2-1.1-226.3l2.2-5.5c1.2-3 3.7-7.6 5.5-10.1 1.8-2.6 50.3-51.9 107.8-109.7 104-104.5 104.5-105 120.5-112.7l193.3-1 95.5-94-30.9-0.6c-17-0.4-73.5-0.7-220.4-0.9l-92.8 93.1c-51 51.2-95.4 95.1-98.7 97.6-3.3 2.4-8.5 5.4-11.5 6.6-4.7 1.8-7.5 2.2-32.7 2.2l-8.4-4.2c-6.6-3.2-9.8-5.6-15.3-11.5-4.2-4.4-8.1-9.7-9.8-13.3-1.5-3.3-3.2-8.5-3.8-11.5-0.6-3-1-8.2-1-11.5 0-3.3 0.7-8.8 1.5-12.2 0.8-3.5 2.9-8.9 4.6-12 2.6-4.6 24.5-27.1 109.3-111.9 58.4-58.4 108.1-107.4 110.6-108.9 2.5-1.6 6.5-3.4 9-4.1 2.5-0.7 5.6-1.5 7-1.8 1.4-0.3 96.1-0.3 210.5 0zm200.5 202.7c11.1 0.2 11.8 0.3 19.5 4.1 5.5 2.6 10.1 5.8 14.5 10.1 3.6 3.4 7.9 8.9 9.7 12.1 1.8 3.3 3.9 8.2 4.7 10.9 0.9 2.9 1.6 8.8 1.6 14 0 6.1-0.6 11.1-1.9 15.5-1.1 3.6-3.8 9.2-6 12.5-2.6 3.9-39.6 41.4-107.8 109.1-59.3 58.8-105.7 104.2-108.3 105.7-2.5 1.5-7.6 3.6-11.5 4.7-6.8 1.9-9.7 2-163.5 2v24.3c0 13.3 0.3 34.7 1.5 70.7l125-0.3 40.5-41.1c22.3-22.6 64.6-65.4 94-95.2 35.8-36.2 55.2-55 58.5-57 2.8-1.6 7.5-3.7 10.5-4.6 3.9-1.3 8.6-1.8 16-1.8 6.5 0 12.4 0.6 15.5 1.6 2.8 0.8 7.2 2.7 9.9 4.2 2.6 1.5 7.9 5.9 11.6 9.7 4.4 4.5 7.9 9.3 9.9 13.5 1.7 3.6 3.5 9 4.1 12 0.6 3 1 7.8 1 10.5 0 2.8-0.4 7.5-1 10.5-0.5 3-2.7 8.9-4.7 13-3.5 7.1-7.3 11.2-79.2 84-41.6 42.1-89.1 90-105.6 106.6-21.8 21.9-31.5 30.9-35.5 33.1-3 1.7-8 3.6-11 4.3-4.4 1.1-26 1.2-113 0.6-91.6-0.7-108.2-1-112.5-2.3-2.7-0.8-7.6-2.8-10.7-4.4-3.4-1.7-8.6-5.7-12.5-9.6-4.5-4.6-7.7-9.1-10-13.8-2.3-4.7-3.7-9.4-4.3-14.5-0.4-4.1-1.4-53.6-2.1-110-0.9-82.9-0.9-103.6 0.1-108 0.7-3 2.8-8.4 4.6-12 2.1-4.2 5.6-8.8 10.1-13.1 3.7-3.6 8.4-7.5 10.3-8.7 1.9-1.1 6.3-3 9.8-4.1 6.1-2.1 7.6-2.1 196.7-2.1l48-48.1c26.4-26.4 69.1-68.9 95-94.3 39.9-39.3 47.9-46.8 53.3-49.4 3.4-1.8 7.9-3.6 10-4.1 2-0.6 8.9-0.9 15.2-0.8z"/>
		<path id="Path 3" class="s2" d="m393.5 161.6c-1.1 0.3-4 1-6.5 1.6-2.5 0.6-6.3 2.2-8.5 3.6-2.2 1.3-51 49.5-108.5 107.1-88.5 88.5-105 105.4-107.2 110.1-1.5 3-3.2 8.4-3.9 12-0.9 5-1 8.1-0.1 13.5 0.7 3.9 2.3 9.3 3.6 12 1.2 2.8 4.5 7.4 7.2 10.4 3.4 3.7 7.2 6.4 12.4 8.9 6.2 3 8.9 3.7 15.5 4.1 6.1 0.3 9.7-0.1 15-1.7 4-1.2 9.3-3.7 12.3-5.9 2.9-2.1 47.5-46.2 99.2-98l94-94.3c150.7 0.2 213.6 0.6 236.9 0.9l42.4 0.6-115.4 114-194.4 1c-13.1 6.3-20.1 13.1-116.3 109.6-56.5 56.7-104 105-105.7 107.3-1.6 2.2-3.9 6.4-5 9.1-2 4.9-2 7.2-2.3 111.5-0.2 92.9-0.1 107.4 1.3 113.5 1 4.5 2.9 9.1 5.4 13 2.1 3.3 5.6 7.4 7.7 9.1 2.2 1.7 5.9 4.2 8.4 5.4 2.5 1.3 6.8 2.9 9.5 3.6 2.8 0.8 7 1.4 9.5 1.4 2.5 0 7.4-0.8 11-1.8 3.6-1 9.2-3.6 12.4-5.7 3.3-2.2 7.6-6 9.6-8.5 2-2.5 4.7-7.2 6-10.5l2.5-6 0.5-193 174.5-174.5c169.4 0 190-0.3 194-1.3 2.8-0.8 7.3-2.7 10-4.2 3.4-2 34-31.7 93-90.4 48.4-48.1 95.2-94.7 104-103.6 8.9-8.8 17.2-18 18.6-20.5 1.4-2.5 3.1-6.7 3.9-9.5 0.8-2.7 1.4-7.9 1.4-11.5 0-3.6-0.6-9-1.4-12-0.8-3-3-8-5.1-11-2-3-6.1-7.4-9-9.8-3-2.4-7.9-5.3-10.9-6.5-5.5-2.1-6.1-2.2-95-2.8-49.2-0.4-142.4-0.6-207-0.7-64.6 0-118.4 0.2-119.5 0.4z"/>
		<path id="Path 4" class="s3" d="m788.8 365c-2.1 0.6-6.2 2.2-9 3.6-3.9 2-12.2 9.4-30.4 27.3-13.8 13.5-56.7 56.2-95.5 94.8l-70.4 70.3c-188.8 0-191.7 0.1-197.5 2-3.3 1.1-7.2 2.8-8.7 3.7-1.6 0.9-5 3.7-7.6 6.2-2.7 2.5-6.1 7.1-7.6 10.1-1.6 3-3.4 7.8-4 10.5-1 4-1 25.8-0.1 104.5 0.6 54.7 1.5 102.9 1.9 107 0.5 5 1.8 9.7 3.8 14 1.8 3.8 5.1 8.5 7.9 11.3 2.7 2.7 6.9 5.9 9.4 7.2 2.5 1.2 6.8 3 9.5 3.8 4.2 1.3 20.8 1.6 109.5 2.3 85.8 0.6 105.5 0.5 110-0.6 3-0.8 7.5-2.5 10-3.8 2.7-1.5 15.6-13.6 32.5-30.6 15.4-15.5 62-62.5 103.6-104.6 67.6-68.4 75.9-77.2 78.7-83 1.8-3.6 3.7-9.4 4.4-13 0.8-4.8 0.8-8.2-0.1-13-0.6-3.6-2.2-8.9-3.6-11.8-1.4-2.8-4.6-7.5-7.2-10.3-2.7-2.8-6.6-6.2-8.8-7.5-2.2-1.3-6.2-3-9-3.9-2.7-0.8-8.4-1.5-12.5-1.5-4.1 0-9.7 0.7-12.5 1.5-2.7 0.9-7 2.8-9.5 4.2-2.6 1.6-26.1 24.5-56 54.7-28.3 28.7-70.8 71.7-94.5 95.7l-43 43.7-139 0.2c-1.2-44.6-1.5-70.4-1.5-86.3v-28.7c160.7 0 163.7-0.1 170.5-2 3.9-1.1 8.8-3.2 11-4.7 2.2-1.5 49.4-47.7 104.9-102.7 55.4-55.1 102.6-102.6 104.8-105.6 2.1-3 4.8-8.4 5.9-12 1.1-3.6 1.9-9.2 1.9-12.5 0-3.3-0.7-8.3-1.6-11-0.8-2.8-2.7-7.2-4.2-9.9-1.5-2.6-4.8-6.8-7.4-9.2-2.7-2.4-7.8-5.8-11.5-7.6-5.8-2.7-8.1-3.3-15.3-3.5-4.7-0.1-10.2 0.2-12.2 0.7z"/>
	</g>
</svg>