<svg version="1.2" xmlns="http://www.w3.org/2000/svg" viewBox="0 0 1001 1004" width="1000" height="1000">
	<title>blueyellow</title>
	<style>
		.s0 { fill: #00b159 } 
		.s1 { fill: #ffd100 } 
		.s2 { fill: #1f4993 } 
	</style>
	<g id="path64 copy">
		<path id="Path 0" class="s0" d="m382.5 96.7c-1.1 0.2-5.6 1.3-10 2.4-4.4 1.1-10.3 2.8-13 3.8-2.8 0.9-7.9 3.5-11.5 5.6-3.6 2.1-9.4 6.1-13 8.8-3.6 2.8-52.5 51-108.8 107.1-56.3 56.2-105.4 105.9-109.1 110.6-3.8 4.7-8.9 12.1-11.4 16.5-2.5 4.4-5.5 10.9-6.7 14.5-1.2 3.6-3 10.3-4.1 15-1.3 5.9-1.9 12.5-1.9 21.8 0 7.3 0.6 16.4 1.4 20.5 0.8 3.9 2.6 10.8 4.1 15.2 1.4 4.4 4.4 11.4 6.7 15.5 2.2 4.1 6.8 11.1 10.2 15.5 3.5 4.4 8.9 10.4 12.2 13.3 3.2 3 9.3 7.6 13.4 10.3 4.1 2.7 7.9 5.1 8.5 5.3 0.6 0.2-6 7.5-14.6 16.2-8.6 8.8-18.4 19.7-21.9 24.4-3.4 4.7-7.9 12.1-10 16.5-2.1 4.4-4.7 11.1-5.8 15-1.2 3.9-2.6 9.7-3.1 13-0.8 4-1.1 43.1-1.1 119.5 0 107.1 0.1 114 1.9 122 1 4.7 3 11.6 4.3 15.5 1.3 3.9 4.5 10.6 7 15 2.6 4.4 7.8 11.8 11.5 16.4 4.2 5.2 10.3 11.1 15.8 15.4 5.2 4 13.6 9.2 20 12.2 6.1 3 15.5 6.5 21 7.9 8.6 2.2 12.1 2.6 25.5 2.6 14.1 0 16.5-0.3 27-3.1 6.3-1.7 14.6-4.6 18.5-6.4 3.8-1.9 9.7-5.2 13-7.4 3.3-2.2 9-6.5 12.7-9.5 3.8-3.1 10-9.8 13.9-14.8 3.9-5.1 9.1-13.5 11.5-18.5l4.4-9.3c7.4 14.4 12.6 22.5 16.5 27.3 4.2 5.3 10.8 11.8 16.5 16.4 6 4.7 13.2 9.3 19.5 12.4 5.5 2.6 14.1 6 19 7.5l9 2.7c82.9 1.1 135.8 1.5 171 1.6 59.9 0.1 64.5 0 72-1.8 4.4-1.1 10.2-2.7 13-3.6 2.7-0.9 8.6-3.7 13-6.2 4.4-2.6 11.4-7.2 15.5-10.4 4.1-3.2 53-51.8 108.5-108 55.5-56.2 103.9-105.9 107.5-110.5 3.6-4.5 8.4-11.8 10.7-16.1 2.3-4.3 5.4-11.4 6.8-15.8 1.5-4.4 3.3-11.3 4.1-15.2 0.8-4 1.4-12.9 1.4-19.8 0-6.9-0.6-15.8-1.4-19.7-0.8-4-2.6-10.9-4.1-15.3-1.4-4.4-4.4-11.4-6.6-15.5-2.2-4.1-6.6-10.8-9.7-14.9-3.1-4.1-8.7-10.2-12.3-13.5-3.6-3.4-9.2-7.9-12.5-10.1-3.2-2.1-6.4-4.3-6.9-4.7-0.6-0.5 4.9-6.8 13.6-15.6 8.1-8.1 17.4-18.5 20.9-23.2 3.4-4.7 7.9-12.1 10-16.5 2.1-4.4 5.1-12.3 6.7-17.5 2.7-9 2.8-10.5 2.8-29 0-17.5-0.2-20.4-2.4-28-1.3-4.7-4.2-12.3-6.3-17-2.2-4.7-5.9-11.4-8.3-15-2.4-3.6-6.8-9.2-9.7-12.5-3-3.3-8.4-8.3-11.9-11.2-3.5-2.8-9.4-6.8-13.1-9l-6.7-3.8c21.7-21.7 31.3-32 35.3-37 4.1-4.9 9.4-12.6 11.9-17 2.5-4.4 5.3-10.2 6.2-13 0.9-2.7 2.6-8.6 3.8-13 1.9-6.9 2.2-10.5 2.1-26 0-16.4-0.2-18.9-2.7-28-1.5-5.5-4.8-14-7.2-19-2.5-4.9-7.9-13.4-12-18.7-5.4-7.1-10.3-12.1-17.8-17.9-6.1-4.9-13.8-9.9-19.2-12.5-5-2.3-13-5.5-18-7l-9-2.8c-138.7-1-236.8-1.3-307.5-1.4-70.7 0-129.4 0.2-130.5 0.5z"/>
		<path id="Path 1" class="s1" d="m788.8 365c-2.1 0.6-6.2 2.2-9 3.6-3.9 2-12.2 9.4-30.4 27.3-13.8 13.5-56.7 56.2-95.5 94.8l-70.4 70.3c-188.8 0-191.7 0.1-197.5 2-3.3 1.1-7.2 2.8-8.7 3.7-1.6 0.9-5 3.7-7.6 6.2-2.7 2.5-6.1 7.1-7.6 10.1-1.6 3-3.4 7.8-4 10.5-1 4-1 25.8-0.1 104.5 0.6 54.7 1.5 102.9 1.9 107 0.5 5 1.8 9.7 3.8 14 1.8 3.8 5.1 8.5 7.9 11.3 2.7 2.7 6.9 5.9 9.4 7.2 2.5 1.2 6.8 3 9.5 3.8 4.2 1.3 20.8 1.6 109.5 2.3 85.8 0.6 105.5 0.5 110-0.6 3-0.8 7.5-2.5 10-3.8 2.7-1.5 15.6-13.6 32.5-30.6 15.4-15.5 62-62.5 103.6-104.6 67.6-68.4 75.9-77.2 78.7-83 1.8-3.6 3.7-9.4 4.4-13 0.8-4.8 0.8-8.2-0.1-13-0.6-3.6-2.2-8.9-3.6-11.8-1.4-2.8-4.6-7.5-7.2-10.3-2.7-2.8-6.6-6.2-8.8-7.5-2.2-1.3-6.2-3-9-3.9-2.7-0.8-8.4-1.5-12.5-1.5-4.1 0-9.7 0.7-12.5 1.5-2.7 0.9-7 2.8-9.5 4.2-2.6 1.6-26.1 24.5-56 54.7-28.3 28.7-70.8 71.7-94.5 95.7l-43 43.7-139 0.2c-1.2-44.6-1.5-70.4-1.5-86.3v-28.7c160.7 0 163.7-0.1 170.5-2 3.9-1.1 8.8-3.2 11-4.7 2.2-1.5 49.4-47.7 104.9-102.7 55.4-55.1 102.6-102.6 104.8-105.6 2.1-3 4.8-8.4 5.9-12 1.1-3.6 1.9-9.2 1.9-12.5 0-3.3-0.7-8.3-1.6-11-0.8-2.8-2.7-7.2-4.2-9.9-1.5-2.6-4.8-6.8-7.4-9.2-2.7-2.4-7.8-5.8-11.5-7.6-5.8-2.7-8.1-3.3-15.3-3.5-4.7-0.1-10.2 0.2-12.2 0.7z"/>
		<path id="Path 2" class="s2" d="m393.5 161.6c-1.1 0.3-4 1-6.5 1.6-2.5 0.6-6.3 2.2-8.5 3.6-2.2 1.3-51 49.5-108.5 107.1-88.5 88.5-105 105.4-107.2 110.1-1.5 3-3.2 8.4-3.9 12-0.9 5-1 8.1-0.1 13.5 0.7 3.9 2.3 9.3 3.6 12 1.2 2.8 4.5 7.4 7.2 10.4 3.4 3.7 7.2 6.4 12.4 8.9 6.2 3 8.9 3.7 15.5 4.1 6.1 0.3 9.7-0.1 15-1.7 4-1.2 9.3-3.7 12.3-5.9 2.9-2.1 47.5-46.2 99.2-98l94-94.3c150.7 0.2 213.6 0.6 236.9 0.9l42.4 0.6-115.4 114-194.4 1c-13.1 6.3-20.1 13.1-116.3 109.6-56.5 56.7-104 105-105.7 107.3-1.6 2.2-3.9 6.4-5 9.1-2 4.9-2 7.2-2.3 111.5-0.2 92.9-0.1 107.4 1.3 113.5 1 4.5 2.9 9.1 5.4 13 2.1 3.3 5.6 7.4 7.7 9.1 2.2 1.7 5.9 4.2 8.4 5.4 2.5 1.3 6.8 2.9 9.5 3.6 2.8 0.8 7 1.4 9.5 1.4 2.5 0 7.4-0.8 11-1.8 3.6-1 9.2-3.6 12.4-5.7 3.3-2.2 7.6-6 9.6-8.5 2-2.5 4.7-7.2 6-10.5l2.5-6 0.5-193 174.5-174.5c169.4 0 190-0.3 194-1.3 2.8-0.8 7.3-2.7 10-4.2 3.4-2 34-31.7 93-90.4 48.4-48.1 95.2-94.7 104-103.6 8.9-8.8 17.2-18 18.6-20.5 1.4-2.5 3.1-6.7 3.9-9.5 0.8-2.7 1.4-7.9 1.4-11.5 0-3.6-0.6-9-1.4-12-0.8-3-3-8-5.1-11-2-3-6.1-7.4-9-9.8-3-2.4-7.9-5.3-10.9-6.5-5.5-2.1-6.1-2.2-95-2.8-49.2-0.4-142.4-0.6-207-0.7-64.6 0-118.4 0.2-119.5 0.4z"/>
	</g>
</svg>